G04 #@! TF.GenerationSoftware,KiCad,Pcbnew,(5.1.9)-1*
G04 #@! TF.CreationDate,2021-09-18T19:11:12-04:00*
G04 #@! TF.ProjectId,cm4-carrier-net,636d342d-6361-4727-9269-65722d6e6574,v1.0a*
G04 #@! TF.SameCoordinates,Original*
G04 #@! TF.FileFunction,Copper,L1,Top*
G04 #@! TF.FilePolarity,Positive*
%FSLAX46Y46*%
G04 Gerber Fmt 4.6, Leading zero omitted, Abs format (unit mm)*
G04 Created by KiCad (PCBNEW (5.1.9)-1) date 2021-09-18 19:11:12*
%MOMM*%
%LPD*%
G01*
G04 APERTURE LIST*
G04 #@! TA.AperFunction,NonConductor*
%ADD10C,0.200000*%
G04 #@! TD*
G04 #@! TA.AperFunction,EtchedComponent*
%ADD11C,0.010000*%
G04 #@! TD*
G04 #@! TA.AperFunction,SMDPad,CuDef*
%ADD12R,2.500000X1.250000*%
G04 #@! TD*
G04 #@! TA.AperFunction,SMDPad,CuDef*
%ADD13R,0.600000X1.160000*%
G04 #@! TD*
G04 #@! TA.AperFunction,SMDPad,CuDef*
%ADD14R,0.300000X1.160000*%
G04 #@! TD*
G04 #@! TA.AperFunction,ComponentPad*
%ADD15O,0.900000X1.700000*%
G04 #@! TD*
G04 #@! TA.AperFunction,ComponentPad*
%ADD16O,0.900000X2.000000*%
G04 #@! TD*
G04 #@! TA.AperFunction,SMDPad,CuDef*
%ADD17R,0.200000X0.700000*%
G04 #@! TD*
G04 #@! TA.AperFunction,SMDPad,CuDef*
%ADD18R,0.800000X0.900000*%
G04 #@! TD*
G04 #@! TA.AperFunction,SMDPad,CuDef*
%ADD19R,0.900000X1.700000*%
G04 #@! TD*
G04 #@! TA.AperFunction,ComponentPad*
%ADD20C,2.200000*%
G04 #@! TD*
G04 #@! TA.AperFunction,ComponentPad*
%ADD21C,1.500000*%
G04 #@! TD*
G04 #@! TA.AperFunction,ComponentPad*
%ADD22C,1.524000*%
G04 #@! TD*
G04 #@! TA.AperFunction,ComponentPad*
%ADD23C,0.800000*%
G04 #@! TD*
G04 #@! TA.AperFunction,ComponentPad*
%ADD24C,5.400000*%
G04 #@! TD*
G04 #@! TA.AperFunction,SMDPad,CuDef*
%ADD25R,0.300000X0.300000*%
G04 #@! TD*
G04 #@! TA.AperFunction,SMDPad,CuDef*
%ADD26C,0.750000*%
G04 #@! TD*
G04 #@! TA.AperFunction,ViaPad*
%ADD27C,0.500000*%
G04 #@! TD*
G04 #@! TA.AperFunction,ViaPad*
%ADD28C,0.800000*%
G04 #@! TD*
G04 #@! TA.AperFunction,Conductor*
%ADD29C,0.152400*%
G04 #@! TD*
G04 #@! TA.AperFunction,Conductor*
%ADD30C,0.254000*%
G04 #@! TD*
G04 #@! TA.AperFunction,Conductor*
%ADD31C,0.508000*%
G04 #@! TD*
G04 #@! TA.AperFunction,Conductor*
%ADD32C,0.101600*%
G04 #@! TD*
G04 #@! TA.AperFunction,Conductor*
%ADD33C,0.100000*%
G04 #@! TD*
G04 APERTURE END LIST*
D10*
X138225238Y-113785714D02*
X138606190Y-113785714D01*
X138368095Y-113452380D02*
X138368095Y-114309523D01*
X138415714Y-114404761D01*
X138510952Y-114452380D01*
X138606190Y-114452380D01*
X138844285Y-113785714D02*
X139034761Y-114452380D01*
X139225238Y-113976190D01*
X139415714Y-114452380D01*
X139606190Y-113785714D01*
X139987142Y-114452380D02*
X139987142Y-113785714D01*
X139987142Y-113452380D02*
X139939523Y-113500000D01*
X139987142Y-113547619D01*
X140034761Y-113500000D01*
X139987142Y-113452380D01*
X139987142Y-113547619D01*
X140320476Y-113785714D02*
X140701428Y-113785714D01*
X140463333Y-113452380D02*
X140463333Y-114309523D01*
X140510952Y-114404761D01*
X140606190Y-114452380D01*
X140701428Y-114452380D01*
X141463333Y-114404761D02*
X141368095Y-114452380D01*
X141177619Y-114452380D01*
X141082380Y-114404761D01*
X141034761Y-114357142D01*
X140987142Y-114261904D01*
X140987142Y-113976190D01*
X141034761Y-113880952D01*
X141082380Y-113833333D01*
X141177619Y-113785714D01*
X141368095Y-113785714D01*
X141463333Y-113833333D01*
X141891904Y-114452380D02*
X141891904Y-113452380D01*
X142320476Y-114452380D02*
X142320476Y-113928571D01*
X142272857Y-113833333D01*
X142177619Y-113785714D01*
X142034761Y-113785714D01*
X141939523Y-113833333D01*
X141891904Y-113880952D01*
X142796666Y-114357142D02*
X142844285Y-114404761D01*
X142796666Y-114452380D01*
X142749047Y-114404761D01*
X142796666Y-114357142D01*
X142796666Y-114452380D01*
X143130000Y-113785714D02*
X143510952Y-113785714D01*
X143272857Y-113452380D02*
X143272857Y-114309523D01*
X143320476Y-114404761D01*
X143415714Y-114452380D01*
X143510952Y-114452380D01*
X143749047Y-113785714D02*
X143987142Y-114452380D01*
X144225238Y-113785714D01*
X145320476Y-113404761D02*
X144463333Y-114690476D01*
X145653809Y-113785714D02*
X145653809Y-114642857D01*
X145606190Y-114738095D01*
X145510952Y-114785714D01*
X145463333Y-114785714D01*
X145653809Y-113452380D02*
X145606190Y-113500000D01*
X145653809Y-113547619D01*
X145701428Y-113500000D01*
X145653809Y-113452380D01*
X145653809Y-113547619D01*
X146130000Y-114452380D02*
X146130000Y-113452380D01*
X146225238Y-114071428D02*
X146510952Y-114452380D01*
X146510952Y-113785714D02*
X146130000Y-114166666D01*
X146939523Y-114452380D02*
X146939523Y-113785714D01*
X146939523Y-113452380D02*
X146891904Y-113500000D01*
X146939523Y-113547619D01*
X146987142Y-113500000D01*
X146939523Y-113452380D01*
X146939523Y-113547619D01*
X147320476Y-113785714D02*
X147558571Y-114452380D01*
X147796666Y-113785714D01*
X138225238Y-111785714D02*
X138606190Y-111785714D01*
X138368095Y-112452380D02*
X138368095Y-111595238D01*
X138415714Y-111500000D01*
X138510952Y-111452380D01*
X138606190Y-111452380D01*
X139082380Y-112452380D02*
X138987142Y-112404761D01*
X138939523Y-112357142D01*
X138891904Y-112261904D01*
X138891904Y-111976190D01*
X138939523Y-111880952D01*
X138987142Y-111833333D01*
X139082380Y-111785714D01*
X139225238Y-111785714D01*
X139320476Y-111833333D01*
X139368095Y-111880952D01*
X139415714Y-111976190D01*
X139415714Y-112261904D01*
X139368095Y-112357142D01*
X139320476Y-112404761D01*
X139225238Y-112452380D01*
X139082380Y-112452380D01*
X140272857Y-111785714D02*
X140272857Y-112452380D01*
X139844285Y-111785714D02*
X139844285Y-112309523D01*
X139891904Y-112404761D01*
X139987142Y-112452380D01*
X140130000Y-112452380D01*
X140225238Y-112404761D01*
X140272857Y-112357142D01*
X140749047Y-112452380D02*
X140749047Y-111785714D01*
X140749047Y-111976190D02*
X140796666Y-111880952D01*
X140844285Y-111833333D01*
X140939523Y-111785714D01*
X141034761Y-111785714D01*
X141320476Y-112404761D02*
X141415714Y-112452380D01*
X141606190Y-112452380D01*
X141701428Y-112404761D01*
X141749047Y-112309523D01*
X141749047Y-112261904D01*
X141701428Y-112166666D01*
X141606190Y-112119047D01*
X141463333Y-112119047D01*
X141368095Y-112071428D01*
X141320476Y-111976190D01*
X141320476Y-111928571D01*
X141368095Y-111833333D01*
X141463333Y-111785714D01*
X141606190Y-111785714D01*
X141701428Y-111833333D01*
X142177619Y-112452380D02*
X142177619Y-111785714D01*
X142177619Y-111452380D02*
X142130000Y-111500000D01*
X142177619Y-111547619D01*
X142225238Y-111500000D01*
X142177619Y-111452380D01*
X142177619Y-111547619D01*
X143082380Y-112452380D02*
X143082380Y-111452380D01*
X143082380Y-112404761D02*
X142987142Y-112452380D01*
X142796666Y-112452380D01*
X142701428Y-112404761D01*
X142653809Y-112357142D01*
X142606190Y-112261904D01*
X142606190Y-111976190D01*
X142653809Y-111880952D01*
X142701428Y-111833333D01*
X142796666Y-111785714D01*
X142987142Y-111785714D01*
X143082380Y-111833333D01*
X143939523Y-112404761D02*
X143844285Y-112452380D01*
X143653809Y-112452380D01*
X143558571Y-112404761D01*
X143510952Y-112309523D01*
X143510952Y-111928571D01*
X143558571Y-111833333D01*
X143653809Y-111785714D01*
X143844285Y-111785714D01*
X143939523Y-111833333D01*
X143987142Y-111928571D01*
X143987142Y-112023809D01*
X143510952Y-112119047D01*
X144415714Y-112357142D02*
X144463333Y-112404761D01*
X144415714Y-112452380D01*
X144368095Y-112404761D01*
X144415714Y-112357142D01*
X144415714Y-112452380D01*
X144891904Y-112452380D02*
X144891904Y-111785714D01*
X144891904Y-111452380D02*
X144844285Y-111500000D01*
X144891904Y-111547619D01*
X144939523Y-111500000D01*
X144891904Y-111452380D01*
X144891904Y-111547619D01*
X145510952Y-112452380D02*
X145415714Y-112404761D01*
X145368095Y-112357142D01*
X145320476Y-112261904D01*
X145320476Y-111976190D01*
X145368095Y-111880952D01*
X145415714Y-111833333D01*
X145510952Y-111785714D01*
X145653809Y-111785714D01*
X145749047Y-111833333D01*
X145796666Y-111880952D01*
X145844285Y-111976190D01*
X145844285Y-112261904D01*
X145796666Y-112357142D01*
X145749047Y-112404761D01*
X145653809Y-112452380D01*
X145510952Y-112452380D01*
X138272857Y-115785714D02*
X138510952Y-116452380D01*
X138749047Y-115785714D01*
X139653809Y-116452380D02*
X139082380Y-116452380D01*
X139368095Y-116452380D02*
X139368095Y-115452380D01*
X139272857Y-115595238D01*
X139177619Y-115690476D01*
X139082380Y-115738095D01*
X140082380Y-116357142D02*
X140130000Y-116404761D01*
X140082380Y-116452380D01*
X140034761Y-116404761D01*
X140082380Y-116357142D01*
X140082380Y-116452380D01*
X140749047Y-115452380D02*
X140844285Y-115452380D01*
X140939523Y-115500000D01*
X140987142Y-115547619D01*
X141034761Y-115642857D01*
X141082380Y-115833333D01*
X141082380Y-116071428D01*
X141034761Y-116261904D01*
X140987142Y-116357142D01*
X140939523Y-116404761D01*
X140844285Y-116452380D01*
X140749047Y-116452380D01*
X140653809Y-116404761D01*
X140606190Y-116357142D01*
X140558571Y-116261904D01*
X140510952Y-116071428D01*
X140510952Y-115833333D01*
X140558571Y-115642857D01*
X140606190Y-115547619D01*
X140653809Y-115500000D01*
X140749047Y-115452380D01*
X141939523Y-116452380D02*
X141939523Y-115928571D01*
X141891904Y-115833333D01*
X141796666Y-115785714D01*
X141606190Y-115785714D01*
X141510952Y-115833333D01*
X141939523Y-116404761D02*
X141844285Y-116452380D01*
X141606190Y-116452380D01*
X141510952Y-116404761D01*
X141463333Y-116309523D01*
X141463333Y-116214285D01*
X141510952Y-116119047D01*
X141606190Y-116071428D01*
X141844285Y-116071428D01*
X141939523Y-116023809D01*
D11*
G04 #@! TO.C,LOGO1*
G36*
X133555814Y-111468931D02*
G01*
X133639635Y-111913555D01*
X133948920Y-112041053D01*
X134258206Y-112168551D01*
X134629246Y-111916246D01*
X134733157Y-111845996D01*
X134827087Y-111783272D01*
X134906652Y-111730938D01*
X134967470Y-111691857D01*
X135005157Y-111668893D01*
X135015421Y-111663942D01*
X135033910Y-111676676D01*
X135073420Y-111711882D01*
X135129522Y-111765062D01*
X135197787Y-111831718D01*
X135273786Y-111907354D01*
X135353092Y-111987472D01*
X135431275Y-112067574D01*
X135503907Y-112143164D01*
X135566559Y-112209745D01*
X135614803Y-112262818D01*
X135644210Y-112297887D01*
X135651241Y-112309623D01*
X135641123Y-112331260D01*
X135612759Y-112378662D01*
X135569129Y-112447193D01*
X135513218Y-112532215D01*
X135448006Y-112629093D01*
X135410219Y-112684350D01*
X135341343Y-112785248D01*
X135280140Y-112876299D01*
X135229578Y-112952970D01*
X135192628Y-113010728D01*
X135172258Y-113045043D01*
X135169197Y-113052254D01*
X135176136Y-113072748D01*
X135195051Y-113120513D01*
X135223087Y-113188832D01*
X135257391Y-113270989D01*
X135295109Y-113360270D01*
X135333387Y-113449958D01*
X135369370Y-113533338D01*
X135400206Y-113603694D01*
X135423039Y-113654310D01*
X135435017Y-113678471D01*
X135435724Y-113679422D01*
X135454531Y-113684036D01*
X135504618Y-113694328D01*
X135580793Y-113709287D01*
X135677865Y-113727901D01*
X135790643Y-113749159D01*
X135856442Y-113761418D01*
X135976950Y-113784362D01*
X136085797Y-113806195D01*
X136177476Y-113825722D01*
X136246481Y-113841748D01*
X136287304Y-113853079D01*
X136295511Y-113856674D01*
X136303548Y-113881006D01*
X136310033Y-113935959D01*
X136314970Y-114015108D01*
X136318364Y-114112026D01*
X136320218Y-114220287D01*
X136320538Y-114333465D01*
X136319327Y-114445135D01*
X136316590Y-114548868D01*
X136312331Y-114638241D01*
X136306555Y-114706826D01*
X136299267Y-114748197D01*
X136294895Y-114756810D01*
X136268764Y-114767133D01*
X136213393Y-114781892D01*
X136136107Y-114799352D01*
X136044230Y-114817780D01*
X136012158Y-114823741D01*
X135857524Y-114852066D01*
X135735375Y-114874876D01*
X135641673Y-114893080D01*
X135572384Y-114907583D01*
X135523471Y-114919292D01*
X135490897Y-114929115D01*
X135470628Y-114937956D01*
X135458626Y-114946724D01*
X135456947Y-114948457D01*
X135440184Y-114976371D01*
X135414614Y-115030695D01*
X135382788Y-115104777D01*
X135347260Y-115191965D01*
X135310583Y-115285608D01*
X135275311Y-115379052D01*
X135243996Y-115465647D01*
X135219193Y-115538740D01*
X135203454Y-115591678D01*
X135199332Y-115617811D01*
X135199676Y-115618726D01*
X135213641Y-115640086D01*
X135245322Y-115687084D01*
X135291391Y-115754827D01*
X135348518Y-115838423D01*
X135413373Y-115932982D01*
X135431843Y-115959854D01*
X135497699Y-116057275D01*
X135555650Y-116146163D01*
X135602538Y-116221412D01*
X135635207Y-116277920D01*
X135650500Y-116310581D01*
X135651241Y-116314593D01*
X135638392Y-116335684D01*
X135602888Y-116377464D01*
X135549293Y-116435445D01*
X135482171Y-116505135D01*
X135406087Y-116582045D01*
X135325604Y-116661683D01*
X135245287Y-116739561D01*
X135169699Y-116811186D01*
X135103405Y-116872070D01*
X135050969Y-116917721D01*
X135016955Y-116943650D01*
X135007545Y-116947883D01*
X134985643Y-116937912D01*
X134940800Y-116911020D01*
X134880321Y-116871736D01*
X134833789Y-116840117D01*
X134749475Y-116782098D01*
X134649626Y-116713784D01*
X134549473Y-116645579D01*
X134495627Y-116609075D01*
X134313371Y-116485800D01*
X134160381Y-116568520D01*
X134090682Y-116604759D01*
X134031414Y-116632926D01*
X133991311Y-116648991D01*
X133981103Y-116651226D01*
X133968829Y-116634722D01*
X133944613Y-116588082D01*
X133910263Y-116515609D01*
X133867588Y-116421606D01*
X133818394Y-116310374D01*
X133764490Y-116186215D01*
X133707684Y-116053432D01*
X133649782Y-115916327D01*
X133592593Y-115779202D01*
X133537924Y-115646358D01*
X133487584Y-115522098D01*
X133443380Y-115410725D01*
X133407119Y-115316539D01*
X133380609Y-115243844D01*
X133365658Y-115196941D01*
X133363254Y-115180833D01*
X133382311Y-115160286D01*
X133424036Y-115126933D01*
X133479706Y-115087702D01*
X133484378Y-115084599D01*
X133628264Y-114969423D01*
X133744283Y-114835053D01*
X133831430Y-114685784D01*
X133888699Y-114525913D01*
X133915086Y-114359737D01*
X133909585Y-114191552D01*
X133871190Y-114025655D01*
X133798895Y-113866342D01*
X133777626Y-113831487D01*
X133666996Y-113690737D01*
X133536302Y-113577714D01*
X133390064Y-113493003D01*
X133232808Y-113437194D01*
X133069057Y-113410874D01*
X132903333Y-113414630D01*
X132740162Y-113449050D01*
X132584065Y-113514723D01*
X132439567Y-113612235D01*
X132394869Y-113651813D01*
X132281112Y-113775703D01*
X132198218Y-113906124D01*
X132141356Y-114052315D01*
X132109687Y-114197088D01*
X132101869Y-114359860D01*
X132127938Y-114523440D01*
X132185245Y-114682298D01*
X132271144Y-114830906D01*
X132382986Y-114963735D01*
X132518123Y-115075256D01*
X132535883Y-115087011D01*
X132592150Y-115125508D01*
X132634923Y-115158863D01*
X132655372Y-115180160D01*
X132655669Y-115180833D01*
X132651279Y-115203871D01*
X132633876Y-115256157D01*
X132605268Y-115333390D01*
X132567265Y-115431268D01*
X132521674Y-115545491D01*
X132470303Y-115671758D01*
X132414962Y-115805767D01*
X132357458Y-115943218D01*
X132299601Y-116079808D01*
X132243198Y-116211237D01*
X132190058Y-116333205D01*
X132141990Y-116441409D01*
X132100801Y-116531549D01*
X132068301Y-116599323D01*
X132046297Y-116640430D01*
X132037436Y-116651226D01*
X132010360Y-116642819D01*
X131959697Y-116620272D01*
X131894183Y-116587613D01*
X131858159Y-116568520D01*
X131705168Y-116485800D01*
X131522912Y-116609075D01*
X131429875Y-116672228D01*
X131328015Y-116741727D01*
X131232562Y-116807165D01*
X131184750Y-116840117D01*
X131117505Y-116885273D01*
X131060564Y-116921057D01*
X131021354Y-116942938D01*
X131008619Y-116947563D01*
X130990083Y-116935085D01*
X130949059Y-116900252D01*
X130889525Y-116846678D01*
X130815458Y-116777983D01*
X130730835Y-116697781D01*
X130677315Y-116646286D01*
X130583681Y-116554286D01*
X130502759Y-116471999D01*
X130437823Y-116402945D01*
X130392142Y-116350644D01*
X130368989Y-116318616D01*
X130366768Y-116312116D01*
X130377076Y-116287394D01*
X130405561Y-116237405D01*
X130449063Y-116167212D01*
X130504423Y-116081875D01*
X130568480Y-115986456D01*
X130586697Y-115959854D01*
X130653073Y-115863167D01*
X130712622Y-115776117D01*
X130762016Y-115703595D01*
X130797925Y-115650493D01*
X130817019Y-115621703D01*
X130818864Y-115618726D01*
X130816105Y-115595782D01*
X130801462Y-115545336D01*
X130777487Y-115474041D01*
X130746734Y-115388547D01*
X130711756Y-115295507D01*
X130675107Y-115201574D01*
X130639339Y-115113399D01*
X130607006Y-115037634D01*
X130580662Y-114980931D01*
X130562858Y-114949943D01*
X130561593Y-114948457D01*
X130550706Y-114939601D01*
X130532318Y-114930843D01*
X130502394Y-114921277D01*
X130456897Y-114909996D01*
X130391791Y-114896093D01*
X130303039Y-114878663D01*
X130186607Y-114856798D01*
X130038458Y-114829591D01*
X130006382Y-114823741D01*
X129911314Y-114805374D01*
X129828435Y-114787405D01*
X129765070Y-114771569D01*
X129728542Y-114759600D01*
X129723644Y-114756810D01*
X129715573Y-114732072D01*
X129709013Y-114676790D01*
X129703967Y-114597389D01*
X129700441Y-114500296D01*
X129698439Y-114391938D01*
X129697964Y-114278740D01*
X129699023Y-114167128D01*
X129701618Y-114063529D01*
X129705754Y-113974368D01*
X129711437Y-113906072D01*
X129718669Y-113865066D01*
X129723029Y-113856674D01*
X129747302Y-113848208D01*
X129802574Y-113834435D01*
X129883338Y-113816550D01*
X129984088Y-113795748D01*
X130099317Y-113773223D01*
X130162098Y-113761418D01*
X130281213Y-113739151D01*
X130387435Y-113718979D01*
X130475573Y-113701915D01*
X130540434Y-113688969D01*
X130576826Y-113681155D01*
X130582816Y-113679422D01*
X130592939Y-113659890D01*
X130614338Y-113612843D01*
X130644161Y-113545003D01*
X130679555Y-113463091D01*
X130717668Y-113373828D01*
X130755647Y-113283935D01*
X130790640Y-113200135D01*
X130819794Y-113129147D01*
X130840257Y-113077694D01*
X130849177Y-113052497D01*
X130849343Y-113051396D01*
X130839231Y-113031519D01*
X130810883Y-112985777D01*
X130767277Y-112918717D01*
X130711394Y-112834884D01*
X130646213Y-112738826D01*
X130608321Y-112683650D01*
X130539275Y-112582481D01*
X130477950Y-112490630D01*
X130427337Y-112412744D01*
X130390429Y-112353469D01*
X130370218Y-112317451D01*
X130367299Y-112309377D01*
X130379847Y-112290584D01*
X130414537Y-112250457D01*
X130466937Y-112193493D01*
X130532616Y-112124185D01*
X130607144Y-112047031D01*
X130686087Y-111966525D01*
X130765017Y-111887163D01*
X130839500Y-111813440D01*
X130905106Y-111749852D01*
X130957404Y-111700894D01*
X130991961Y-111671061D01*
X131003522Y-111663942D01*
X131022346Y-111673953D01*
X131067369Y-111702078D01*
X131134213Y-111745454D01*
X131218501Y-111801218D01*
X131315856Y-111866506D01*
X131389293Y-111916246D01*
X131760333Y-112168551D01*
X132378905Y-111913555D01*
X132462725Y-111468931D01*
X132546546Y-111024307D01*
X133471994Y-111024307D01*
X133555814Y-111468931D01*
G37*
X133555814Y-111468931D02*
X133639635Y-111913555D01*
X133948920Y-112041053D01*
X134258206Y-112168551D01*
X134629246Y-111916246D01*
X134733157Y-111845996D01*
X134827087Y-111783272D01*
X134906652Y-111730938D01*
X134967470Y-111691857D01*
X135005157Y-111668893D01*
X135015421Y-111663942D01*
X135033910Y-111676676D01*
X135073420Y-111711882D01*
X135129522Y-111765062D01*
X135197787Y-111831718D01*
X135273786Y-111907354D01*
X135353092Y-111987472D01*
X135431275Y-112067574D01*
X135503907Y-112143164D01*
X135566559Y-112209745D01*
X135614803Y-112262818D01*
X135644210Y-112297887D01*
X135651241Y-112309623D01*
X135641123Y-112331260D01*
X135612759Y-112378662D01*
X135569129Y-112447193D01*
X135513218Y-112532215D01*
X135448006Y-112629093D01*
X135410219Y-112684350D01*
X135341343Y-112785248D01*
X135280140Y-112876299D01*
X135229578Y-112952970D01*
X135192628Y-113010728D01*
X135172258Y-113045043D01*
X135169197Y-113052254D01*
X135176136Y-113072748D01*
X135195051Y-113120513D01*
X135223087Y-113188832D01*
X135257391Y-113270989D01*
X135295109Y-113360270D01*
X135333387Y-113449958D01*
X135369370Y-113533338D01*
X135400206Y-113603694D01*
X135423039Y-113654310D01*
X135435017Y-113678471D01*
X135435724Y-113679422D01*
X135454531Y-113684036D01*
X135504618Y-113694328D01*
X135580793Y-113709287D01*
X135677865Y-113727901D01*
X135790643Y-113749159D01*
X135856442Y-113761418D01*
X135976950Y-113784362D01*
X136085797Y-113806195D01*
X136177476Y-113825722D01*
X136246481Y-113841748D01*
X136287304Y-113853079D01*
X136295511Y-113856674D01*
X136303548Y-113881006D01*
X136310033Y-113935959D01*
X136314970Y-114015108D01*
X136318364Y-114112026D01*
X136320218Y-114220287D01*
X136320538Y-114333465D01*
X136319327Y-114445135D01*
X136316590Y-114548868D01*
X136312331Y-114638241D01*
X136306555Y-114706826D01*
X136299267Y-114748197D01*
X136294895Y-114756810D01*
X136268764Y-114767133D01*
X136213393Y-114781892D01*
X136136107Y-114799352D01*
X136044230Y-114817780D01*
X136012158Y-114823741D01*
X135857524Y-114852066D01*
X135735375Y-114874876D01*
X135641673Y-114893080D01*
X135572384Y-114907583D01*
X135523471Y-114919292D01*
X135490897Y-114929115D01*
X135470628Y-114937956D01*
X135458626Y-114946724D01*
X135456947Y-114948457D01*
X135440184Y-114976371D01*
X135414614Y-115030695D01*
X135382788Y-115104777D01*
X135347260Y-115191965D01*
X135310583Y-115285608D01*
X135275311Y-115379052D01*
X135243996Y-115465647D01*
X135219193Y-115538740D01*
X135203454Y-115591678D01*
X135199332Y-115617811D01*
X135199676Y-115618726D01*
X135213641Y-115640086D01*
X135245322Y-115687084D01*
X135291391Y-115754827D01*
X135348518Y-115838423D01*
X135413373Y-115932982D01*
X135431843Y-115959854D01*
X135497699Y-116057275D01*
X135555650Y-116146163D01*
X135602538Y-116221412D01*
X135635207Y-116277920D01*
X135650500Y-116310581D01*
X135651241Y-116314593D01*
X135638392Y-116335684D01*
X135602888Y-116377464D01*
X135549293Y-116435445D01*
X135482171Y-116505135D01*
X135406087Y-116582045D01*
X135325604Y-116661683D01*
X135245287Y-116739561D01*
X135169699Y-116811186D01*
X135103405Y-116872070D01*
X135050969Y-116917721D01*
X135016955Y-116943650D01*
X135007545Y-116947883D01*
X134985643Y-116937912D01*
X134940800Y-116911020D01*
X134880321Y-116871736D01*
X134833789Y-116840117D01*
X134749475Y-116782098D01*
X134649626Y-116713784D01*
X134549473Y-116645579D01*
X134495627Y-116609075D01*
X134313371Y-116485800D01*
X134160381Y-116568520D01*
X134090682Y-116604759D01*
X134031414Y-116632926D01*
X133991311Y-116648991D01*
X133981103Y-116651226D01*
X133968829Y-116634722D01*
X133944613Y-116588082D01*
X133910263Y-116515609D01*
X133867588Y-116421606D01*
X133818394Y-116310374D01*
X133764490Y-116186215D01*
X133707684Y-116053432D01*
X133649782Y-115916327D01*
X133592593Y-115779202D01*
X133537924Y-115646358D01*
X133487584Y-115522098D01*
X133443380Y-115410725D01*
X133407119Y-115316539D01*
X133380609Y-115243844D01*
X133365658Y-115196941D01*
X133363254Y-115180833D01*
X133382311Y-115160286D01*
X133424036Y-115126933D01*
X133479706Y-115087702D01*
X133484378Y-115084599D01*
X133628264Y-114969423D01*
X133744283Y-114835053D01*
X133831430Y-114685784D01*
X133888699Y-114525913D01*
X133915086Y-114359737D01*
X133909585Y-114191552D01*
X133871190Y-114025655D01*
X133798895Y-113866342D01*
X133777626Y-113831487D01*
X133666996Y-113690737D01*
X133536302Y-113577714D01*
X133390064Y-113493003D01*
X133232808Y-113437194D01*
X133069057Y-113410874D01*
X132903333Y-113414630D01*
X132740162Y-113449050D01*
X132584065Y-113514723D01*
X132439567Y-113612235D01*
X132394869Y-113651813D01*
X132281112Y-113775703D01*
X132198218Y-113906124D01*
X132141356Y-114052315D01*
X132109687Y-114197088D01*
X132101869Y-114359860D01*
X132127938Y-114523440D01*
X132185245Y-114682298D01*
X132271144Y-114830906D01*
X132382986Y-114963735D01*
X132518123Y-115075256D01*
X132535883Y-115087011D01*
X132592150Y-115125508D01*
X132634923Y-115158863D01*
X132655372Y-115180160D01*
X132655669Y-115180833D01*
X132651279Y-115203871D01*
X132633876Y-115256157D01*
X132605268Y-115333390D01*
X132567265Y-115431268D01*
X132521674Y-115545491D01*
X132470303Y-115671758D01*
X132414962Y-115805767D01*
X132357458Y-115943218D01*
X132299601Y-116079808D01*
X132243198Y-116211237D01*
X132190058Y-116333205D01*
X132141990Y-116441409D01*
X132100801Y-116531549D01*
X132068301Y-116599323D01*
X132046297Y-116640430D01*
X132037436Y-116651226D01*
X132010360Y-116642819D01*
X131959697Y-116620272D01*
X131894183Y-116587613D01*
X131858159Y-116568520D01*
X131705168Y-116485800D01*
X131522912Y-116609075D01*
X131429875Y-116672228D01*
X131328015Y-116741727D01*
X131232562Y-116807165D01*
X131184750Y-116840117D01*
X131117505Y-116885273D01*
X131060564Y-116921057D01*
X131021354Y-116942938D01*
X131008619Y-116947563D01*
X130990083Y-116935085D01*
X130949059Y-116900252D01*
X130889525Y-116846678D01*
X130815458Y-116777983D01*
X130730835Y-116697781D01*
X130677315Y-116646286D01*
X130583681Y-116554286D01*
X130502759Y-116471999D01*
X130437823Y-116402945D01*
X130392142Y-116350644D01*
X130368989Y-116318616D01*
X130366768Y-116312116D01*
X130377076Y-116287394D01*
X130405561Y-116237405D01*
X130449063Y-116167212D01*
X130504423Y-116081875D01*
X130568480Y-115986456D01*
X130586697Y-115959854D01*
X130653073Y-115863167D01*
X130712622Y-115776117D01*
X130762016Y-115703595D01*
X130797925Y-115650493D01*
X130817019Y-115621703D01*
X130818864Y-115618726D01*
X130816105Y-115595782D01*
X130801462Y-115545336D01*
X130777487Y-115474041D01*
X130746734Y-115388547D01*
X130711756Y-115295507D01*
X130675107Y-115201574D01*
X130639339Y-115113399D01*
X130607006Y-115037634D01*
X130580662Y-114980931D01*
X130562858Y-114949943D01*
X130561593Y-114948457D01*
X130550706Y-114939601D01*
X130532318Y-114930843D01*
X130502394Y-114921277D01*
X130456897Y-114909996D01*
X130391791Y-114896093D01*
X130303039Y-114878663D01*
X130186607Y-114856798D01*
X130038458Y-114829591D01*
X130006382Y-114823741D01*
X129911314Y-114805374D01*
X129828435Y-114787405D01*
X129765070Y-114771569D01*
X129728542Y-114759600D01*
X129723644Y-114756810D01*
X129715573Y-114732072D01*
X129709013Y-114676790D01*
X129703967Y-114597389D01*
X129700441Y-114500296D01*
X129698439Y-114391938D01*
X129697964Y-114278740D01*
X129699023Y-114167128D01*
X129701618Y-114063529D01*
X129705754Y-113974368D01*
X129711437Y-113906072D01*
X129718669Y-113865066D01*
X129723029Y-113856674D01*
X129747302Y-113848208D01*
X129802574Y-113834435D01*
X129883338Y-113816550D01*
X129984088Y-113795748D01*
X130099317Y-113773223D01*
X130162098Y-113761418D01*
X130281213Y-113739151D01*
X130387435Y-113718979D01*
X130475573Y-113701915D01*
X130540434Y-113688969D01*
X130576826Y-113681155D01*
X130582816Y-113679422D01*
X130592939Y-113659890D01*
X130614338Y-113612843D01*
X130644161Y-113545003D01*
X130679555Y-113463091D01*
X130717668Y-113373828D01*
X130755647Y-113283935D01*
X130790640Y-113200135D01*
X130819794Y-113129147D01*
X130840257Y-113077694D01*
X130849177Y-113052497D01*
X130849343Y-113051396D01*
X130839231Y-113031519D01*
X130810883Y-112985777D01*
X130767277Y-112918717D01*
X130711394Y-112834884D01*
X130646213Y-112738826D01*
X130608321Y-112683650D01*
X130539275Y-112582481D01*
X130477950Y-112490630D01*
X130427337Y-112412744D01*
X130390429Y-112353469D01*
X130370218Y-112317451D01*
X130367299Y-112309377D01*
X130379847Y-112290584D01*
X130414537Y-112250457D01*
X130466937Y-112193493D01*
X130532616Y-112124185D01*
X130607144Y-112047031D01*
X130686087Y-111966525D01*
X130765017Y-111887163D01*
X130839500Y-111813440D01*
X130905106Y-111749852D01*
X130957404Y-111700894D01*
X130991961Y-111671061D01*
X131003522Y-111663942D01*
X131022346Y-111673953D01*
X131067369Y-111702078D01*
X131134213Y-111745454D01*
X131218501Y-111801218D01*
X131315856Y-111866506D01*
X131389293Y-111916246D01*
X131760333Y-112168551D01*
X132378905Y-111913555D01*
X132462725Y-111468931D01*
X132546546Y-111024307D01*
X133471994Y-111024307D01*
X133555814Y-111468931D01*
G04 #@! TD*
D12*
G04 #@! TO.P,SW3,3*
G04 #@! TO.N,GND*
X163750000Y-104500000D03*
G04 #@! TO.P,SW3,2*
G04 #@! TO.N,/USB_OTG_ID*
X163750000Y-107000000D03*
G04 #@! TO.P,SW3,1*
G04 #@! TO.N,+3V3*
X163750000Y-109500000D03*
G04 #@! TD*
G04 #@! TO.P,C5,2*
G04 #@! TO.N,GND*
G04 #@! TA.AperFunction,SMDPad,CuDef*
G36*
G01*
X103799999Y-96475000D02*
X103799999Y-95525000D01*
G75*
G02*
X104049999Y-95275000I250000J0D01*
G01*
X104549999Y-95275000D01*
G75*
G02*
X104799999Y-95525000I0J-250000D01*
G01*
X104799999Y-96475000D01*
G75*
G02*
X104549999Y-96725000I-250000J0D01*
G01*
X104049999Y-96725000D01*
G75*
G02*
X103799999Y-96475000I0J250000D01*
G01*
G37*
G04 #@! TD.AperFunction*
G04 #@! TO.P,C5,1*
G04 #@! TO.N,Net-(C5-Pad1)*
G04 #@! TA.AperFunction,SMDPad,CuDef*
G36*
G01*
X101899999Y-96475000D02*
X101899999Y-95525000D01*
G75*
G02*
X102149999Y-95275000I250000J0D01*
G01*
X102649999Y-95275000D01*
G75*
G02*
X102899999Y-95525000I0J-250000D01*
G01*
X102899999Y-96475000D01*
G75*
G02*
X102649999Y-96725000I-250000J0D01*
G01*
X102149999Y-96725000D01*
G75*
G02*
X101899999Y-96475000I0J250000D01*
G01*
G37*
G04 #@! TD.AperFunction*
G04 #@! TD*
D13*
G04 #@! TO.P,J1,A12*
G04 #@! TO.N,GND*
X92800000Y-100810000D03*
G04 #@! TO.P,J1,A9*
G04 #@! TO.N,/USB_VBUS*
X93600000Y-100810000D03*
G04 #@! TO.P,J1,B1*
G04 #@! TO.N,GND*
X92800000Y-100810000D03*
G04 #@! TO.P,J1,B4*
G04 #@! TO.N,/USB_VBUS*
X93600000Y-100810000D03*
G04 #@! TO.P,J1,B12*
G04 #@! TO.N,GND*
X99200000Y-100810000D03*
G04 #@! TO.P,J1,A1*
X99200000Y-100810000D03*
G04 #@! TO.P,J1,B9*
G04 #@! TO.N,/USB_VBUS*
X98400000Y-100810000D03*
G04 #@! TO.P,J1,A4*
X98400000Y-100810000D03*
D14*
G04 #@! TO.P,J1,B5*
G04 #@! TO.N,Net-(J1-PadB5)*
X94250000Y-100810000D03*
G04 #@! TO.P,J1,B6*
G04 #@! TO.N,/USB_D+*
X95250000Y-100810000D03*
G04 #@! TO.P,J1,A8*
G04 #@! TO.N,Net-(J1-PadA8)*
X94750000Y-100810000D03*
G04 #@! TO.P,J1,A5*
G04 #@! TO.N,Net-(J1-PadA5)*
X97250000Y-100810000D03*
G04 #@! TO.P,J1,B8*
G04 #@! TO.N,Net-(J1-PadB8)*
X97750000Y-100810000D03*
G04 #@! TO.P,J1,A7*
G04 #@! TO.N,/USB_D-*
X95750000Y-100810000D03*
G04 #@! TO.P,J1,A6*
G04 #@! TO.N,/USB_D+*
X96250000Y-100810000D03*
G04 #@! TO.P,J1,B7*
G04 #@! TO.N,/USB_D-*
X96750000Y-100810000D03*
D15*
G04 #@! TO.P,J1,S1*
G04 #@! TO.N,Net-(C5-Pad1)*
X91680000Y-96060000D03*
X100320000Y-96060000D03*
D16*
X91680000Y-100230000D03*
X100320000Y-100230000D03*
G04 #@! TD*
D17*
G04 #@! TO.P,U5,1*
G04 #@! TO.N,GND*
X127200000Y-132500000D03*
G04 #@! TO.P,U5,2*
X127200000Y-129420000D03*
G04 #@! TO.P,U5,3*
G04 #@! TO.N,/E0_TR3+*
X127600000Y-132500000D03*
G04 #@! TO.P,U5,4*
G04 #@! TO.N,/E0_TR1+*
X127600000Y-129420000D03*
G04 #@! TO.P,U5,5*
G04 #@! TO.N,/E0_TR3-*
X128000000Y-132500000D03*
G04 #@! TO.P,U5,6*
G04 #@! TO.N,/E0_TR1-*
X128000000Y-129420000D03*
G04 #@! TO.P,U5,7*
G04 #@! TO.N,GND*
X128400000Y-132500000D03*
G04 #@! TO.P,U5,8*
X128400000Y-129420000D03*
G04 #@! TO.P,U5,9*
G04 #@! TO.N,/E0_TR2-*
X128800000Y-132500000D03*
G04 #@! TO.P,U5,10*
G04 #@! TO.N,/E0_TR0-*
X128800000Y-129420000D03*
G04 #@! TO.P,U5,11*
G04 #@! TO.N,/E0_TR2+*
X129200000Y-132500000D03*
G04 #@! TO.P,U5,12*
G04 #@! TO.N,/E0_TR0+*
X129200000Y-129420000D03*
G04 #@! TO.P,U5,13*
G04 #@! TO.N,GND*
X129600000Y-132500000D03*
G04 #@! TO.P,U5,14*
X129600000Y-129420000D03*
G04 #@! TO.P,U5,15*
G04 #@! TO.N,/E0_LEDL*
X130000000Y-132500000D03*
G04 #@! TO.P,U5,16*
G04 #@! TO.N,Net-(U5-Pad16)*
X130000000Y-129420000D03*
G04 #@! TO.P,U5,17*
G04 #@! TO.N,/~E0_LEDL*
X130400000Y-132500000D03*
G04 #@! TO.P,U5,18*
G04 #@! TO.N,Net-(U5-Pad18)*
X130400000Y-129420000D03*
G04 #@! TO.P,U5,19*
G04 #@! TO.N,/~E0_LEDR*
X130800000Y-132500000D03*
G04 #@! TO.P,U5,20*
G04 #@! TO.N,Net-(JP4-Pad2)*
X130800000Y-129420000D03*
G04 #@! TO.P,U5,21*
G04 #@! TO.N,/PI_LED_nACT*
X131200000Y-132500000D03*
G04 #@! TO.P,U5,22*
G04 #@! TO.N,GND*
X131200000Y-129420000D03*
G04 #@! TO.P,U5,23*
X131600000Y-132500000D03*
G04 #@! TO.P,U5,24*
G04 #@! TO.N,Net-(U5-Pad24)*
X131600000Y-129420000D03*
G04 #@! TO.P,U5,25*
G04 #@! TO.N,Net-(U5-Pad25)*
X132000000Y-132500000D03*
G04 #@! TO.P,U5,26*
G04 #@! TO.N,Net-(U5-Pad26)*
X132000000Y-129420000D03*
G04 #@! TO.P,U5,27*
G04 #@! TO.N,Net-(U5-Pad27)*
X132400000Y-132500000D03*
G04 #@! TO.P,U5,28*
G04 #@! TO.N,Net-(U5-Pad28)*
X132400000Y-129420000D03*
G04 #@! TO.P,U5,29*
G04 #@! TO.N,Net-(U5-Pad29)*
X132800000Y-132500000D03*
G04 #@! TO.P,U5,30*
G04 #@! TO.N,Net-(U5-Pad30)*
X132800000Y-129420000D03*
G04 #@! TO.P,U5,31*
G04 #@! TO.N,Net-(U5-Pad31)*
X133200000Y-132500000D03*
G04 #@! TO.P,U5,32*
G04 #@! TO.N,GND*
X133200000Y-129420000D03*
G04 #@! TO.P,U5,33*
X133600000Y-132500000D03*
G04 #@! TO.P,U5,34*
G04 #@! TO.N,Net-(U5-Pad34)*
X133600000Y-129420000D03*
G04 #@! TO.P,U5,35*
G04 #@! TO.N,Net-(U5-Pad35)*
X134000000Y-132500000D03*
G04 #@! TO.P,U5,36*
G04 #@! TO.N,Net-(U5-Pad36)*
X134000000Y-129420000D03*
G04 #@! TO.P,U5,37*
G04 #@! TO.N,Net-(U5-Pad37)*
X134400000Y-132500000D03*
G04 #@! TO.P,U5,38*
G04 #@! TO.N,Net-(U5-Pad38)*
X134400000Y-129420000D03*
G04 #@! TO.P,U5,39*
G04 #@! TO.N,Net-(U5-Pad39)*
X134800000Y-132500000D03*
G04 #@! TO.P,U5,40*
G04 #@! TO.N,Net-(U5-Pad40)*
X134800000Y-129420000D03*
G04 #@! TO.P,U5,41*
G04 #@! TO.N,Net-(U5-Pad41)*
X135200000Y-132500000D03*
G04 #@! TO.P,U5,42*
G04 #@! TO.N,GND*
X135200000Y-129420000D03*
G04 #@! TO.P,U5,43*
X135600000Y-132500000D03*
G04 #@! TO.P,U5,44*
G04 #@! TO.N,Net-(U5-Pad44)*
X135600000Y-129420000D03*
G04 #@! TO.P,U5,45*
G04 #@! TO.N,Net-(U5-Pad45)*
X136000000Y-132500000D03*
G04 #@! TO.P,U5,46*
G04 #@! TO.N,Net-(U5-Pad46)*
X136000000Y-129420000D03*
G04 #@! TO.P,U5,47*
G04 #@! TO.N,Net-(U5-Pad47)*
X136400000Y-132500000D03*
G04 #@! TO.P,U5,48*
G04 #@! TO.N,Net-(U5-Pad48)*
X136400000Y-129420000D03*
G04 #@! TO.P,U5,49*
G04 #@! TO.N,Net-(U5-Pad49)*
X136800000Y-132500000D03*
G04 #@! TO.P,U5,50*
G04 #@! TO.N,Net-(U5-Pad50)*
X136800000Y-129420000D03*
G04 #@! TO.P,U5,51*
G04 #@! TO.N,Net-(U5-Pad51)*
X137200000Y-132500000D03*
G04 #@! TO.P,U5,52*
G04 #@! TO.N,GND*
X137200000Y-129420000D03*
G04 #@! TO.P,U5,53*
X137600000Y-132500000D03*
G04 #@! TO.P,U5,54*
G04 #@! TO.N,Net-(U5-Pad54)*
X137600000Y-129420000D03*
G04 #@! TO.P,U5,55*
G04 #@! TO.N,Net-(U5-Pad55)*
X138000000Y-132500000D03*
G04 #@! TO.P,U5,56*
G04 #@! TO.N,Net-(U5-Pad56)*
X138000000Y-129420000D03*
G04 #@! TO.P,U5,57*
G04 #@! TO.N,/SD_CLK*
X138400000Y-132500000D03*
G04 #@! TO.P,U5,58*
G04 #@! TO.N,Net-(U5-Pad58)*
X138400000Y-129420000D03*
G04 #@! TO.P,U5,59*
G04 #@! TO.N,GND*
X138800000Y-132500000D03*
G04 #@! TO.P,U5,60*
X138800000Y-129420000D03*
G04 #@! TO.P,U5,61*
G04 #@! TO.N,/SD_D3*
X139200000Y-132500000D03*
G04 #@! TO.P,U5,62*
G04 #@! TO.N,/SD_CMD*
X139200000Y-129420000D03*
G04 #@! TO.P,U5,63*
G04 #@! TO.N,/SD_D0*
X139600000Y-132500000D03*
G04 #@! TO.P,U5,64*
G04 #@! TO.N,Net-(U5-Pad64)*
X139600000Y-129420000D03*
G04 #@! TO.P,U5,65*
G04 #@! TO.N,GND*
X140000000Y-132500000D03*
G04 #@! TO.P,U5,66*
X140000000Y-129420000D03*
G04 #@! TO.P,U5,67*
G04 #@! TO.N,/SD_D1*
X140400000Y-132500000D03*
G04 #@! TO.P,U5,68*
G04 #@! TO.N,Net-(U5-Pad68)*
X140400000Y-129420000D03*
G04 #@! TO.P,U5,69*
G04 #@! TO.N,/SD_D2*
X140800000Y-132500000D03*
G04 #@! TO.P,U5,70*
G04 #@! TO.N,Net-(U5-Pad70)*
X140800000Y-129420000D03*
G04 #@! TO.P,U5,71*
G04 #@! TO.N,GND*
X141200000Y-132500000D03*
G04 #@! TO.P,U5,72*
G04 #@! TO.N,Net-(U5-Pad72)*
X141200000Y-129420000D03*
G04 #@! TO.P,U5,73*
G04 #@! TO.N,Net-(JP1-Pad2)*
X141600000Y-132500000D03*
G04 #@! TO.P,U5,74*
G04 #@! TO.N,GND*
X141600000Y-129420000D03*
G04 #@! TO.P,U5,75*
G04 #@! TO.N,/SD_PWR_ON*
X142000000Y-132500000D03*
G04 #@! TO.P,U5,76*
G04 #@! TO.N,Net-(U5-Pad76)*
X142000000Y-129420000D03*
G04 #@! TO.P,U5,77*
G04 #@! TO.N,+5V*
X142400000Y-132500000D03*
G04 #@! TO.P,U5,78*
G04 #@! TO.N,+3V3*
X142400000Y-129420000D03*
G04 #@! TO.P,U5,79*
G04 #@! TO.N,+5V*
X142800000Y-132500000D03*
G04 #@! TO.P,U5,80*
G04 #@! TO.N,Net-(U5-Pad80)*
X142800000Y-129420000D03*
G04 #@! TO.P,U5,81*
G04 #@! TO.N,+5V*
X143200000Y-132500000D03*
G04 #@! TO.P,U5,82*
G04 #@! TO.N,Net-(U5-Pad82)*
X143200000Y-129420000D03*
G04 #@! TO.P,U5,83*
G04 #@! TO.N,+5V*
X143600000Y-132500000D03*
G04 #@! TO.P,U5,84*
G04 #@! TO.N,+3V3*
X143600000Y-129420000D03*
G04 #@! TO.P,U5,85*
G04 #@! TO.N,+5V*
X144000000Y-132500000D03*
G04 #@! TO.P,U5,86*
G04 #@! TO.N,+3V3*
X144000000Y-129420000D03*
G04 #@! TO.P,U5,87*
G04 #@! TO.N,+5V*
X144400000Y-132500000D03*
G04 #@! TO.P,U5,88*
G04 #@! TO.N,Net-(U5-Pad88)*
X144400000Y-129420000D03*
G04 #@! TO.P,U5,89*
G04 #@! TO.N,Net-(JP2-Pad2)*
X144800000Y-132500000D03*
G04 #@! TO.P,U5,90*
G04 #@! TO.N,Net-(U5-Pad90)*
X144800000Y-129420000D03*
G04 #@! TO.P,U5,91*
G04 #@! TO.N,Net-(JP3-Pad2)*
X145200000Y-132500000D03*
G04 #@! TO.P,U5,92*
G04 #@! TO.N,Net-(U5-Pad92)*
X145200000Y-129420000D03*
G04 #@! TO.P,U5,93*
G04 #@! TO.N,/PI_nRPI_BOOT*
X145600000Y-132500000D03*
G04 #@! TO.P,U5,94*
G04 #@! TO.N,Net-(U5-Pad94)*
X145600000Y-129420000D03*
G04 #@! TO.P,U5,95*
G04 #@! TO.N,Net-(U5-Pad95)*
X146000000Y-132500000D03*
G04 #@! TO.P,U5,96*
G04 #@! TO.N,Net-(U5-Pad96)*
X146000000Y-129420000D03*
G04 #@! TO.P,U5,97*
G04 #@! TO.N,Net-(U5-Pad97)*
X146400000Y-132500000D03*
G04 #@! TO.P,U5,98*
G04 #@! TO.N,GND*
X146400000Y-129420000D03*
G04 #@! TO.P,U5,99*
G04 #@! TO.N,/PI_GLOBAL_EN*
X146800000Y-132500000D03*
G04 #@! TO.P,U5,100*
G04 #@! TO.N,Net-(U5-Pad100)*
X146800000Y-129420000D03*
G04 #@! TO.P,U5,101*
G04 #@! TO.N,/USB_OTG_ID*
X127200000Y-98580000D03*
G04 #@! TO.P,U5,102*
G04 #@! TO.N,N/C*
X127200000Y-95500000D03*
G04 #@! TO.P,U5,103*
G04 #@! TO.N,/USB_D-*
X127600000Y-98580000D03*
G04 #@! TO.P,U5,104*
G04 #@! TO.N,Net-(U5-Pad104)*
X127600000Y-95500000D03*
G04 #@! TO.P,U5,105*
G04 #@! TO.N,/USB_D+*
X128000000Y-98580000D03*
G04 #@! TO.P,U5,106*
G04 #@! TO.N,Net-(U5-Pad106)*
X128000000Y-95500000D03*
G04 #@! TO.P,U5,107*
G04 #@! TO.N,GND*
X128400000Y-98580000D03*
G04 #@! TO.P,U5,108*
X128400000Y-95500000D03*
G04 #@! TO.P,U5,109*
G04 #@! TO.N,N/C*
X128800000Y-98580000D03*
G04 #@! TO.P,U5,110*
X128800000Y-95500000D03*
G04 #@! TO.P,U5,111*
G04 #@! TO.N,Net-(U5-Pad111)*
X129200000Y-98580000D03*
G04 #@! TO.P,U5,112*
G04 #@! TO.N,N/C*
X129200000Y-95500000D03*
G04 #@! TO.P,U5,113*
G04 #@! TO.N,GND*
X129600000Y-98580000D03*
G04 #@! TO.P,U5,114*
X129600000Y-95500000D03*
G04 #@! TO.P,U5,115*
G04 #@! TO.N,N/C*
X130000000Y-98580000D03*
G04 #@! TO.P,U5,116*
X130000000Y-95500000D03*
G04 #@! TO.P,U5,117*
X130400000Y-98580000D03*
G04 #@! TO.P,U5,118*
X130400000Y-95500000D03*
G04 #@! TO.P,U5,119*
G04 #@! TO.N,GND*
X130800000Y-98580000D03*
G04 #@! TO.P,U5,120*
X130800000Y-95500000D03*
G04 #@! TO.P,U5,121*
G04 #@! TO.N,N/C*
X131200000Y-98580000D03*
G04 #@! TO.P,U5,122*
X131200000Y-95500000D03*
G04 #@! TO.P,U5,123*
X131600000Y-98580000D03*
G04 #@! TO.P,U5,124*
X131600000Y-95500000D03*
G04 #@! TO.P,U5,125*
G04 #@! TO.N,GND*
X132000000Y-98580000D03*
G04 #@! TO.P,U5,126*
X132000000Y-95500000D03*
G04 #@! TO.P,U5,127*
G04 #@! TO.N,N/C*
X132400000Y-98580000D03*
G04 #@! TO.P,U5,128*
X132400000Y-95500000D03*
G04 #@! TO.P,U5,129*
X132800000Y-98580000D03*
G04 #@! TO.P,U5,130*
X132800000Y-95500000D03*
G04 #@! TO.P,U5,131*
G04 #@! TO.N,GND*
X133200000Y-98580000D03*
G04 #@! TO.P,U5,132*
X133200000Y-95500000D03*
G04 #@! TO.P,U5,133*
G04 #@! TO.N,N/C*
X133600000Y-98580000D03*
G04 #@! TO.P,U5,134*
X133600000Y-95500000D03*
G04 #@! TO.P,U5,135*
X134000000Y-98580000D03*
G04 #@! TO.P,U5,136*
X134000000Y-95500000D03*
G04 #@! TO.P,U5,137*
G04 #@! TO.N,GND*
X134400000Y-98580000D03*
G04 #@! TO.P,U5,138*
X134400000Y-95500000D03*
G04 #@! TO.P,U5,139*
G04 #@! TO.N,N/C*
X134800000Y-98580000D03*
G04 #@! TO.P,U5,140*
X134800000Y-95500000D03*
G04 #@! TO.P,U5,141*
X135200000Y-98580000D03*
G04 #@! TO.P,U5,142*
X135200000Y-95500000D03*
G04 #@! TO.P,U5,143*
X135600000Y-98580000D03*
G04 #@! TO.P,U5,144*
G04 #@! TO.N,GND*
X135600000Y-95500000D03*
G04 #@! TO.P,U5,145*
G04 #@! TO.N,N/C*
X136000000Y-98580000D03*
G04 #@! TO.P,U5,146*
X136000000Y-95500000D03*
G04 #@! TO.P,U5,147*
X136400000Y-98580000D03*
G04 #@! TO.P,U5,148*
X136400000Y-95500000D03*
G04 #@! TO.P,U5,149*
X136800000Y-98580000D03*
G04 #@! TO.P,U5,150*
G04 #@! TO.N,GND*
X136800000Y-95500000D03*
G04 #@! TO.P,U5,151*
G04 #@! TO.N,N/C*
X137200000Y-98580000D03*
G04 #@! TO.P,U5,152*
X137200000Y-95500000D03*
G04 #@! TO.P,U5,153*
X137600000Y-98580000D03*
G04 #@! TO.P,U5,154*
X137600000Y-95500000D03*
G04 #@! TO.P,U5,155*
G04 #@! TO.N,GND*
X138000000Y-98580000D03*
G04 #@! TO.P,U5,156*
X138000000Y-95500000D03*
G04 #@! TO.P,U5,157*
G04 #@! TO.N,N/C*
X138400000Y-98580000D03*
G04 #@! TO.P,U5,158*
X138400000Y-95500000D03*
G04 #@! TO.P,U5,159*
X138800000Y-98580000D03*
G04 #@! TO.P,U5,160*
X138800000Y-95500000D03*
G04 #@! TO.P,U5,161*
G04 #@! TO.N,GND*
X139200000Y-98580000D03*
G04 #@! TO.P,U5,162*
X139200000Y-95500000D03*
G04 #@! TO.P,U5,163*
G04 #@! TO.N,N/C*
X139600000Y-98580000D03*
G04 #@! TO.P,U5,164*
X139600000Y-95500000D03*
G04 #@! TO.P,U5,165*
X140000000Y-98580000D03*
G04 #@! TO.P,U5,166*
X140000000Y-95500000D03*
G04 #@! TO.P,U5,167*
G04 #@! TO.N,GND*
X140400000Y-98580000D03*
G04 #@! TO.P,U5,168*
X140400000Y-95500000D03*
G04 #@! TO.P,U5,169*
G04 #@! TO.N,N/C*
X140800000Y-98580000D03*
G04 #@! TO.P,U5,170*
X140800000Y-95500000D03*
G04 #@! TO.P,U5,171*
X141200000Y-98580000D03*
G04 #@! TO.P,U5,172*
X141200000Y-95500000D03*
G04 #@! TO.P,U5,173*
G04 #@! TO.N,GND*
X141600000Y-98580000D03*
G04 #@! TO.P,U5,174*
X141600000Y-95500000D03*
G04 #@! TO.P,U5,175*
G04 #@! TO.N,N/C*
X142000000Y-98580000D03*
G04 #@! TO.P,U5,176*
X142000000Y-95500000D03*
G04 #@! TO.P,U5,177*
X142400000Y-98580000D03*
G04 #@! TO.P,U5,178*
X142400000Y-95500000D03*
G04 #@! TO.P,U5,179*
G04 #@! TO.N,GND*
X142800000Y-98580000D03*
G04 #@! TO.P,U5,180*
X142800000Y-95500000D03*
G04 #@! TO.P,U5,181*
G04 #@! TO.N,N/C*
X143200000Y-98580000D03*
G04 #@! TO.P,U5,182*
X143200000Y-95500000D03*
G04 #@! TO.P,U5,183*
X143600000Y-98580000D03*
G04 #@! TO.P,U5,184*
X143600000Y-95500000D03*
G04 #@! TO.P,U5,185*
G04 #@! TO.N,GND*
X144000000Y-98580000D03*
G04 #@! TO.P,U5,186*
X144000000Y-95500000D03*
G04 #@! TO.P,U5,187*
G04 #@! TO.N,N/C*
X144400000Y-98580000D03*
G04 #@! TO.P,U5,188*
X144400000Y-95500000D03*
G04 #@! TO.P,U5,189*
X144800000Y-98580000D03*
G04 #@! TO.P,U5,190*
X144800000Y-95500000D03*
G04 #@! TO.P,U5,191*
G04 #@! TO.N,GND*
X145200000Y-98580000D03*
G04 #@! TO.P,U5,192*
X145200000Y-95500000D03*
G04 #@! TO.P,U5,193*
G04 #@! TO.N,N/C*
X145600000Y-98580000D03*
G04 #@! TO.P,U5,194*
X145600000Y-95500000D03*
G04 #@! TO.P,U5,195*
X146000000Y-98580000D03*
G04 #@! TO.P,U5,196*
X146000000Y-95500000D03*
G04 #@! TO.P,U5,197*
G04 #@! TO.N,GND*
X146400000Y-98580000D03*
G04 #@! TO.P,U5,198*
X146400000Y-95500000D03*
G04 #@! TO.P,U5,199*
G04 #@! TO.N,N/C*
X146800000Y-98580000D03*
G04 #@! TO.P,U5,200*
X146800000Y-95500000D03*
G04 #@! TD*
G04 #@! TO.P,D4,2*
G04 #@! TO.N,/SD_PWR*
G04 #@! TA.AperFunction,SMDPad,CuDef*
G36*
G01*
X89650000Y-105043750D02*
X89650000Y-105556250D01*
G75*
G02*
X89431250Y-105775000I-218750J0D01*
G01*
X88993750Y-105775000D01*
G75*
G02*
X88775000Y-105556250I0J218750D01*
G01*
X88775000Y-105043750D01*
G75*
G02*
X88993750Y-104825000I218750J0D01*
G01*
X89431250Y-104825000D01*
G75*
G02*
X89650000Y-105043750I0J-218750D01*
G01*
G37*
G04 #@! TD.AperFunction*
G04 #@! TO.P,D4,1*
G04 #@! TO.N,Net-(D4-Pad1)*
G04 #@! TA.AperFunction,SMDPad,CuDef*
G36*
G01*
X91225000Y-105043750D02*
X91225000Y-105556250D01*
G75*
G02*
X91006250Y-105775000I-218750J0D01*
G01*
X90568750Y-105775000D01*
G75*
G02*
X90350000Y-105556250I0J218750D01*
G01*
X90350000Y-105043750D01*
G75*
G02*
X90568750Y-104825000I218750J0D01*
G01*
X91006250Y-104825000D01*
G75*
G02*
X91225000Y-105043750I0J-218750D01*
G01*
G37*
G04 #@! TD.AperFunction*
G04 #@! TD*
G04 #@! TO.P,D3,2*
G04 #@! TO.N,+3V3*
G04 #@! TA.AperFunction,SMDPad,CuDef*
G36*
G01*
X89650000Y-107043750D02*
X89650000Y-107556250D01*
G75*
G02*
X89431250Y-107775000I-218750J0D01*
G01*
X88993750Y-107775000D01*
G75*
G02*
X88775000Y-107556250I0J218750D01*
G01*
X88775000Y-107043750D01*
G75*
G02*
X88993750Y-106825000I218750J0D01*
G01*
X89431250Y-106825000D01*
G75*
G02*
X89650000Y-107043750I0J-218750D01*
G01*
G37*
G04 #@! TD.AperFunction*
G04 #@! TO.P,D3,1*
G04 #@! TO.N,Net-(D3-Pad1)*
G04 #@! TA.AperFunction,SMDPad,CuDef*
G36*
G01*
X91225000Y-107043750D02*
X91225000Y-107556250D01*
G75*
G02*
X91006250Y-107775000I-218750J0D01*
G01*
X90568750Y-107775000D01*
G75*
G02*
X90350000Y-107556250I0J218750D01*
G01*
X90350000Y-107043750D01*
G75*
G02*
X90568750Y-106825000I218750J0D01*
G01*
X91006250Y-106825000D01*
G75*
G02*
X91225000Y-107043750I0J-218750D01*
G01*
G37*
G04 #@! TD.AperFunction*
G04 #@! TD*
D18*
G04 #@! TO.P,Q1,3*
G04 #@! TO.N,/SD_PWR*
X88900000Y-100600000D03*
G04 #@! TO.P,Q1,2*
G04 #@! TO.N,+3V3*
X89850000Y-103000000D03*
G04 #@! TO.P,Q1,1*
G04 #@! TO.N,/SD_PWR_ON*
X87950000Y-103000000D03*
G04 #@! TD*
D19*
G04 #@! TO.P,SW2,2*
G04 #@! TO.N,GND*
X84700000Y-111000000D03*
G04 #@! TO.P,SW2,1*
G04 #@! TO.N,Net-(R11-Pad1)*
X81300000Y-111000000D03*
G04 #@! TD*
G04 #@! TO.P,SW1,2*
G04 #@! TO.N,GND*
X84700000Y-105000000D03*
G04 #@! TO.P,SW1,1*
G04 #@! TO.N,Net-(R9-Pad1)*
X81300000Y-105000000D03*
G04 #@! TD*
G04 #@! TO.P,R12,2*
G04 #@! TO.N,GND*
G04 #@! TA.AperFunction,SMDPad,CuDef*
G36*
G01*
X93425000Y-105575000D02*
X93425000Y-105025000D01*
G75*
G02*
X93625000Y-104825000I200000J0D01*
G01*
X94025000Y-104825000D01*
G75*
G02*
X94225000Y-105025000I0J-200000D01*
G01*
X94225000Y-105575000D01*
G75*
G02*
X94025000Y-105775000I-200000J0D01*
G01*
X93625000Y-105775000D01*
G75*
G02*
X93425000Y-105575000I0J200000D01*
G01*
G37*
G04 #@! TD.AperFunction*
G04 #@! TO.P,R12,1*
G04 #@! TO.N,Net-(D4-Pad1)*
G04 #@! TA.AperFunction,SMDPad,CuDef*
G36*
G01*
X91775000Y-105575000D02*
X91775000Y-105025000D01*
G75*
G02*
X91975000Y-104825000I200000J0D01*
G01*
X92375000Y-104825000D01*
G75*
G02*
X92575000Y-105025000I0J-200000D01*
G01*
X92575000Y-105575000D01*
G75*
G02*
X92375000Y-105775000I-200000J0D01*
G01*
X91975000Y-105775000D01*
G75*
G02*
X91775000Y-105575000I0J200000D01*
G01*
G37*
G04 #@! TD.AperFunction*
G04 #@! TD*
G04 #@! TO.P,R11,2*
G04 #@! TO.N,/PI_GLOBAL_EN*
G04 #@! TA.AperFunction,SMDPad,CuDef*
G36*
G01*
X83425000Y-114875000D02*
X83425000Y-114325000D01*
G75*
G02*
X83625000Y-114125000I200000J0D01*
G01*
X84025000Y-114125000D01*
G75*
G02*
X84225000Y-114325000I0J-200000D01*
G01*
X84225000Y-114875000D01*
G75*
G02*
X84025000Y-115075000I-200000J0D01*
G01*
X83625000Y-115075000D01*
G75*
G02*
X83425000Y-114875000I0J200000D01*
G01*
G37*
G04 #@! TD.AperFunction*
G04 #@! TO.P,R11,1*
G04 #@! TO.N,Net-(R11-Pad1)*
G04 #@! TA.AperFunction,SMDPad,CuDef*
G36*
G01*
X81775000Y-114875000D02*
X81775000Y-114325000D01*
G75*
G02*
X81975000Y-114125000I200000J0D01*
G01*
X82375000Y-114125000D01*
G75*
G02*
X82575000Y-114325000I0J-200000D01*
G01*
X82575000Y-114875000D01*
G75*
G02*
X82375000Y-115075000I-200000J0D01*
G01*
X81975000Y-115075000D01*
G75*
G02*
X81775000Y-114875000I0J200000D01*
G01*
G37*
G04 #@! TD.AperFunction*
G04 #@! TD*
G04 #@! TO.P,R10,2*
G04 #@! TO.N,Net-(D3-Pad1)*
G04 #@! TA.AperFunction,SMDPad,CuDef*
G36*
G01*
X92575000Y-107025000D02*
X92575000Y-107575000D01*
G75*
G02*
X92375000Y-107775000I-200000J0D01*
G01*
X91975000Y-107775000D01*
G75*
G02*
X91775000Y-107575000I0J200000D01*
G01*
X91775000Y-107025000D01*
G75*
G02*
X91975000Y-106825000I200000J0D01*
G01*
X92375000Y-106825000D01*
G75*
G02*
X92575000Y-107025000I0J-200000D01*
G01*
G37*
G04 #@! TD.AperFunction*
G04 #@! TO.P,R10,1*
G04 #@! TO.N,/PI_LED_nACT*
G04 #@! TA.AperFunction,SMDPad,CuDef*
G36*
G01*
X94225000Y-107025000D02*
X94225000Y-107575000D01*
G75*
G02*
X94025000Y-107775000I-200000J0D01*
G01*
X93625000Y-107775000D01*
G75*
G02*
X93425000Y-107575000I0J200000D01*
G01*
X93425000Y-107025000D01*
G75*
G02*
X93625000Y-106825000I200000J0D01*
G01*
X94025000Y-106825000D01*
G75*
G02*
X94225000Y-107025000I0J-200000D01*
G01*
G37*
G04 #@! TD.AperFunction*
G04 #@! TD*
G04 #@! TO.P,R9,2*
G04 #@! TO.N,/PI_nRPI_BOOT*
G04 #@! TA.AperFunction,SMDPad,CuDef*
G36*
G01*
X83425000Y-108775000D02*
X83425000Y-108225000D01*
G75*
G02*
X83625000Y-108025000I200000J0D01*
G01*
X84025000Y-108025000D01*
G75*
G02*
X84225000Y-108225000I0J-200000D01*
G01*
X84225000Y-108775000D01*
G75*
G02*
X84025000Y-108975000I-200000J0D01*
G01*
X83625000Y-108975000D01*
G75*
G02*
X83425000Y-108775000I0J200000D01*
G01*
G37*
G04 #@! TD.AperFunction*
G04 #@! TO.P,R9,1*
G04 #@! TO.N,Net-(R9-Pad1)*
G04 #@! TA.AperFunction,SMDPad,CuDef*
G36*
G01*
X81775000Y-108775000D02*
X81775000Y-108225000D01*
G75*
G02*
X81975000Y-108025000I200000J0D01*
G01*
X82375000Y-108025000D01*
G75*
G02*
X82575000Y-108225000I0J-200000D01*
G01*
X82575000Y-108775000D01*
G75*
G02*
X82375000Y-108975000I-200000J0D01*
G01*
X81975000Y-108975000D01*
G75*
G02*
X81775000Y-108775000I0J200000D01*
G01*
G37*
G04 #@! TD.AperFunction*
G04 #@! TD*
G04 #@! TO.P,R8,2*
G04 #@! TO.N,+3V3*
G04 #@! TA.AperFunction,SMDPad,CuDef*
G36*
G01*
X86025000Y-103225000D02*
X86575000Y-103225000D01*
G75*
G02*
X86775000Y-103425000I0J-200000D01*
G01*
X86775000Y-103825000D01*
G75*
G02*
X86575000Y-104025000I-200000J0D01*
G01*
X86025000Y-104025000D01*
G75*
G02*
X85825000Y-103825000I0J200000D01*
G01*
X85825000Y-103425000D01*
G75*
G02*
X86025000Y-103225000I200000J0D01*
G01*
G37*
G04 #@! TD.AperFunction*
G04 #@! TO.P,R8,1*
G04 #@! TO.N,/SD_PWR_ON*
G04 #@! TA.AperFunction,SMDPad,CuDef*
G36*
G01*
X86025000Y-101575000D02*
X86575000Y-101575000D01*
G75*
G02*
X86775000Y-101775000I0J-200000D01*
G01*
X86775000Y-102175000D01*
G75*
G02*
X86575000Y-102375000I-200000J0D01*
G01*
X86025000Y-102375000D01*
G75*
G02*
X85825000Y-102175000I0J200000D01*
G01*
X85825000Y-101775000D01*
G75*
G02*
X86025000Y-101575000I200000J0D01*
G01*
G37*
G04 #@! TD.AperFunction*
G04 #@! TD*
G04 #@! TO.P,R7,2*
G04 #@! TO.N,GND*
G04 #@! TA.AperFunction,SMDPad,CuDef*
G36*
G01*
X93425000Y-109575000D02*
X93425000Y-109025000D01*
G75*
G02*
X93625000Y-108825000I200000J0D01*
G01*
X94025000Y-108825000D01*
G75*
G02*
X94225000Y-109025000I0J-200000D01*
G01*
X94225000Y-109575000D01*
G75*
G02*
X94025000Y-109775000I-200000J0D01*
G01*
X93625000Y-109775000D01*
G75*
G02*
X93425000Y-109575000I0J200000D01*
G01*
G37*
G04 #@! TD.AperFunction*
G04 #@! TO.P,R7,1*
G04 #@! TO.N,Net-(D2-Pad1)*
G04 #@! TA.AperFunction,SMDPad,CuDef*
G36*
G01*
X91775000Y-109575000D02*
X91775000Y-109025000D01*
G75*
G02*
X91975000Y-108825000I200000J0D01*
G01*
X92375000Y-108825000D01*
G75*
G02*
X92575000Y-109025000I0J-200000D01*
G01*
X92575000Y-109575000D01*
G75*
G02*
X92375000Y-109775000I-200000J0D01*
G01*
X91975000Y-109775000D01*
G75*
G02*
X91775000Y-109575000I0J200000D01*
G01*
G37*
G04 #@! TD.AperFunction*
G04 #@! TD*
G04 #@! TO.P,R6,2*
G04 #@! TO.N,GND*
G04 #@! TA.AperFunction,SMDPad,CuDef*
G36*
G01*
X93425000Y-111575000D02*
X93425000Y-111025000D01*
G75*
G02*
X93625000Y-110825000I200000J0D01*
G01*
X94025000Y-110825000D01*
G75*
G02*
X94225000Y-111025000I0J-200000D01*
G01*
X94225000Y-111575000D01*
G75*
G02*
X94025000Y-111775000I-200000J0D01*
G01*
X93625000Y-111775000D01*
G75*
G02*
X93425000Y-111575000I0J200000D01*
G01*
G37*
G04 #@! TD.AperFunction*
G04 #@! TO.P,R6,1*
G04 #@! TO.N,Net-(D1-Pad1)*
G04 #@! TA.AperFunction,SMDPad,CuDef*
G36*
G01*
X91775000Y-111575000D02*
X91775000Y-111025000D01*
G75*
G02*
X91975000Y-110825000I200000J0D01*
G01*
X92375000Y-110825000D01*
G75*
G02*
X92575000Y-111025000I0J-200000D01*
G01*
X92575000Y-111575000D01*
G75*
G02*
X92375000Y-111775000I-200000J0D01*
G01*
X91975000Y-111775000D01*
G75*
G02*
X91775000Y-111575000I0J200000D01*
G01*
G37*
G04 #@! TD.AperFunction*
G04 #@! TD*
G04 #@! TO.P,D2,2*
G04 #@! TO.N,+3V3*
G04 #@! TA.AperFunction,SMDPad,CuDef*
G36*
G01*
X89650000Y-109043750D02*
X89650000Y-109556250D01*
G75*
G02*
X89431250Y-109775000I-218750J0D01*
G01*
X88993750Y-109775000D01*
G75*
G02*
X88775000Y-109556250I0J218750D01*
G01*
X88775000Y-109043750D01*
G75*
G02*
X88993750Y-108825000I218750J0D01*
G01*
X89431250Y-108825000D01*
G75*
G02*
X89650000Y-109043750I0J-218750D01*
G01*
G37*
G04 #@! TD.AperFunction*
G04 #@! TO.P,D2,1*
G04 #@! TO.N,Net-(D2-Pad1)*
G04 #@! TA.AperFunction,SMDPad,CuDef*
G36*
G01*
X91225000Y-109043750D02*
X91225000Y-109556250D01*
G75*
G02*
X91006250Y-109775000I-218750J0D01*
G01*
X90568750Y-109775000D01*
G75*
G02*
X90350000Y-109556250I0J218750D01*
G01*
X90350000Y-109043750D01*
G75*
G02*
X90568750Y-108825000I218750J0D01*
G01*
X91006250Y-108825000D01*
G75*
G02*
X91225000Y-109043750I0J-218750D01*
G01*
G37*
G04 #@! TD.AperFunction*
G04 #@! TD*
G04 #@! TO.P,D1,2*
G04 #@! TO.N,+5V*
G04 #@! TA.AperFunction,SMDPad,CuDef*
G36*
G01*
X89650000Y-111043750D02*
X89650000Y-111556250D01*
G75*
G02*
X89431250Y-111775000I-218750J0D01*
G01*
X88993750Y-111775000D01*
G75*
G02*
X88775000Y-111556250I0J218750D01*
G01*
X88775000Y-111043750D01*
G75*
G02*
X88993750Y-110825000I218750J0D01*
G01*
X89431250Y-110825000D01*
G75*
G02*
X89650000Y-111043750I0J-218750D01*
G01*
G37*
G04 #@! TD.AperFunction*
G04 #@! TO.P,D1,1*
G04 #@! TO.N,Net-(D1-Pad1)*
G04 #@! TA.AperFunction,SMDPad,CuDef*
G36*
G01*
X91225000Y-111043750D02*
X91225000Y-111556250D01*
G75*
G02*
X91006250Y-111775000I-218750J0D01*
G01*
X90568750Y-111775000D01*
G75*
G02*
X90350000Y-111556250I0J218750D01*
G01*
X90350000Y-111043750D01*
G75*
G02*
X90568750Y-110825000I218750J0D01*
G01*
X91006250Y-110825000D01*
G75*
G02*
X91225000Y-111043750I0J-218750D01*
G01*
G37*
G04 #@! TD.AperFunction*
G04 #@! TD*
G04 #@! TO.P,C3,2*
G04 #@! TO.N,GND*
G04 #@! TA.AperFunction,SMDPad,CuDef*
G36*
G01*
X85550000Y-117525000D02*
X85550000Y-118475000D01*
G75*
G02*
X85300000Y-118725000I-250000J0D01*
G01*
X84800000Y-118725000D01*
G75*
G02*
X84550000Y-118475000I0J250000D01*
G01*
X84550000Y-117525000D01*
G75*
G02*
X84800000Y-117275000I250000J0D01*
G01*
X85300000Y-117275000D01*
G75*
G02*
X85550000Y-117525000I0J-250000D01*
G01*
G37*
G04 #@! TD.AperFunction*
G04 #@! TO.P,C3,1*
G04 #@! TO.N,Net-(C3-Pad1)*
G04 #@! TA.AperFunction,SMDPad,CuDef*
G36*
G01*
X87450000Y-117525000D02*
X87450000Y-118475000D01*
G75*
G02*
X87200000Y-118725000I-250000J0D01*
G01*
X86700000Y-118725000D01*
G75*
G02*
X86450000Y-118475000I0J250000D01*
G01*
X86450000Y-117525000D01*
G75*
G02*
X86700000Y-117275000I250000J0D01*
G01*
X87200000Y-117275000D01*
G75*
G02*
X87450000Y-117525000I0J-250000D01*
G01*
G37*
G04 #@! TD.AperFunction*
G04 #@! TD*
D20*
G04 #@! TO.P,J3,SH*
G04 #@! TO.N,GND*
X88250000Y-121700000D03*
X103750000Y-121700000D03*
D21*
G04 #@! TO.P,J3,11*
G04 #@! TO.N,+3V3*
X89215000Y-129000000D03*
G04 #@! TO.P,J3,12*
G04 #@! TO.N,Net-(J3-Pad12)*
X89215000Y-131030000D03*
G04 #@! TO.P,J3,13*
G04 #@! TO.N,+3V3*
X102785000Y-129000000D03*
D22*
G04 #@! TO.P,J3,10*
G04 #@! TO.N,/E0_TR3-*
X90285000Y-115860000D03*
G04 #@! TO.P,J3,8*
G04 #@! TO.N,/E0_TR2-*
X92825000Y-115860000D03*
G04 #@! TO.P,J3,6*
G04 #@! TO.N,Net-(C3-Pad1)*
X95365000Y-115860000D03*
G04 #@! TO.P,J3,4*
G04 #@! TO.N,/E0_TR1-*
X97905000Y-115860000D03*
G04 #@! TO.P,J3,2*
G04 #@! TO.N,/E0_TR0-*
X100445000Y-115860000D03*
G04 #@! TO.P,J3,9*
G04 #@! TO.N,/E0_TR3+*
X91555000Y-118400000D03*
G04 #@! TO.P,J3,7*
G04 #@! TO.N,/E0_TR2+*
X94095000Y-118400000D03*
G04 #@! TO.P,J3,5*
G04 #@! TO.N,Net-(C3-Pad1)*
X96635000Y-118400000D03*
G04 #@! TO.P,J3,1*
G04 #@! TO.N,/E0_TR0+*
G04 #@! TA.AperFunction,ComponentPad*
G36*
G01*
X102096000Y-119162000D02*
X101334000Y-119162000D01*
G75*
G02*
X100953000Y-118781000I0J381000D01*
G01*
X100953000Y-118019000D01*
G75*
G02*
X101334000Y-117638000I381000J0D01*
G01*
X102096000Y-117638000D01*
G75*
G02*
X102477000Y-118019000I0J-381000D01*
G01*
X102477000Y-118781000D01*
G75*
G02*
X102096000Y-119162000I-381000J0D01*
G01*
G37*
G04 #@! TD.AperFunction*
G04 #@! TO.P,J3,3*
G04 #@! TO.N,/E0_TR1+*
X99175000Y-118400000D03*
D21*
G04 #@! TO.P,J3,14*
G04 #@! TO.N,Net-(J3-Pad14)*
X102785000Y-131030000D03*
G04 #@! TD*
G04 #@! TO.P,FB1,2*
G04 #@! TO.N,/USB_VBUS*
G04 #@! TA.AperFunction,SMDPad,CuDef*
G36*
G01*
X103375000Y-100218750D02*
X103375000Y-100981250D01*
G75*
G02*
X103156250Y-101200000I-218750J0D01*
G01*
X102718750Y-101200000D01*
G75*
G02*
X102500000Y-100981250I0J218750D01*
G01*
X102500000Y-100218750D01*
G75*
G02*
X102718750Y-100000000I218750J0D01*
G01*
X103156250Y-100000000D01*
G75*
G02*
X103375000Y-100218750I0J-218750D01*
G01*
G37*
G04 #@! TD.AperFunction*
G04 #@! TO.P,FB1,1*
G04 #@! TO.N,+5V*
G04 #@! TA.AperFunction,SMDPad,CuDef*
G36*
G01*
X105500000Y-100218750D02*
X105500000Y-100981250D01*
G75*
G02*
X105281250Y-101200000I-218750J0D01*
G01*
X104843750Y-101200000D01*
G75*
G02*
X104625000Y-100981250I0J218750D01*
G01*
X104625000Y-100218750D01*
G75*
G02*
X104843750Y-100000000I218750J0D01*
G01*
X105281250Y-100000000D01*
G75*
G02*
X105500000Y-100218750I0J-218750D01*
G01*
G37*
G04 #@! TD.AperFunction*
G04 #@! TD*
D23*
G04 #@! TO.P,H4,1*
G04 #@! TO.N,GND*
X167931891Y-129068109D03*
X166500000Y-128475000D03*
X165068109Y-129068109D03*
X164475000Y-130500000D03*
X165068109Y-131931891D03*
X166500000Y-132525000D03*
X167931891Y-131931891D03*
X168525000Y-130500000D03*
D24*
X166500000Y-130500000D03*
G04 #@! TD*
D23*
G04 #@! TO.P,H3,1*
G04 #@! TO.N,GND*
X167931891Y-96068109D03*
X166500000Y-95475000D03*
X165068109Y-96068109D03*
X164475000Y-97500000D03*
X165068109Y-98931891D03*
X166500000Y-99525000D03*
X167931891Y-98931891D03*
X168525000Y-97500000D03*
D24*
X166500000Y-97500000D03*
G04 #@! TD*
D25*
G04 #@! TO.P,U6,3*
G04 #@! TO.N,GND*
X96000000Y-102775000D03*
G04 #@! TO.P,U6,2*
G04 #@! TO.N,/USB_D-*
X96350000Y-103625000D03*
G04 #@! TO.P,U6,1*
G04 #@! TO.N,/USB_D+*
X95650000Y-103625000D03*
G04 #@! TD*
G04 #@! TO.P,R4,2*
G04 #@! TO.N,/~E0_LEDL*
G04 #@! TA.AperFunction,SMDPad,CuDef*
G36*
G01*
X87075000Y-124275000D02*
X86525000Y-124275000D01*
G75*
G02*
X86325000Y-124075000I0J200000D01*
G01*
X86325000Y-123675000D01*
G75*
G02*
X86525000Y-123475000I200000J0D01*
G01*
X87075000Y-123475000D01*
G75*
G02*
X87275000Y-123675000I0J-200000D01*
G01*
X87275000Y-124075000D01*
G75*
G02*
X87075000Y-124275000I-200000J0D01*
G01*
G37*
G04 #@! TD.AperFunction*
G04 #@! TO.P,R4,1*
G04 #@! TO.N,Net-(J3-Pad12)*
G04 #@! TA.AperFunction,SMDPad,CuDef*
G36*
G01*
X87075000Y-125925000D02*
X86525000Y-125925000D01*
G75*
G02*
X86325000Y-125725000I0J200000D01*
G01*
X86325000Y-125325000D01*
G75*
G02*
X86525000Y-125125000I200000J0D01*
G01*
X87075000Y-125125000D01*
G75*
G02*
X87275000Y-125325000I0J-200000D01*
G01*
X87275000Y-125725000D01*
G75*
G02*
X87075000Y-125925000I-200000J0D01*
G01*
G37*
G04 #@! TD.AperFunction*
G04 #@! TD*
G04 #@! TO.P,R3,2*
G04 #@! TO.N,/~E0_LEDR*
G04 #@! TA.AperFunction,SMDPad,CuDef*
G36*
G01*
X105375000Y-124375000D02*
X104825000Y-124375000D01*
G75*
G02*
X104625000Y-124175000I0J200000D01*
G01*
X104625000Y-123775000D01*
G75*
G02*
X104825000Y-123575000I200000J0D01*
G01*
X105375000Y-123575000D01*
G75*
G02*
X105575000Y-123775000I0J-200000D01*
G01*
X105575000Y-124175000D01*
G75*
G02*
X105375000Y-124375000I-200000J0D01*
G01*
G37*
G04 #@! TD.AperFunction*
G04 #@! TO.P,R3,1*
G04 #@! TO.N,Net-(J3-Pad14)*
G04 #@! TA.AperFunction,SMDPad,CuDef*
G36*
G01*
X105375000Y-126025000D02*
X104825000Y-126025000D01*
G75*
G02*
X104625000Y-125825000I0J200000D01*
G01*
X104625000Y-125425000D01*
G75*
G02*
X104825000Y-125225000I200000J0D01*
G01*
X105375000Y-125225000D01*
G75*
G02*
X105575000Y-125425000I0J-200000D01*
G01*
X105575000Y-125825000D01*
G75*
G02*
X105375000Y-126025000I-200000J0D01*
G01*
G37*
G04 #@! TD.AperFunction*
G04 #@! TD*
G04 #@! TO.P,R2,2*
G04 #@! TO.N,Net-(J1-PadB5)*
G04 #@! TA.AperFunction,SMDPad,CuDef*
G36*
G01*
X93425000Y-103475000D02*
X93425000Y-102925000D01*
G75*
G02*
X93625000Y-102725000I200000J0D01*
G01*
X94025000Y-102725000D01*
G75*
G02*
X94225000Y-102925000I0J-200000D01*
G01*
X94225000Y-103475000D01*
G75*
G02*
X94025000Y-103675000I-200000J0D01*
G01*
X93625000Y-103675000D01*
G75*
G02*
X93425000Y-103475000I0J200000D01*
G01*
G37*
G04 #@! TD.AperFunction*
G04 #@! TO.P,R2,1*
G04 #@! TO.N,GND*
G04 #@! TA.AperFunction,SMDPad,CuDef*
G36*
G01*
X91775000Y-103475000D02*
X91775000Y-102925000D01*
G75*
G02*
X91975000Y-102725000I200000J0D01*
G01*
X92375000Y-102725000D01*
G75*
G02*
X92575000Y-102925000I0J-200000D01*
G01*
X92575000Y-103475000D01*
G75*
G02*
X92375000Y-103675000I-200000J0D01*
G01*
X91975000Y-103675000D01*
G75*
G02*
X91775000Y-103475000I0J200000D01*
G01*
G37*
G04 #@! TD.AperFunction*
G04 #@! TD*
G04 #@! TO.P,R1,2*
G04 #@! TO.N,Net-(J1-PadA5)*
G04 #@! TA.AperFunction,SMDPad,CuDef*
G36*
G01*
X98575000Y-102925000D02*
X98575000Y-103475000D01*
G75*
G02*
X98375000Y-103675000I-200000J0D01*
G01*
X97975000Y-103675000D01*
G75*
G02*
X97775000Y-103475000I0J200000D01*
G01*
X97775000Y-102925000D01*
G75*
G02*
X97975000Y-102725000I200000J0D01*
G01*
X98375000Y-102725000D01*
G75*
G02*
X98575000Y-102925000I0J-200000D01*
G01*
G37*
G04 #@! TD.AperFunction*
G04 #@! TO.P,R1,1*
G04 #@! TO.N,GND*
G04 #@! TA.AperFunction,SMDPad,CuDef*
G36*
G01*
X100225000Y-102925000D02*
X100225000Y-103475000D01*
G75*
G02*
X100025000Y-103675000I-200000J0D01*
G01*
X99625000Y-103675000D01*
G75*
G02*
X99425000Y-103475000I0J200000D01*
G01*
X99425000Y-102925000D01*
G75*
G02*
X99625000Y-102725000I200000J0D01*
G01*
X100025000Y-102725000D01*
G75*
G02*
X100225000Y-102925000I0J-200000D01*
G01*
G37*
G04 #@! TD.AperFunction*
G04 #@! TD*
D23*
G04 #@! TO.P,H2,1*
G04 #@! TO.N,GND*
X84931891Y-129068109D03*
X83500000Y-128475000D03*
X82068109Y-129068109D03*
X81475000Y-130500000D03*
X82068109Y-131931891D03*
X83500000Y-132525000D03*
X84931891Y-131931891D03*
X85525000Y-130500000D03*
D24*
X83500000Y-130500000D03*
G04 #@! TD*
D23*
G04 #@! TO.P,H1,1*
G04 #@! TO.N,GND*
X84931891Y-96068109D03*
X83500000Y-95475000D03*
X82068109Y-96068109D03*
X81475000Y-97500000D03*
X82068109Y-98931891D03*
X83500000Y-99525000D03*
X84931891Y-98931891D03*
X85525000Y-97500000D03*
D24*
X83500000Y-97500000D03*
G04 #@! TD*
D26*
G04 #@! TO.P,FID3,*
G04 #@! TO.N,*
X153500000Y-97500000D03*
G04 #@! TD*
G04 #@! TO.P,FID2,*
G04 #@! TO.N,*
X158500000Y-125500000D03*
G04 #@! TD*
G04 #@! TO.P,FID1,*
G04 #@! TO.N,*
X110500000Y-125500000D03*
G04 #@! TD*
G04 #@! TO.P,C2,2*
G04 #@! TO.N,GND*
G04 #@! TA.AperFunction,SMDPad,CuDef*
G36*
G01*
X104450000Y-103075000D02*
X104450000Y-102125000D01*
G75*
G02*
X104700000Y-101875000I250000J0D01*
G01*
X105200000Y-101875000D01*
G75*
G02*
X105450000Y-102125000I0J-250000D01*
G01*
X105450000Y-103075000D01*
G75*
G02*
X105200000Y-103325000I-250000J0D01*
G01*
X104700000Y-103325000D01*
G75*
G02*
X104450000Y-103075000I0J250000D01*
G01*
G37*
G04 #@! TD.AperFunction*
G04 #@! TO.P,C2,1*
G04 #@! TO.N,+5V*
G04 #@! TA.AperFunction,SMDPad,CuDef*
G36*
G01*
X102550000Y-103075000D02*
X102550000Y-102125000D01*
G75*
G02*
X102800000Y-101875000I250000J0D01*
G01*
X103300000Y-101875000D01*
G75*
G02*
X103550000Y-102125000I0J-250000D01*
G01*
X103550000Y-103075000D01*
G75*
G02*
X103300000Y-103325000I-250000J0D01*
G01*
X102800000Y-103325000D01*
G75*
G02*
X102550000Y-103075000I0J250000D01*
G01*
G37*
G04 #@! TD.AperFunction*
G04 #@! TD*
G04 #@! TO.P,C1,2*
G04 #@! TO.N,GND*
G04 #@! TA.AperFunction,SMDPad,CuDef*
G36*
G01*
X104450000Y-105175000D02*
X104450000Y-104225000D01*
G75*
G02*
X104700000Y-103975000I250000J0D01*
G01*
X105200000Y-103975000D01*
G75*
G02*
X105450000Y-104225000I0J-250000D01*
G01*
X105450000Y-105175000D01*
G75*
G02*
X105200000Y-105425000I-250000J0D01*
G01*
X104700000Y-105425000D01*
G75*
G02*
X104450000Y-105175000I0J250000D01*
G01*
G37*
G04 #@! TD.AperFunction*
G04 #@! TO.P,C1,1*
G04 #@! TO.N,+5V*
G04 #@! TA.AperFunction,SMDPad,CuDef*
G36*
G01*
X102550000Y-105175000D02*
X102550000Y-104225000D01*
G75*
G02*
X102800000Y-103975000I250000J0D01*
G01*
X103300000Y-103975000D01*
G75*
G02*
X103550000Y-104225000I0J-250000D01*
G01*
X103550000Y-105175000D01*
G75*
G02*
X103300000Y-105425000I-250000J0D01*
G01*
X102800000Y-105425000D01*
G75*
G02*
X102550000Y-105175000I0J250000D01*
G01*
G37*
G04 #@! TD.AperFunction*
G04 #@! TD*
D27*
G04 #@! TO.N,GND*
X96000000Y-102200002D03*
D28*
X99200000Y-102000000D03*
X92800000Y-102000000D03*
X105999988Y-102600000D03*
X106000010Y-104700000D03*
D27*
X100700000Y-103200000D03*
X91300000Y-103200000D03*
X94600000Y-105300000D03*
X94600000Y-109300000D03*
X94600000Y-111300000D03*
D28*
X83900000Y-118000000D03*
X85800000Y-105000000D03*
X85800000Y-111000000D03*
X118800000Y-98000000D03*
X126052410Y-103100000D03*
D27*
X137600000Y-131800000D03*
X133600000Y-131800000D03*
X132400000Y-131798398D03*
X129600000Y-130700000D03*
X127200000Y-128700000D03*
X126700000Y-132700000D03*
X131600000Y-130200000D03*
X133200000Y-130200000D03*
X141600000Y-128700000D03*
X128400000Y-128700000D03*
X135000000Y-131800000D03*
D28*
X147700000Y-124000000D03*
D27*
G04 #@! TO.N,/USB_OTG_ID*
X127200000Y-99300000D03*
G04 #@! TO.N,GND*
X128400000Y-99300000D03*
X129600000Y-97900000D03*
X132000000Y-97900000D03*
X133200000Y-97900000D03*
X134400000Y-97900000D03*
X138000000Y-97900000D03*
X139200000Y-97900000D03*
X140400000Y-97900000D03*
X141600000Y-97900000D03*
X142800000Y-97900000D03*
X144000000Y-97900000D03*
X145200000Y-97900000D03*
X146400000Y-97900000D03*
X146400000Y-96200000D03*
X145200000Y-96200000D03*
X144000000Y-96200000D03*
X142800000Y-96200000D03*
X141600000Y-96200000D03*
X140400000Y-96200000D03*
X139200000Y-96200000D03*
X138000000Y-96200000D03*
X135600000Y-96200000D03*
X134400000Y-96200000D03*
X133200000Y-96200000D03*
X132000000Y-96200000D03*
X129600000Y-96200000D03*
X128400000Y-96200000D03*
X146400000Y-128700000D03*
D28*
X152500000Y-124000000D03*
X150900000Y-124000000D03*
D27*
X131200000Y-96201626D03*
X130998028Y-97893497D03*
X136400000Y-96201650D03*
D28*
X105400000Y-96000000D03*
X111600000Y-102800000D03*
X162000000Y-104500000D03*
D27*
G04 #@! TO.N,/SD_D0*
X140400000Y-131100000D03*
G04 #@! TO.N,/SD_CLK*
X138400000Y-131800012D03*
D28*
G04 #@! TO.N,+3V3*
X149300000Y-124000000D03*
D27*
G04 #@! TO.N,/SD_CMD*
X139200000Y-128700000D03*
G04 #@! TO.N,/SD_D3*
X139200000Y-131800000D03*
X125200000Y-114000000D03*
X125199980Y-117400000D03*
G04 #@! TO.N,/SD_D1*
X140400000Y-131800000D03*
G04 #@! TO.N,/SD_D2*
X141200000Y-131798374D03*
G04 #@! TO.N,/~E0_LEDR*
X113825000Y-123975000D03*
X131000000Y-131299990D03*
G04 #@! TO.N,/~E0_LEDL*
X85400000Y-123800000D03*
X108200000Y-122600000D03*
X111400000Y-122600004D03*
X130400000Y-131800000D03*
D28*
G04 #@! TO.N,+5V*
X143400000Y-133400000D03*
X102000000Y-104700000D03*
D27*
X88300000Y-111300000D03*
D28*
X102000000Y-102600000D03*
D27*
G04 #@! TO.N,Net-(J3-Pad14)*
X106100000Y-125600000D03*
G04 #@! TO.N,Net-(J3-Pad12)*
X85400000Y-125500000D03*
G04 #@! TO.N,/SD_PWR*
X88300000Y-105300000D03*
D28*
X121000000Y-98000000D03*
D27*
X88900000Y-101500000D03*
D28*
X111600000Y-101400000D03*
D27*
G04 #@! TO.N,/SD_PWR_ON*
X142400000Y-131798382D03*
X109800000Y-103900006D03*
X125500000Y-99899994D03*
X86800000Y-100700010D03*
G04 #@! TO.N,/PI_LED_nACT*
X103700000Y-109300000D03*
X131700000Y-131300000D03*
G04 #@! TO.N,/PI_nRPI_BOOT*
X84800000Y-108499988D03*
X101000000Y-108500000D03*
X103000000Y-108500004D03*
X136800000Y-131399992D03*
G04 #@! TO.N,/PI_GLOBAL_EN*
X84600000Y-114600000D03*
X113600000Y-111200000D03*
X88300000Y-112500004D03*
X136000000Y-131400000D03*
G04 #@! TO.N,Net-(JP1-Pad2)*
X143600000Y-131099994D03*
G04 #@! TO.N,Net-(JP2-Pad2)*
X144800000Y-131800000D03*
G04 #@! TO.N,Net-(JP3-Pad2)*
X145199994Y-133200000D03*
G04 #@! TO.N,Net-(JP4-Pad2)*
X142500000Y-126600002D03*
G04 #@! TD*
D29*
G04 #@! TO.N,GND*
X96000000Y-102775000D02*
X96000000Y-102200002D01*
D30*
X99200000Y-100810000D02*
X99200000Y-102000000D01*
X92800000Y-100810000D02*
X92800000Y-102000000D01*
D31*
X104950000Y-102600000D02*
X104950000Y-104700000D01*
X104950000Y-102600000D02*
X105999988Y-102600000D01*
X104950000Y-104700000D02*
X106000010Y-104700000D01*
D29*
X99825000Y-103200000D02*
X100700000Y-103200000D01*
X92175000Y-103200000D02*
X91300000Y-103200000D01*
X93825000Y-105300000D02*
X94600000Y-105300000D01*
X94700000Y-109300000D02*
X94600000Y-109300000D01*
X93825000Y-109300000D02*
X94700000Y-109300000D01*
X93825000Y-111300000D02*
X94600000Y-111300000D01*
D31*
X85050000Y-118000000D02*
X83900000Y-118000000D01*
X84700000Y-105000000D02*
X85800000Y-105000000D01*
X84700000Y-111000000D02*
X85800000Y-111000000D01*
D29*
X137600000Y-132500000D02*
X137600000Y-131800000D01*
X133600000Y-132500000D02*
X133600000Y-131800000D01*
X131799202Y-131798398D02*
X132400000Y-131798398D01*
X131600000Y-131997600D02*
X131799202Y-131798398D01*
X131600000Y-132500000D02*
X131600000Y-131997600D01*
X129600000Y-132500000D02*
X129600000Y-130700000D01*
X129600000Y-130700000D02*
X129600000Y-129420000D01*
X127200000Y-129420000D02*
X127200000Y-128700000D01*
X126900000Y-132500000D02*
X126700000Y-132700000D01*
X127200000Y-132500000D02*
X126900000Y-132500000D01*
X128400000Y-132500000D02*
X128400000Y-132000000D01*
X128400000Y-132000000D02*
X128300000Y-131900000D01*
X128300000Y-131900000D02*
X127300000Y-131900000D01*
X127200000Y-132000000D02*
X127200000Y-132500000D01*
X127300000Y-131900000D02*
X127200000Y-132000000D01*
X131200000Y-129800000D02*
X131600000Y-130200000D01*
X131200000Y-129420000D02*
X131200000Y-129800000D01*
X133200000Y-129420000D02*
X133200000Y-130200000D01*
X135200000Y-129000000D02*
X135200000Y-129420000D01*
X135400000Y-128800000D02*
X135200000Y-129000000D01*
X137200000Y-129000000D02*
X137000000Y-128800000D01*
X137000000Y-128800000D02*
X135400000Y-128800000D01*
X137200000Y-129420000D02*
X137200000Y-129000000D01*
X141200000Y-133002400D02*
X141102400Y-133100000D01*
X141200000Y-132500000D02*
X141200000Y-133002400D01*
X137600000Y-133002400D02*
X137600000Y-132500000D01*
X137697600Y-133100000D02*
X137600000Y-133002400D01*
X138800000Y-132500000D02*
X138800000Y-133100000D01*
X138800000Y-133100000D02*
X137697600Y-133100000D01*
X140000000Y-132500000D02*
X140000000Y-133100000D01*
X140000000Y-133100000D02*
X138800000Y-133100000D01*
X141102400Y-133100000D02*
X140000000Y-133100000D01*
X138682400Y-128800000D02*
X137000000Y-128800000D01*
X138800000Y-128917600D02*
X138682400Y-128800000D01*
X138800000Y-129420000D02*
X138800000Y-128917600D01*
X140000000Y-128917600D02*
X140117600Y-128800000D01*
X140000000Y-129420000D02*
X140000000Y-128917600D01*
X141600000Y-128917600D02*
X141600000Y-129420000D01*
X141482400Y-128800000D02*
X141600000Y-128917600D01*
X140117600Y-128800000D02*
X141482400Y-128800000D01*
X141600000Y-128917600D02*
X141600000Y-128700000D01*
X128400000Y-129420000D02*
X128400000Y-128700000D01*
X133200000Y-128917600D02*
X133200000Y-129420000D01*
X133317600Y-128800000D02*
X133200000Y-128917600D01*
X135400000Y-128800000D02*
X133317600Y-128800000D01*
X135402400Y-131800000D02*
X135000000Y-131800000D01*
X135600000Y-131997600D02*
X135402400Y-131800000D01*
X135600000Y-132500000D02*
X135600000Y-131997600D01*
G04 #@! TO.N,/USB_OTG_ID*
X127200000Y-98580000D02*
X127200000Y-99300000D01*
G04 #@! TO.N,GND*
X128400000Y-98580000D02*
X128400000Y-99300000D01*
X129600000Y-98580000D02*
X129600000Y-97900000D01*
X132000000Y-98580000D02*
X132000000Y-97900000D01*
X133200000Y-98580000D02*
X133200000Y-97900000D01*
X134400000Y-98580000D02*
X134400000Y-97900000D01*
X138000000Y-98580000D02*
X138000000Y-97900000D01*
X139200000Y-98580000D02*
X139200000Y-97900000D01*
X140400000Y-98580000D02*
X140400000Y-97900000D01*
X141600000Y-98580000D02*
X141600000Y-97900000D01*
X142800000Y-98580000D02*
X142800000Y-97900000D01*
X144000000Y-98580000D02*
X144000000Y-97900000D01*
X145200000Y-98580000D02*
X145200000Y-97900000D01*
X146400000Y-98580000D02*
X146400000Y-97900000D01*
X146400000Y-95500000D02*
X146400000Y-96200000D01*
X145200000Y-95500000D02*
X145200000Y-96200000D01*
X144000000Y-95500000D02*
X144000000Y-96200000D01*
X142800000Y-95500000D02*
X142800000Y-96200000D01*
X141600000Y-95500000D02*
X141600000Y-96200000D01*
X140400000Y-95500000D02*
X140400000Y-96200000D01*
X139200000Y-95500000D02*
X139200000Y-96200000D01*
X138000000Y-95500000D02*
X138000000Y-96200000D01*
X135600000Y-95500000D02*
X135600000Y-96200000D01*
X134400000Y-95500000D02*
X134400000Y-96200000D01*
X133200000Y-95500000D02*
X133200000Y-96200000D01*
X132000000Y-95500000D02*
X132000000Y-96200000D01*
X129600000Y-95500000D02*
X129600000Y-96200000D01*
X128400000Y-95500000D02*
X128400000Y-96200000D01*
X146400000Y-129420000D02*
X146400000Y-128700000D01*
X131001626Y-96201626D02*
X131200000Y-96201626D01*
X130800000Y-96000000D02*
X131001626Y-96201626D01*
X130800000Y-95500000D02*
X130800000Y-96000000D01*
X130800000Y-98580000D02*
X130800000Y-98091525D01*
X130800000Y-98091525D02*
X130998028Y-97893497D01*
X136598350Y-96201650D02*
X136400000Y-96201650D01*
X136800000Y-96000000D02*
X136598350Y-96201650D01*
X136800000Y-95500000D02*
X136800000Y-96000000D01*
D31*
X104299999Y-96000000D02*
X105400000Y-96000000D01*
X163750000Y-104500000D02*
X162000000Y-104500000D01*
G04 #@! TO.N,Net-(D1-Pad1)*
X90787500Y-111300000D02*
X92175000Y-111300000D01*
D30*
G04 #@! TO.N,/USB_VBUS*
X93600000Y-100810000D02*
X93600000Y-100100000D01*
X93600000Y-100100000D02*
X94300000Y-99400000D01*
X94300000Y-99400000D02*
X97700000Y-99400000D01*
X98400000Y-100100000D02*
X98400000Y-100810000D01*
X97700000Y-99400000D02*
X98400000Y-100100000D01*
D31*
X102937500Y-99437500D02*
X102937500Y-100600000D01*
X102100000Y-98600000D02*
X102937500Y-99437500D01*
X98500000Y-98600000D02*
X102100000Y-98600000D01*
X97700000Y-99400000D02*
X98500000Y-98600000D01*
D29*
G04 #@! TO.N,Net-(J1-PadB5)*
X94250000Y-102250000D02*
X94250000Y-100810000D01*
X93825000Y-102675000D02*
X94250000Y-102250000D01*
X93825000Y-103200000D02*
X93825000Y-102675000D01*
G04 #@! TO.N,Net-(J1-PadA5)*
X97600000Y-103200000D02*
X98175000Y-103200000D01*
X97250000Y-102850000D02*
X97600000Y-103200000D01*
X97250000Y-100810000D02*
X97250000Y-102850000D01*
D32*
G04 #@! TO.N,/SD_D0*
X139600000Y-132500000D02*
X139600000Y-131900000D01*
X139600000Y-131900000D02*
X140400000Y-131100000D01*
G04 #@! TO.N,/SD_CLK*
X138400000Y-132500000D02*
X138400000Y-131800012D01*
D31*
G04 #@! TO.N,+3V3*
X89212500Y-109300000D02*
X89212500Y-107300000D01*
X89212500Y-109300000D02*
X89100000Y-109300000D01*
X89215000Y-129000000D02*
X102785000Y-129000000D01*
X88300000Y-109300000D02*
X89212500Y-109300000D01*
X87200000Y-110400000D02*
X88300000Y-109300000D01*
X87200000Y-113200000D02*
X87200000Y-110400000D01*
X83000000Y-117400000D02*
X87200000Y-113200000D01*
X83000000Y-124800000D02*
X83000000Y-117400000D01*
X87200000Y-129000000D02*
X83000000Y-124800000D01*
X89215000Y-129000000D02*
X87200000Y-129000000D01*
D29*
X143600000Y-129420000D02*
X144000000Y-129420000D01*
D31*
X86300000Y-103625000D02*
X86300000Y-104000000D01*
X86300000Y-104000000D02*
X87100000Y-104800000D01*
X87100000Y-104800000D02*
X87100000Y-106900000D01*
X87500000Y-107300000D02*
X89212500Y-107300000D01*
X87100000Y-106900000D02*
X87500000Y-107300000D01*
X87100000Y-104800000D02*
X87200000Y-104800000D01*
X87200000Y-104800000D02*
X87900000Y-104100000D01*
X87900000Y-104100000D02*
X89600000Y-104100000D01*
X89850000Y-103850000D02*
X89850000Y-103000000D01*
X89600000Y-104100000D02*
X89850000Y-103850000D01*
X149300000Y-124000000D02*
X148300000Y-123000000D01*
X90112500Y-110200000D02*
X89212500Y-109300000D01*
X115200000Y-110200000D02*
X90112500Y-110200000D01*
X128000000Y-123000000D02*
X115200000Y-110200000D01*
X158500000Y-123000000D02*
X160900000Y-120600000D01*
X148300000Y-123000000D02*
X158500000Y-123000000D01*
X143800000Y-123600000D02*
X143200000Y-123000000D01*
X143800000Y-128500000D02*
X143800000Y-123600000D01*
X143200000Y-123000000D02*
X128000000Y-123000000D01*
X148300000Y-123000000D02*
X143200000Y-123000000D01*
X163750000Y-109500000D02*
X161500000Y-109500000D01*
X161500000Y-109500000D02*
X160900000Y-110100000D01*
X160900000Y-120600000D02*
X160900000Y-110100000D01*
D32*
G04 #@! TO.N,/SD_CMD*
X139200000Y-129420000D02*
X139200000Y-128700000D01*
G04 #@! TO.N,/SD_D3*
X139200000Y-132500000D02*
X139200000Y-131800000D01*
X125200000Y-117399980D02*
X125199980Y-117400000D01*
X125200000Y-114000000D02*
X125200000Y-117399980D01*
G04 #@! TO.N,/SD_D1*
X140400000Y-132500000D02*
X140400000Y-131800000D01*
G04 #@! TO.N,/SD_D2*
X140800000Y-132500000D02*
X140800000Y-132198374D01*
X140800000Y-132198374D02*
X141200000Y-131798374D01*
D29*
G04 #@! TO.N,/E0_TR2-*
X92825000Y-119840528D02*
X92825000Y-115860000D01*
X93184472Y-120200000D02*
X92825000Y-119840528D01*
X111600000Y-120200000D02*
X93184472Y-120200000D01*
X115452074Y-124052074D02*
X111600000Y-120200000D01*
X116328677Y-124928675D02*
X115452074Y-124052074D01*
X116378742Y-124991455D02*
X116328677Y-124928675D01*
X116413580Y-125063798D02*
X116378742Y-124991455D01*
X116431449Y-125142082D02*
X116413580Y-125063798D01*
X116431449Y-125222378D02*
X116431449Y-125142082D01*
X116413580Y-125300660D02*
X116431449Y-125222378D01*
X116378741Y-125373005D02*
X116413580Y-125300660D01*
X116328677Y-125435783D02*
X116378741Y-125373005D01*
X116228679Y-125535784D02*
X116328677Y-125435783D01*
X116202471Y-125561992D02*
X116228679Y-125535784D01*
X116118091Y-125667799D02*
X116202471Y-125561992D01*
X116059372Y-125789730D02*
X116118091Y-125667799D01*
X116029258Y-125921670D02*
X116059372Y-125789730D01*
X116029259Y-126057004D02*
X116029258Y-125921670D01*
X116059373Y-126188944D02*
X116029259Y-126057004D01*
X116118092Y-126310875D02*
X116059373Y-126188944D01*
X116202470Y-126416682D02*
X116118092Y-126310875D01*
X116254886Y-126469098D02*
X116202470Y-126416682D01*
X116360693Y-126553477D02*
X116254886Y-126469098D01*
X116482624Y-126612196D02*
X116360693Y-126553477D01*
X116614564Y-126642310D02*
X116482624Y-126612196D01*
X116749898Y-126642310D02*
X116614564Y-126642310D01*
X116881838Y-126612196D02*
X116749898Y-126642310D01*
X117003769Y-126553477D02*
X116881838Y-126612196D01*
X117109576Y-126469098D02*
X117003769Y-126553477D01*
X117689337Y-125889338D02*
X117109576Y-126469098D01*
X118042891Y-125535785D02*
X117689337Y-125889338D01*
X118105669Y-125485721D02*
X118042891Y-125535785D01*
X118178014Y-125450881D02*
X118105669Y-125485721D01*
X118256297Y-125433014D02*
X118178014Y-125450881D01*
X118336593Y-125433014D02*
X118256297Y-125433014D01*
X118414876Y-125450881D02*
X118336593Y-125433014D01*
X118487220Y-125485721D02*
X118414876Y-125450881D01*
X118549999Y-125535785D02*
X118487220Y-125485721D01*
X118600063Y-125598564D02*
X118549999Y-125535785D01*
X118634902Y-125670908D02*
X118600063Y-125598564D01*
X118652770Y-125749191D02*
X118634902Y-125670908D01*
X118652770Y-125829487D02*
X118652770Y-125749191D01*
X118634902Y-125907770D02*
X118652770Y-125829487D01*
X118600063Y-125980115D02*
X118634902Y-125907770D01*
X118549999Y-126042893D02*
X118600063Y-125980115D01*
X118423792Y-126169101D02*
X118549999Y-126042893D01*
X118339413Y-126274908D02*
X118423792Y-126169101D01*
X118280694Y-126396839D02*
X118339413Y-126274908D01*
X118250580Y-126528780D02*
X118280694Y-126396839D01*
X118250580Y-126664113D02*
X118250580Y-126528780D01*
X118280694Y-126796053D02*
X118250580Y-126664113D01*
X118339413Y-126917984D02*
X118280694Y-126796053D01*
X118423792Y-127023791D02*
X118339413Y-126917984D01*
X122852400Y-131452400D02*
X118423792Y-127023791D01*
X128436872Y-131452400D02*
X122852400Y-131452400D01*
X128847600Y-131863128D02*
X128436872Y-131452400D01*
X128847600Y-131927399D02*
X128847600Y-131863128D01*
X128800000Y-131974999D02*
X128847600Y-131927399D01*
X128800000Y-132500000D02*
X128800000Y-131974999D01*
G04 #@! TO.N,/E0_TR2+*
X93129800Y-119365200D02*
X94095000Y-118400000D01*
X93129800Y-119714272D02*
X93129800Y-119365200D01*
X93315528Y-119900000D02*
X93129800Y-119714272D01*
X94400000Y-119900000D02*
X93315528Y-119900000D01*
X94427815Y-119896866D02*
X94400000Y-119900000D01*
X94454235Y-119887622D02*
X94427815Y-119896866D01*
X94477936Y-119872729D02*
X94454235Y-119887622D01*
X94497728Y-119852937D02*
X94477936Y-119872729D01*
X94512621Y-119829236D02*
X94497728Y-119852937D01*
X94521865Y-119802816D02*
X94512621Y-119829236D01*
X94525000Y-119775000D02*
X94521865Y-119802816D01*
X94525000Y-119560168D02*
X94525000Y-119775000D01*
X94528134Y-119532353D02*
X94525000Y-119560168D01*
X94537378Y-119505933D02*
X94528134Y-119532353D01*
X94552271Y-119482232D02*
X94537378Y-119505933D01*
X94572063Y-119462440D02*
X94552271Y-119482232D01*
X94595764Y-119447547D02*
X94572063Y-119462440D01*
X94622184Y-119438303D02*
X94595764Y-119447547D01*
X94650000Y-119435168D02*
X94622184Y-119438303D01*
X94900000Y-119435168D02*
X94650000Y-119435168D01*
X94927815Y-119438303D02*
X94900000Y-119435168D01*
X94954235Y-119447547D02*
X94927815Y-119438303D01*
X94977936Y-119462440D02*
X94954235Y-119447547D01*
X94997728Y-119482232D02*
X94977936Y-119462440D01*
X95012621Y-119505933D02*
X94997728Y-119482232D01*
X95021865Y-119532353D02*
X95012621Y-119505933D01*
X97052271Y-119852937D02*
X97037378Y-119829236D01*
X97072063Y-119872729D02*
X97052271Y-119852937D01*
X97095764Y-119887622D02*
X97072063Y-119872729D01*
X97122184Y-119896866D02*
X97095764Y-119887622D01*
X116554884Y-124754884D02*
X111700000Y-119900000D01*
X116697983Y-124982624D02*
X116639264Y-124860693D01*
X116728097Y-125114564D02*
X116697983Y-124982624D01*
X97150000Y-119900000D02*
X97122184Y-119896866D01*
X116728096Y-125249896D02*
X116728097Y-125114564D01*
X116697982Y-125381836D02*
X116728096Y-125249896D01*
X116639263Y-125503767D02*
X116697982Y-125381836D01*
X116554885Y-125609576D02*
X116639263Y-125503767D01*
X116639264Y-124860693D02*
X116554884Y-124754884D01*
X116428677Y-125735783D02*
X116554885Y-125609576D01*
X116343774Y-125870907D02*
X116378613Y-125798561D01*
X116325907Y-125949190D02*
X116343774Y-125870907D01*
X116325907Y-126029486D02*
X116325907Y-125949190D01*
X116343774Y-126107769D02*
X116325907Y-126029486D01*
X111700000Y-119900000D02*
X97150000Y-119900000D01*
X96052271Y-119852937D02*
X96037378Y-119829236D01*
X116378614Y-126180113D02*
X116343774Y-126107769D01*
X116428677Y-126242891D02*
X116378614Y-126180113D01*
X116491455Y-126292955D02*
X116428677Y-126242891D01*
X116563800Y-126327794D02*
X116491455Y-126292955D01*
X116642084Y-126345663D02*
X116563800Y-126327794D01*
X95025000Y-119775000D02*
X95025000Y-119560168D01*
X116722380Y-126345663D02*
X116642084Y-126345663D01*
X116800662Y-126327794D02*
X116722380Y-126345663D01*
X116873007Y-126292955D02*
X116800662Y-126327794D01*
X116935785Y-126242891D02*
X116873007Y-126292955D01*
X117869099Y-125309577D02*
X116935785Y-126242891D01*
X118599935Y-126405671D02*
X118649999Y-126342892D01*
X122947600Y-131147600D02*
X118649999Y-126850000D01*
X118565096Y-126478015D02*
X118599935Y-126405671D01*
X95025000Y-119560168D02*
X95021865Y-119532353D01*
X118547229Y-126556298D02*
X118565096Y-126478015D01*
X118565096Y-126714877D02*
X118547229Y-126636594D01*
X118599935Y-126787222D02*
X118565096Y-126714877D01*
X95028134Y-119802816D02*
X95025000Y-119775000D01*
X118547229Y-126636594D02*
X118547229Y-126556298D01*
X128563128Y-131147600D02*
X122947600Y-131147600D01*
X118096838Y-125166479D02*
X117974907Y-125225198D01*
X118649999Y-126850000D02*
X118599935Y-126787222D01*
X129152400Y-131927399D02*
X129152400Y-131736872D01*
X129152400Y-131736872D02*
X128563128Y-131147600D01*
X95037378Y-119829236D02*
X95028134Y-119802816D01*
X129200000Y-132500000D02*
X129200000Y-131974999D01*
X129200000Y-131974999D02*
X129152400Y-131927399D01*
X118860585Y-125467801D02*
X118776206Y-125361993D01*
X118649999Y-126342892D02*
X118776206Y-126216684D01*
X118776206Y-126216684D02*
X118860585Y-126110876D01*
X118860585Y-126110876D02*
X118919304Y-125988945D01*
X118919304Y-125988945D02*
X118949418Y-125857005D01*
X118949418Y-125857005D02*
X118949418Y-125721672D01*
X118949418Y-125721672D02*
X118919304Y-125589732D01*
X118919304Y-125589732D02*
X118860585Y-125467801D01*
X118776206Y-125361993D02*
X118723790Y-125309577D01*
X118723790Y-125309577D02*
X118617982Y-125225198D01*
X118617982Y-125225198D02*
X118496051Y-125166479D01*
X118496051Y-125166479D02*
X118364111Y-125136365D01*
X118364111Y-125136365D02*
X118228778Y-125136365D01*
X116378613Y-125798561D02*
X116428677Y-125735783D01*
X118228778Y-125136365D02*
X118096838Y-125166479D01*
X117974907Y-125225198D02*
X117869099Y-125309577D01*
X97037378Y-119829236D02*
X97028134Y-119802816D01*
X97028134Y-119802816D02*
X97025000Y-119775000D01*
X97025000Y-119775000D02*
X97025000Y-119560168D01*
X97025000Y-119560168D02*
X97021865Y-119532353D01*
X97021865Y-119532353D02*
X97012621Y-119505933D01*
X97012621Y-119505933D02*
X96997728Y-119482232D01*
X96997728Y-119482232D02*
X96977936Y-119462440D01*
X96977936Y-119462440D02*
X96954235Y-119447547D01*
X96954235Y-119447547D02*
X96927815Y-119438303D01*
X96927815Y-119438303D02*
X96900000Y-119435168D01*
X96900000Y-119435168D02*
X96650000Y-119435168D01*
X96650000Y-119435168D02*
X96622184Y-119438303D01*
X96622184Y-119438303D02*
X96595764Y-119447547D01*
X96595764Y-119447547D02*
X96572063Y-119462440D01*
X96572063Y-119462440D02*
X96552271Y-119482232D01*
X96552271Y-119482232D02*
X96537378Y-119505933D01*
X96537378Y-119505933D02*
X96528134Y-119532353D01*
X96528134Y-119532353D02*
X96525000Y-119560168D01*
X96525000Y-119560168D02*
X96525000Y-119775000D01*
X96525000Y-119775000D02*
X96521865Y-119802816D01*
X96521865Y-119802816D02*
X96512621Y-119829236D01*
X96512621Y-119829236D02*
X96497728Y-119852937D01*
X96497728Y-119852937D02*
X96477936Y-119872729D01*
X96477936Y-119872729D02*
X96454235Y-119887622D01*
X96454235Y-119887622D02*
X96427815Y-119896866D01*
X96427815Y-119896866D02*
X96400000Y-119900000D01*
X96400000Y-119900000D02*
X96150000Y-119900000D01*
X96150000Y-119900000D02*
X96122184Y-119896866D01*
X96122184Y-119896866D02*
X96095764Y-119887622D01*
X96095764Y-119887622D02*
X96072063Y-119872729D01*
X96072063Y-119872729D02*
X96052271Y-119852937D01*
X96037378Y-119829236D02*
X96028134Y-119802816D01*
X96028134Y-119802816D02*
X96025000Y-119775000D01*
X96025000Y-119775000D02*
X96025000Y-119560168D01*
X96025000Y-119560168D02*
X96021865Y-119532353D01*
X96021865Y-119532353D02*
X96012621Y-119505933D01*
X96012621Y-119505933D02*
X95997728Y-119482232D01*
X95997728Y-119482232D02*
X95977936Y-119462440D01*
X95977936Y-119462440D02*
X95954235Y-119447547D01*
X95954235Y-119447547D02*
X95927815Y-119438303D01*
X95927815Y-119438303D02*
X95900000Y-119435168D01*
X95900000Y-119435168D02*
X95650000Y-119435168D01*
X95650000Y-119435168D02*
X95622184Y-119438303D01*
X95622184Y-119438303D02*
X95595764Y-119447547D01*
X95595764Y-119447547D02*
X95572063Y-119462440D01*
X95572063Y-119462440D02*
X95552271Y-119482232D01*
X95552271Y-119482232D02*
X95537378Y-119505933D01*
X95537378Y-119505933D02*
X95528134Y-119532353D01*
X95528134Y-119532353D02*
X95525000Y-119560168D01*
X95525000Y-119560168D02*
X95525000Y-119775000D01*
X95525000Y-119775000D02*
X95521865Y-119802816D01*
X95521865Y-119802816D02*
X95512621Y-119829236D01*
X95512621Y-119829236D02*
X95497728Y-119852937D01*
X95497728Y-119852937D02*
X95477936Y-119872729D01*
X95477936Y-119872729D02*
X95454235Y-119887622D01*
X95454235Y-119887622D02*
X95427815Y-119896866D01*
X95427815Y-119896866D02*
X95400000Y-119900000D01*
X95400000Y-119900000D02*
X95150000Y-119900000D01*
X95150000Y-119900000D02*
X95122184Y-119896866D01*
X95122184Y-119896866D02*
X95095764Y-119887622D01*
X95095764Y-119887622D02*
X95072063Y-119872729D01*
X95072063Y-119872729D02*
X95052271Y-119852937D01*
X95052271Y-119852937D02*
X95037378Y-119829236D01*
G04 #@! TO.N,/E0_TR1+*
X121940728Y-121696610D02*
X121834307Y-121781478D01*
X122566432Y-121572758D02*
X122556161Y-121562487D01*
X122566432Y-122054068D02*
X122613949Y-121994483D01*
X122110250Y-122510250D02*
X122566432Y-122054068D01*
X121654068Y-122966432D02*
X122110250Y-122510250D01*
X121627710Y-122992793D02*
X121654068Y-122966432D01*
X121542841Y-123099213D02*
X121627710Y-122992793D01*
X121483783Y-123221852D02*
X121542841Y-123099213D01*
X121453494Y-123354557D02*
X121483783Y-123221852D01*
X121453493Y-123490673D02*
X121453494Y-123354557D01*
X121483782Y-123623378D02*
X121453493Y-123490673D01*
X121542842Y-123746017D02*
X121483782Y-123623378D01*
X121627709Y-123852437D02*
X121542842Y-123746017D01*
X121690699Y-123915428D02*
X121627709Y-123852437D01*
X121081083Y-121696610D02*
X112236872Y-112852400D01*
X121797121Y-124000296D02*
X121690699Y-123915428D01*
X122663974Y-121775307D02*
X122647016Y-121701007D01*
X121919758Y-124059355D02*
X121797121Y-124000296D01*
X122052463Y-124089644D02*
X121919758Y-124059355D01*
X122188579Y-124089642D02*
X122052463Y-124089644D01*
X122321284Y-124059353D02*
X122188579Y-124089642D01*
X121310142Y-121840537D02*
X121187504Y-121781478D01*
X122443921Y-124000294D02*
X122321284Y-124059353D01*
X121442847Y-121870826D02*
X121310142Y-121840537D01*
X122550343Y-123915427D02*
X122443921Y-124000294D01*
X121711669Y-121840537D02*
X121578964Y-121870826D01*
X123489068Y-122976703D02*
X122550343Y-123915427D01*
X123548653Y-122929187D02*
X123489068Y-122976703D01*
X123617317Y-122896120D02*
X123548653Y-122929187D01*
X123691617Y-122879161D02*
X123617317Y-122896120D01*
X123767829Y-122879161D02*
X123691617Y-122879161D01*
X123842129Y-122896120D02*
X123767829Y-122879161D01*
X123980648Y-123468284D02*
X124028165Y-123408699D01*
X112236872Y-112852400D02*
X99963128Y-112852400D01*
X125036668Y-124315472D02*
X124968004Y-124348539D01*
X99963128Y-112852400D02*
X99175000Y-113640528D01*
X124968004Y-124348539D02*
X124908419Y-124396055D01*
X122897998Y-125037594D02*
X122867709Y-124904889D01*
X99175000Y-113640528D02*
X99175000Y-118400000D01*
X125187180Y-124298513D02*
X125110968Y-124298513D01*
X122897999Y-124636068D02*
X122957057Y-124513429D01*
X121187504Y-121781478D02*
X121081083Y-121696610D01*
X125389728Y-124396055D02*
X125330144Y-124348539D01*
X122496577Y-121514971D02*
X122427913Y-121481904D01*
X125399999Y-124406326D02*
X125389728Y-124396055D01*
X122613949Y-121632343D02*
X122566432Y-121572758D01*
X122867710Y-124768773D02*
X122897999Y-124636068D01*
X125497542Y-124685086D02*
X125497542Y-124608874D01*
X123104915Y-125329644D02*
X123041925Y-125266653D01*
X122647016Y-121701007D02*
X122613949Y-121632343D01*
X125480583Y-124759386D02*
X125497542Y-124685086D01*
X124028165Y-123408699D02*
X124061232Y-123340035D01*
X122663974Y-121851519D02*
X122663974Y-121775307D01*
X125447516Y-124828050D02*
X125480583Y-124759386D01*
X123068284Y-124380648D02*
X123980648Y-123468284D01*
X125110968Y-124298513D02*
X125036668Y-124315472D01*
X122074852Y-121562487D02*
X121940728Y-121696610D01*
X122867709Y-124904889D02*
X122867710Y-124768773D01*
X124028165Y-123046559D02*
X123980648Y-122986974D01*
X122353613Y-121464945D02*
X122277401Y-121464945D01*
X127600000Y-129420000D02*
X127600000Y-128894999D01*
X123041926Y-124407009D02*
X123068284Y-124380648D01*
X125181008Y-125128180D02*
X125265876Y-125021759D01*
X122957058Y-125160233D02*
X122897998Y-125037594D01*
X125265876Y-125881404D02*
X125181008Y-125774983D01*
X122427913Y-121481904D02*
X122353613Y-121464945D01*
X125181008Y-125774983D02*
X125121949Y-125652345D01*
X127647600Y-128263128D02*
X125265876Y-125881404D01*
X123858137Y-125414510D02*
X123735500Y-125473569D01*
X122277401Y-121464945D02*
X122203101Y-121481904D01*
X125091660Y-125519640D02*
X125091660Y-125383522D01*
X125121949Y-125250817D02*
X125181008Y-125128180D01*
X123735500Y-125473569D02*
X123602795Y-125503858D01*
X124447101Y-124847101D02*
X124339337Y-124954864D01*
X124560000Y-124744473D02*
X124452236Y-124852237D01*
X124078190Y-123189523D02*
X124061232Y-123115223D01*
X122613949Y-121994483D02*
X122647016Y-121925819D01*
X124339337Y-124954864D02*
X123964559Y-125329643D01*
X124061232Y-123340035D02*
X124078190Y-123265735D01*
X122134437Y-121514971D02*
X122074852Y-121562487D01*
X123964559Y-125329643D02*
X123858137Y-125414510D01*
X122556161Y-121562487D02*
X122496577Y-121514971D01*
X123602795Y-125503858D02*
X123466679Y-125503860D01*
X125330144Y-124348539D02*
X125261480Y-124315472D01*
X121834307Y-121781478D02*
X121711669Y-121840537D01*
X123466679Y-125503860D02*
X123333974Y-125473571D01*
X125261480Y-124315472D02*
X125187180Y-124298513D01*
X121578964Y-121870826D02*
X121442847Y-121870826D01*
X123333974Y-125473571D02*
X123211337Y-125414512D01*
X122203101Y-121481904D02*
X122134437Y-121514971D01*
X123211337Y-125414512D02*
X123104915Y-125329644D01*
X123041925Y-125266653D02*
X122957058Y-125160233D01*
X122957057Y-124513429D02*
X123041926Y-124407009D01*
X124908419Y-124396055D02*
X124560000Y-124744473D01*
X124078190Y-123265735D02*
X124078190Y-123189523D01*
X124061232Y-123115223D02*
X124028165Y-123046559D01*
X122647016Y-121925819D02*
X122663974Y-121851519D01*
X123980648Y-122986974D02*
X123970377Y-122976703D01*
X123970377Y-122976703D02*
X123910793Y-122929187D01*
X127600000Y-128894999D02*
X127647600Y-128847399D01*
X123910793Y-122929187D02*
X123842129Y-122896120D01*
X127647600Y-128847399D02*
X127647600Y-128263128D01*
X125265876Y-125021759D02*
X125399999Y-124887635D01*
X125091660Y-125383522D02*
X125121949Y-125250817D01*
X124452236Y-124852237D02*
X124447101Y-124847101D01*
X125399999Y-124887635D02*
X125447516Y-124828050D01*
X125497542Y-124608874D02*
X125480583Y-124534574D01*
X125480583Y-124534574D02*
X125447516Y-124465910D01*
X125447516Y-124465910D02*
X125399999Y-124406326D01*
X125121949Y-125652345D02*
X125091660Y-125519640D01*
G04 #@! TO.N,/E0_TR1-*
X98870200Y-114894800D02*
X97905000Y-115860000D01*
X98870200Y-113514272D02*
X98870200Y-114894800D01*
X99836872Y-112547600D02*
X98870200Y-113514272D01*
X99864687Y-112544466D02*
X99836872Y-112547600D01*
X99891107Y-112535222D02*
X99864687Y-112544466D01*
X99914808Y-112520329D02*
X99891107Y-112535222D01*
X99934600Y-112500537D02*
X99914808Y-112520329D01*
X99949493Y-112476836D02*
X99934600Y-112500537D01*
X99958737Y-112450416D02*
X99949493Y-112476836D01*
X99961872Y-112422600D02*
X99958737Y-112450416D01*
X99961872Y-112281924D02*
X99961872Y-112422600D01*
X99965006Y-112254109D02*
X99961872Y-112281924D01*
X99974250Y-112227689D02*
X99965006Y-112254109D01*
X99989143Y-112203988D02*
X99974250Y-112227689D01*
X100008935Y-112184196D02*
X99989143Y-112203988D01*
X100032636Y-112169303D02*
X100008935Y-112184196D01*
X100059056Y-112160059D02*
X100032636Y-112169303D01*
X100086872Y-112156924D02*
X100059056Y-112160059D01*
X100336872Y-112156924D02*
X100086872Y-112156924D01*
X100364687Y-112160059D02*
X100336872Y-112156924D01*
X100391107Y-112169303D02*
X100364687Y-112160059D01*
X100414808Y-112184196D02*
X100391107Y-112169303D01*
X100434600Y-112203988D02*
X100414808Y-112184196D01*
X100449493Y-112227689D02*
X100434600Y-112203988D01*
X100458737Y-112254109D02*
X100449493Y-112227689D01*
X100461872Y-112281924D02*
X100458737Y-112254109D01*
X100461872Y-112422600D02*
X100461872Y-112281924D01*
X100465006Y-112450416D02*
X100461872Y-112422600D01*
X100474250Y-112476836D02*
X100465006Y-112450416D01*
X125427179Y-125563987D02*
X125410221Y-125489687D01*
X121939451Y-123721057D02*
X121879866Y-123673540D01*
X101461872Y-112422600D02*
X101461872Y-112281924D01*
X101489143Y-112500537D02*
X101474250Y-112476836D01*
X122008116Y-123754125D02*
X121939451Y-123721057D01*
X122232928Y-123754125D02*
X122158628Y-123771083D01*
X125460246Y-125632651D02*
X125427179Y-125563987D01*
X122361176Y-123673540D02*
X122301591Y-123721057D01*
X101465006Y-112450416D02*
X101461872Y-112422600D01*
X121472799Y-121552266D02*
X121398499Y-121535307D01*
X112363128Y-112547600D02*
X101586872Y-112547600D01*
X125427179Y-125339175D02*
X125460246Y-125270511D01*
X101008935Y-112184196D02*
X100989143Y-112203988D01*
X121549011Y-121552266D02*
X121472799Y-121552266D01*
X122952246Y-121612649D02*
X122893187Y-121490012D01*
X125507763Y-125692236D02*
X125460246Y-125632651D01*
X122893187Y-122136814D02*
X122952246Y-122014177D01*
X122952246Y-122014177D02*
X122982535Y-121881472D01*
X121329835Y-121502240D02*
X121270251Y-121454723D01*
X122082416Y-123771083D02*
X122008116Y-123754125D01*
X101508935Y-112520329D02*
X101489143Y-112500537D01*
X122158628Y-123771083D02*
X122082416Y-123771083D01*
X121859324Y-121346960D02*
X121751560Y-121454723D01*
X121885684Y-121320601D02*
X121859324Y-121346960D01*
X122114743Y-121176674D02*
X121992105Y-121235733D01*
X121869596Y-123181961D02*
X122325777Y-122725777D01*
X125785813Y-124847744D02*
X125816102Y-124715039D01*
X101586872Y-112547600D02*
X101559056Y-112544466D01*
X123236295Y-124655761D02*
X123283812Y-124596177D01*
X121398499Y-121535307D02*
X121329835Y-121502240D01*
X123186269Y-124798725D02*
X123203229Y-124724426D01*
X124222535Y-123657451D02*
X124307403Y-123551030D01*
X128000000Y-129420000D02*
X128000000Y-128894999D01*
X121691975Y-121502240D02*
X121623311Y-121535307D01*
X124366462Y-123026865D02*
X124307403Y-122904228D01*
X122383565Y-121146385D02*
X122247448Y-121146385D01*
X122745329Y-121320601D02*
X122638908Y-121235733D01*
X128000000Y-128894999D02*
X127952400Y-128847399D01*
X121772053Y-123384509D02*
X121789013Y-123310210D01*
X125816102Y-124715039D02*
X125816102Y-124578922D01*
X122808319Y-121383590D02*
X122745329Y-121320601D01*
X101364687Y-112160059D02*
X101336872Y-112156924D01*
X101032636Y-112169303D02*
X101008935Y-112184196D01*
X101532636Y-112535222D02*
X101508935Y-112520329D01*
X124307403Y-122904228D02*
X124222535Y-122797806D01*
X101336872Y-112156924D02*
X101086872Y-112156924D01*
X127952400Y-128847399D02*
X127952400Y-128136872D01*
X124396751Y-123295688D02*
X124396751Y-123159570D01*
X121623311Y-121535307D02*
X121549011Y-121552266D01*
X127952400Y-128136872D02*
X125507763Y-125692236D01*
X124344472Y-124528945D02*
X124236708Y-124636709D01*
X122301591Y-123721057D02*
X122232928Y-123754125D01*
X123847757Y-124032230D02*
X124222535Y-123657451D01*
X125726754Y-124970382D02*
X125785813Y-124847744D01*
X101474250Y-112476836D02*
X101465006Y-112450416D01*
X125578896Y-124154168D02*
X125472475Y-124069300D01*
X123236295Y-125017901D02*
X123203229Y-124949238D01*
X125816102Y-124578922D02*
X125785813Y-124446217D01*
X101461872Y-112281924D02*
X101458737Y-112254109D01*
X123294082Y-125087756D02*
X123283811Y-125077485D01*
X125641886Y-125076803D02*
X125726754Y-124970382D01*
X123661664Y-122560601D02*
X123528959Y-122590890D01*
X125410221Y-125413475D02*
X125427179Y-125339175D01*
X101559056Y-112544466D02*
X101532636Y-112535222D01*
X123739993Y-124139993D02*
X123847757Y-124032230D01*
X121789013Y-123310210D02*
X121822079Y-123241545D01*
X122516270Y-121176674D02*
X122383565Y-121146385D01*
X101059056Y-112160059D02*
X101032636Y-112169303D01*
X101086872Y-112156924D02*
X101059056Y-112160059D01*
X121822079Y-123603685D02*
X121789013Y-123535022D01*
X121772053Y-123460721D02*
X121772053Y-123384509D01*
X100989143Y-112203988D02*
X100974250Y-112227689D01*
X125460246Y-125270511D02*
X125507763Y-125210927D01*
X101449493Y-112227689D02*
X101434600Y-112203988D01*
X125410221Y-125489687D02*
X125410221Y-125413475D01*
X121822079Y-123241545D02*
X121869596Y-123181961D01*
X100974250Y-112227689D02*
X100965006Y-112254109D01*
X121789013Y-123535022D02*
X121772053Y-123460721D01*
X122325777Y-122725777D02*
X122808319Y-122243235D01*
X125507763Y-125210927D02*
X125641886Y-125076803D01*
X101391107Y-112169303D02*
X101364687Y-112160059D01*
X125785813Y-124446217D02*
X125726754Y-124323579D01*
X125726754Y-124323579D02*
X125641886Y-124217158D01*
X125641886Y-124217158D02*
X125578896Y-124154168D01*
X125472475Y-124069300D02*
X125349837Y-124010241D01*
X125349837Y-124010241D02*
X125217132Y-123979952D01*
X125217132Y-123979952D02*
X125081015Y-123979952D01*
X125081015Y-123979952D02*
X124948310Y-124010241D01*
X124948310Y-124010241D02*
X124825672Y-124069300D01*
X124825672Y-124069300D02*
X124719251Y-124154168D01*
X124719251Y-124154168D02*
X124692891Y-124180527D01*
X124692891Y-124180527D02*
X124344472Y-124528945D01*
X124236708Y-124636709D02*
X124231574Y-124631574D01*
X124231574Y-124631574D02*
X123775392Y-125087756D01*
X123775392Y-125087756D02*
X123715807Y-125135273D01*
X123715807Y-125135273D02*
X123647144Y-125168341D01*
X123647144Y-125168341D02*
X123572844Y-125185299D01*
X123572844Y-125185299D02*
X123496632Y-125185299D01*
X123496632Y-125185299D02*
X123422332Y-125168341D01*
X123422332Y-125168341D02*
X123353667Y-125135273D01*
X123353667Y-125135273D02*
X123294082Y-125087756D01*
X123283811Y-125077485D02*
X123236295Y-125017901D01*
X123203229Y-124949238D02*
X123186269Y-124874937D01*
X123186269Y-124874937D02*
X123186269Y-124798725D01*
X123203229Y-124724426D02*
X123236295Y-124655761D01*
X123283812Y-124596177D02*
X123739993Y-124139993D01*
X124307403Y-123551030D02*
X124366462Y-123428393D01*
X124366462Y-123428393D02*
X124396751Y-123295688D01*
X124396751Y-123159570D02*
X124366462Y-123026865D01*
X124222535Y-122797806D02*
X124159545Y-122734817D01*
X124159545Y-122734817D02*
X124053124Y-122649949D01*
X124053124Y-122649949D02*
X123930486Y-122590890D01*
X123930486Y-122590890D02*
X123797781Y-122560601D01*
X123797781Y-122560601D02*
X123661664Y-122560601D01*
X123528959Y-122590890D02*
X123406321Y-122649949D01*
X123406321Y-122649949D02*
X123299900Y-122734817D01*
X123299900Y-122734817D02*
X123273540Y-122761176D01*
X123273540Y-122761176D02*
X122361176Y-123673540D01*
X121879866Y-123673540D02*
X121869595Y-123663269D01*
X121869595Y-123663269D02*
X121822079Y-123603685D01*
X122808319Y-122243235D02*
X122893187Y-122136814D01*
X122982535Y-121881472D02*
X122982535Y-121745354D01*
X122982535Y-121745354D02*
X122952246Y-121612649D01*
X122893187Y-121490012D02*
X122808319Y-121383590D01*
X122638908Y-121235733D02*
X122516270Y-121176674D01*
X122247448Y-121146385D02*
X122114743Y-121176674D01*
X121992105Y-121235733D02*
X121885684Y-121320601D01*
X121751560Y-121454723D02*
X121691975Y-121502240D01*
X121270251Y-121454723D02*
X112363128Y-112547600D01*
X101458737Y-112254109D02*
X101449493Y-112227689D01*
X101434600Y-112203988D02*
X101414808Y-112184196D01*
X101414808Y-112184196D02*
X101391107Y-112169303D01*
X100965006Y-112254109D02*
X100961872Y-112281924D01*
X100961872Y-112281924D02*
X100961872Y-112422600D01*
X100961872Y-112422600D02*
X100958737Y-112450416D01*
X100958737Y-112450416D02*
X100949493Y-112476836D01*
X100949493Y-112476836D02*
X100934600Y-112500537D01*
X100934600Y-112500537D02*
X100914808Y-112520329D01*
X100914808Y-112520329D02*
X100891107Y-112535222D01*
X100891107Y-112535222D02*
X100864687Y-112544466D01*
X100864687Y-112544466D02*
X100836872Y-112547600D01*
X100836872Y-112547600D02*
X100586872Y-112547600D01*
X100586872Y-112547600D02*
X100559056Y-112544466D01*
X100559056Y-112544466D02*
X100532636Y-112535222D01*
X100532636Y-112535222D02*
X100508935Y-112520329D01*
X100508935Y-112520329D02*
X100489143Y-112500537D01*
X100489143Y-112500537D02*
X100474250Y-112476836D01*
G04 #@! TO.N,/E0_TR3+*
X91406868Y-120287411D02*
X91381649Y-120299556D01*
X91434159Y-120281183D02*
X91406868Y-120287411D01*
X91462149Y-120281182D02*
X91434159Y-120281183D01*
X91489438Y-120287411D02*
X91462149Y-120281182D01*
X91514657Y-120299556D02*
X91489438Y-120287411D01*
X91536543Y-120317009D02*
X91514657Y-120299556D01*
X91713319Y-120493785D02*
X91536543Y-120317009D01*
X91730770Y-120515669D02*
X91713319Y-120493785D01*
X91742915Y-120540888D02*
X91730770Y-120515669D01*
X91749144Y-120568177D02*
X91742915Y-120540888D01*
X91749145Y-120596169D02*
X91749144Y-120568177D01*
X91742916Y-120623458D02*
X91749145Y-120596169D01*
X91730770Y-120648677D02*
X91742916Y-120623458D01*
X91713318Y-120670561D02*
X91730770Y-120648677D01*
X91588092Y-120795788D02*
X91713318Y-120670561D01*
X91570640Y-120817672D02*
X91588092Y-120795788D01*
X91359765Y-120317008D02*
X91234540Y-120442236D01*
X91558495Y-120842891D02*
X91570640Y-120817672D01*
X91187437Y-120471833D02*
X91160147Y-120478061D01*
X91552265Y-120870180D02*
X91558495Y-120842891D01*
X91552266Y-120898172D02*
X91552265Y-120870180D01*
X91381649Y-120299556D02*
X91359765Y-120317008D01*
X91558495Y-120925461D02*
X91552266Y-120898172D01*
X91570640Y-120950680D02*
X91558495Y-120925461D01*
X91588091Y-120972564D02*
X91570640Y-120950680D01*
X91057764Y-120442236D02*
X90589800Y-119974272D01*
X91764870Y-121149342D02*
X91588091Y-120972564D01*
X91786754Y-121166794D02*
X91764870Y-121149342D01*
X91811973Y-121178939D02*
X91786754Y-121166794D01*
X91839261Y-121185166D02*
X91811973Y-121178939D01*
X91867253Y-121185167D02*
X91839261Y-121185166D01*
X91132155Y-120478060D02*
X91104867Y-120471833D01*
X91894543Y-121178939D02*
X91867253Y-121185167D01*
X91919762Y-121166794D02*
X91894543Y-121178939D01*
X91941646Y-121149342D02*
X91919762Y-121166794D01*
X92066871Y-121024114D02*
X91941646Y-121149342D01*
X92088755Y-121006662D02*
X92066871Y-121024114D01*
X92113974Y-120994517D02*
X92088755Y-121006662D01*
X92141265Y-120988289D02*
X92113974Y-120994517D01*
X92169255Y-120988288D02*
X92141265Y-120988289D01*
X92196544Y-120994517D02*
X92169255Y-120988288D01*
X92221763Y-121006662D02*
X92196544Y-120994517D01*
X92243649Y-121024115D02*
X92221763Y-121006662D01*
X90589800Y-119974272D02*
X90589800Y-119365200D01*
X92420425Y-121200891D02*
X92243649Y-121024115D01*
X92437876Y-121222775D02*
X92420425Y-121200891D01*
X91104867Y-120471833D02*
X91079648Y-120459688D01*
X92450021Y-121247994D02*
X92437876Y-121222775D01*
X92456250Y-121275283D02*
X92450021Y-121247994D01*
X92456251Y-121303275D02*
X92456250Y-121275283D01*
X92450022Y-121330564D02*
X92456251Y-121303275D01*
X92437876Y-121355783D02*
X92450022Y-121330564D01*
X92420424Y-121377667D02*
X92437876Y-121355783D01*
X92295198Y-121502894D02*
X92420424Y-121377667D01*
X90589800Y-119365200D02*
X91555000Y-118400000D01*
X92277746Y-121524778D02*
X92295198Y-121502894D01*
X91234540Y-120442236D02*
X91212656Y-120459688D01*
X92265601Y-121549997D02*
X92277746Y-121524778D01*
X92259371Y-121577286D02*
X92265601Y-121549997D01*
X92259372Y-121605278D02*
X92259371Y-121577286D01*
X92265601Y-121632567D02*
X92259372Y-121605278D01*
X92295197Y-121679670D02*
X92277746Y-121657786D01*
X92471976Y-121856448D02*
X92295197Y-121679670D01*
X91160147Y-120478061D02*
X91132155Y-120478060D01*
X92493860Y-121873900D02*
X92471976Y-121856448D01*
X91079648Y-120459688D02*
X91057764Y-120442236D01*
X92519079Y-121886045D02*
X92493860Y-121873900D01*
X92546367Y-121892272D02*
X92519079Y-121886045D01*
X92574359Y-121892273D02*
X92546367Y-121892272D01*
X92601649Y-121886045D02*
X92574359Y-121892273D01*
X92626868Y-121873900D02*
X92601649Y-121886045D01*
X94559194Y-123344093D02*
X94541743Y-123322209D01*
X93157128Y-122037670D02*
X93163357Y-122010381D01*
X94577568Y-123396601D02*
X94571339Y-123369312D01*
X93355858Y-122563554D02*
X93333974Y-122581006D01*
X94559194Y-123477101D02*
X94571340Y-123451882D01*
X94380689Y-123698604D02*
X94386919Y-123671315D01*
X94399064Y-123779104D02*
X94386919Y-123753885D01*
X93691958Y-123071998D02*
X93679813Y-123046779D01*
X93691958Y-122938990D02*
X93709410Y-122917106D01*
X118893550Y-130578022D02*
X115015528Y-126700000D01*
X94317862Y-123115835D02*
X94290573Y-123109606D01*
X92984852Y-122364892D02*
X92972707Y-122339673D01*
X119100418Y-130677644D02*
X119024532Y-130660324D01*
X119178256Y-130677644D02*
X119100418Y-130677644D01*
X119324271Y-130626551D02*
X119254142Y-130660324D01*
X120442183Y-131366235D02*
X120528006Y-131258616D01*
X94416515Y-123800988D02*
X94399064Y-123779104D01*
X93002303Y-122386776D02*
X92984852Y-122364892D01*
X93870462Y-122689495D02*
X93864233Y-122662206D01*
X94571340Y-123451882D02*
X94577569Y-123424593D01*
X127436872Y-133247600D02*
X121563128Y-133247600D01*
X94343081Y-123127980D02*
X94317862Y-123115835D01*
X92966477Y-122284392D02*
X92972707Y-122257103D01*
X93583467Y-122402500D02*
X93555477Y-122402501D01*
X120259232Y-131561512D02*
X120307763Y-131500656D01*
X92821080Y-121701623D02*
X92795861Y-121713768D01*
X120225460Y-131631641D02*
X120259232Y-131561512D01*
X94571339Y-123369312D02*
X94559194Y-123344093D01*
X92876361Y-121695394D02*
X92848371Y-121695395D01*
X118954403Y-130626551D02*
X118893550Y-130578022D01*
X93179082Y-122563554D02*
X93002303Y-122386776D01*
X94577569Y-123424593D02*
X94577568Y-123396601D01*
X93253473Y-122599378D02*
X93226185Y-122593151D01*
X92903650Y-121701623D02*
X92876361Y-121695394D01*
X120307763Y-131992236D02*
X120259232Y-131931380D01*
X94290573Y-123109606D02*
X94262583Y-123109607D01*
X93127531Y-121907997D02*
X92950755Y-121731221D01*
X94380690Y-123726596D02*
X94380689Y-123698604D01*
X93481083Y-122438326D02*
X93355858Y-122563554D01*
X93281465Y-122599379D02*
X93253473Y-122599378D01*
X94386919Y-123671315D02*
X94399064Y-123646096D01*
X127600000Y-133084472D02*
X127436872Y-133247600D01*
X93610756Y-122408729D02*
X93583467Y-122402500D01*
X119751185Y-130298053D02*
X119627167Y-130357777D01*
X93157127Y-121955100D02*
X93144982Y-121929881D01*
X93834636Y-122791879D02*
X93852088Y-122769995D01*
X119024532Y-130660324D02*
X118954403Y-130626551D01*
X127600000Y-132500000D02*
X127600000Y-133084472D01*
X93673583Y-122991498D02*
X93679813Y-122964209D01*
X120528006Y-130604533D02*
X120442183Y-130496914D01*
X94416516Y-123624212D02*
X94541742Y-123498985D01*
X93870463Y-122717487D02*
X93870462Y-122689495D01*
X93144982Y-122062889D02*
X93157128Y-122037670D01*
X120528006Y-131258616D02*
X120587730Y-131134598D01*
X120208140Y-131785365D02*
X120208140Y-131707527D01*
X93679813Y-123046779D02*
X93673584Y-123019490D01*
X93555477Y-122402501D02*
X93528186Y-122408729D01*
X120587730Y-130728551D02*
X120528006Y-130604533D01*
X120259232Y-131931380D02*
X120225460Y-131861251D01*
X93308755Y-122593151D02*
X93281465Y-122599379D01*
X120587730Y-131134598D02*
X120618360Y-131000399D01*
X120618360Y-131000399D02*
X120618360Y-130862750D01*
X120225460Y-131861251D02*
X120208140Y-131785365D01*
X93852088Y-122636987D02*
X93834637Y-122615103D01*
X120307763Y-131500656D02*
X120442183Y-131366235D01*
X93127530Y-122084773D02*
X93144982Y-122062889D01*
X93886188Y-123270660D02*
X93709409Y-123093882D01*
X120442183Y-130496914D02*
X120388869Y-130443600D01*
X93852088Y-122769995D02*
X93864234Y-122744776D01*
X120388869Y-130443600D02*
X120281250Y-130357777D01*
X97315527Y-126700000D02*
X94416515Y-123800988D01*
X93502967Y-122420874D02*
X93481083Y-122438326D01*
X93864234Y-122744776D02*
X93870463Y-122717487D01*
X120157232Y-130298053D02*
X120023033Y-130267423D01*
X115015528Y-126700000D02*
X97315527Y-126700000D01*
X92848371Y-121695395D02*
X92821080Y-121701623D01*
X120023033Y-130267423D02*
X119885383Y-130267423D01*
X120618360Y-130862750D02*
X120587730Y-130728551D01*
X93709410Y-122917106D02*
X93834636Y-122791879D01*
X93679813Y-122964209D02*
X93691958Y-122938990D01*
X119885383Y-130267423D02*
X119751185Y-130298053D01*
X120281250Y-130357777D02*
X120157232Y-130298053D01*
X93635975Y-122420874D02*
X93610756Y-122408729D01*
X92972707Y-122257103D02*
X92984852Y-122231884D01*
X119627167Y-130357777D02*
X119519548Y-130443600D01*
X120208140Y-131707527D02*
X120225460Y-131631641D01*
X92972707Y-122339673D02*
X92966478Y-122312384D01*
X94399064Y-123646096D02*
X94416516Y-123624212D01*
X93673584Y-123019490D02*
X93673583Y-122991498D01*
X93226185Y-122593151D02*
X93200966Y-122581006D01*
X94235292Y-123115835D02*
X94210073Y-123127980D01*
X94541743Y-123322209D02*
X94364967Y-123145433D01*
X93709409Y-123093882D02*
X93691958Y-123071998D01*
X94386919Y-123753885D02*
X94380690Y-123726596D01*
X92984852Y-122231884D02*
X93002304Y-122210000D01*
X92928869Y-121713768D02*
X92903650Y-121701623D01*
X94188189Y-123145432D02*
X94062964Y-123270660D01*
X119254142Y-130660324D02*
X119178256Y-130677644D01*
X93908072Y-123288112D02*
X93886188Y-123270660D01*
X92950755Y-121731221D02*
X92928869Y-121713768D01*
X94062964Y-123270660D02*
X94041080Y-123288112D01*
X94262583Y-123109607D02*
X94235292Y-123115835D01*
X93144982Y-121929881D02*
X93127531Y-121907997D01*
X91212656Y-120459688D02*
X91187437Y-120471833D01*
X92277746Y-121657786D02*
X92265601Y-121632567D01*
X94041080Y-123288112D02*
X94015861Y-123300257D01*
X94541742Y-123498985D02*
X94559194Y-123477101D01*
X93163356Y-121982389D02*
X93157127Y-121955100D01*
X94210073Y-123127980D02*
X94188189Y-123145432D01*
X93834637Y-122615103D02*
X93657861Y-122438327D01*
X93864233Y-122662206D02*
X93852088Y-122636987D01*
X93988571Y-123306485D02*
X93960579Y-123306484D01*
X119519548Y-130443600D02*
X119385127Y-130578020D01*
X93528186Y-122408729D02*
X93502967Y-122420874D01*
X93333974Y-122581006D02*
X93308755Y-122593151D01*
X93960579Y-123306484D02*
X93933291Y-123300257D01*
X94364967Y-123145433D02*
X94343081Y-123127980D01*
X92966478Y-122312384D02*
X92966477Y-122284392D01*
X93163357Y-122010381D02*
X93163356Y-121982389D01*
X93933291Y-123300257D02*
X93908072Y-123288112D01*
X94015861Y-123300257D02*
X93988571Y-123306485D01*
X93002304Y-122210000D02*
X93127530Y-122084773D01*
X121563128Y-133247600D02*
X120307763Y-131992236D01*
X93657861Y-122438327D02*
X93635975Y-122420874D01*
X119385127Y-130578020D02*
X119324271Y-130626551D01*
X93200966Y-122581006D02*
X93179082Y-122563554D01*
X92795861Y-121713768D02*
X92773977Y-121731220D01*
X92773977Y-121731220D02*
X92648752Y-121856448D01*
X92648752Y-121856448D02*
X92626868Y-121873900D01*
G04 #@! TO.N,/E0_TR3-*
X90285000Y-120100528D02*
X90285000Y-115860000D01*
X114884472Y-127000000D02*
X97184472Y-127000000D01*
X97184472Y-127000000D02*
X90285000Y-120100528D01*
X118704677Y-130820205D02*
X114884472Y-127000000D01*
X118936314Y-130965752D02*
X118812296Y-130906028D01*
X119070513Y-130996382D02*
X118936314Y-130965752D01*
X119208162Y-130996382D02*
X119070513Y-130996382D01*
X119342361Y-130965752D02*
X119208162Y-130996382D01*
X119920032Y-131543423D02*
X119979756Y-131419404D01*
X119466379Y-130906028D02*
X119342361Y-130965752D01*
X120065579Y-132181107D02*
X119979756Y-132073488D01*
X119979756Y-131419404D02*
X120065579Y-131311785D01*
X119889402Y-131815271D02*
X119889402Y-131677621D01*
X120092236Y-131285129D02*
X120199999Y-131177365D01*
X119979756Y-132073488D02*
X119920032Y-131949470D01*
X119920032Y-131949470D02*
X119889402Y-131815271D01*
X119708419Y-130685785D02*
X119573998Y-130820205D01*
X121436872Y-133552400D02*
X120065579Y-132181107D01*
X119889402Y-131677621D02*
X119920032Y-131543423D01*
X120065579Y-131311785D02*
X120092236Y-131285129D01*
X127563128Y-133552400D02*
X121436872Y-133552400D01*
X128000000Y-133115528D02*
X127563128Y-133552400D01*
X119839404Y-130603481D02*
X119769275Y-130637254D01*
X128000000Y-132500000D02*
X128000000Y-133115528D01*
X120199999Y-130685785D02*
X120139143Y-130637254D01*
X118812296Y-130906028D02*
X118704677Y-130820205D01*
X120199999Y-131177365D02*
X120248530Y-131116509D01*
X120248530Y-131116509D02*
X120282303Y-131046380D01*
X119769275Y-130637254D02*
X119708419Y-130685785D01*
X120282303Y-131046380D02*
X120299623Y-130970494D01*
X120299623Y-130970494D02*
X120299623Y-130892656D01*
X120299623Y-130892656D02*
X120282303Y-130816770D01*
X120248530Y-130746641D02*
X120199999Y-130685785D01*
X120139143Y-130637254D02*
X120069014Y-130603481D01*
X120069014Y-130603481D02*
X119993128Y-130586161D01*
X120282303Y-130816770D02*
X120248530Y-130746641D01*
X119993128Y-130586161D02*
X119915290Y-130586161D01*
X119915290Y-130586161D02*
X119839404Y-130603481D01*
X119573998Y-130820205D02*
X119466379Y-130906028D01*
G04 #@! TO.N,/E0_TR0-*
X101499473Y-115860000D02*
X100445000Y-115860000D01*
X102211873Y-115147600D02*
X101499473Y-115860000D01*
X102452400Y-115147600D02*
X102211873Y-115147600D01*
X102480215Y-115144466D02*
X102452400Y-115147600D01*
X102506635Y-115135222D02*
X102480215Y-115144466D01*
X102530336Y-115120329D02*
X102506635Y-115135222D01*
X102550128Y-115100537D02*
X102530336Y-115120329D01*
X102565021Y-115076836D02*
X102550128Y-115100537D01*
X102574265Y-115050416D02*
X102565021Y-115076836D01*
X102577400Y-115022600D02*
X102574265Y-115050416D01*
X102577400Y-114783842D02*
X102577400Y-115022600D01*
X102580534Y-114756027D02*
X102577400Y-114783842D01*
X102589778Y-114729607D02*
X102580534Y-114756027D01*
X102604671Y-114705906D02*
X102589778Y-114729607D01*
X102624463Y-114686114D02*
X102604671Y-114705906D01*
X102648164Y-114671221D02*
X102624463Y-114686114D01*
X102674584Y-114661977D02*
X102648164Y-114671221D01*
X102702400Y-114658842D02*
X102674584Y-114661977D01*
X102952400Y-114658842D02*
X102702400Y-114658842D01*
X102980215Y-114661977D02*
X102952400Y-114658842D01*
X103006635Y-114671221D02*
X102980215Y-114661977D01*
X103030336Y-114686114D02*
X103006635Y-114671221D01*
X103050128Y-114705906D02*
X103030336Y-114686114D01*
X103065021Y-114729607D02*
X103050128Y-114705906D01*
X103074265Y-114756027D02*
X103065021Y-114729607D01*
X103077400Y-114783842D02*
X103074265Y-114756027D01*
X103077400Y-115022600D02*
X103077400Y-114783842D01*
X103080534Y-115050416D02*
X103077400Y-115022600D01*
X103089778Y-115076836D02*
X103080534Y-115050416D01*
X103104671Y-115100537D02*
X103089778Y-115076836D01*
X103124463Y-115120329D02*
X103104671Y-115100537D01*
X103148164Y-115135222D02*
X103124463Y-115120329D01*
X103174584Y-115144466D02*
X103148164Y-115135222D01*
X103202400Y-115147600D02*
X103174584Y-115144466D01*
X103452400Y-115147600D02*
X103202400Y-115147600D01*
X103480215Y-115144466D02*
X103452400Y-115147600D01*
X103506635Y-115135222D02*
X103480215Y-115144466D01*
X103530336Y-115120329D02*
X103506635Y-115135222D01*
X103550128Y-115100537D02*
X103530336Y-115120329D01*
X103565021Y-115076836D02*
X103550128Y-115100537D01*
X103574265Y-115050416D02*
X103565021Y-115076836D01*
X103577400Y-115022600D02*
X103574265Y-115050416D01*
X103577400Y-114783842D02*
X103577400Y-115022600D01*
X103580534Y-114756027D02*
X103577400Y-114783842D01*
X103589778Y-114729607D02*
X103580534Y-114756027D01*
X103604671Y-114705906D02*
X103589778Y-114729607D01*
X103624463Y-114686114D02*
X103604671Y-114705906D01*
X103648164Y-114671221D02*
X103624463Y-114686114D01*
X103674584Y-114661977D02*
X103648164Y-114671221D01*
X103702400Y-114658842D02*
X103674584Y-114661977D01*
X103952400Y-114658842D02*
X103702400Y-114658842D01*
X103980215Y-114661977D02*
X103952400Y-114658842D01*
X104006635Y-114671221D02*
X103980215Y-114661977D01*
X104030336Y-114686114D02*
X104006635Y-114671221D01*
X104050128Y-114705906D02*
X104030336Y-114686114D01*
X104065021Y-114729607D02*
X104050128Y-114705906D01*
X104074265Y-114756027D02*
X104065021Y-114729607D01*
X104077400Y-114783842D02*
X104074265Y-114756027D01*
X104077400Y-115022600D02*
X104077400Y-114783842D01*
X104080534Y-115050416D02*
X104077400Y-115022600D01*
X104089778Y-115076836D02*
X104080534Y-115050416D01*
X104104671Y-115100537D02*
X104089778Y-115076836D01*
X104124463Y-115120329D02*
X104104671Y-115100537D01*
X104148164Y-115135222D02*
X104124463Y-115120329D01*
X104174584Y-115144466D02*
X104148164Y-115135222D01*
X104202400Y-115147600D02*
X104174584Y-115144466D01*
X111463128Y-115147600D02*
X104202400Y-115147600D01*
X112209590Y-115894063D02*
X111463128Y-115147600D01*
X112268295Y-115940878D02*
X112209590Y-115894063D01*
X112335944Y-115973456D02*
X112268295Y-115940878D01*
X112409147Y-115990164D02*
X112335944Y-115973456D01*
X112484232Y-115990164D02*
X112409147Y-115990164D01*
X112557435Y-115973456D02*
X112484232Y-115990164D01*
X112625085Y-115940878D02*
X112557435Y-115973456D01*
X112683789Y-115894063D02*
X112625085Y-115940878D01*
X112817708Y-115760145D02*
X112683789Y-115894063D01*
X112923300Y-115675938D02*
X112817708Y-115760145D01*
X113044982Y-115617339D02*
X112923300Y-115675938D01*
X113176653Y-115587286D02*
X113044982Y-115617339D01*
X113311709Y-115587286D02*
X113176653Y-115587286D01*
X113443380Y-115617339D02*
X113311709Y-115587286D01*
X113565062Y-115675938D02*
X113443380Y-115617339D01*
X113670654Y-115760145D02*
X113565062Y-115675938D01*
X113740343Y-115829834D02*
X113670654Y-115760145D01*
X113824550Y-115935426D02*
X113740343Y-115829834D01*
X113883149Y-116057108D02*
X113824550Y-115935426D01*
X113913201Y-116188779D02*
X113883149Y-116057108D01*
X113913201Y-116323835D02*
X113913201Y-116188779D01*
X113883149Y-116455506D02*
X113913201Y-116323835D01*
X113824550Y-116577188D02*
X113883149Y-116455506D01*
X113740343Y-116682779D02*
X113824550Y-116577188D01*
X113261561Y-117161561D02*
X113740343Y-116682779D01*
X113261563Y-117161562D02*
X113261561Y-117161561D01*
X112808935Y-117614189D02*
X113261563Y-117161562D01*
X112762121Y-117672894D02*
X112808935Y-117614189D01*
X112729543Y-117740544D02*
X112762121Y-117672894D01*
X112712834Y-117813747D02*
X112729543Y-117740544D01*
X112712833Y-117888831D02*
X112712834Y-117813747D01*
X112729542Y-117962034D02*
X112712833Y-117888831D01*
X112762120Y-118029684D02*
X112729542Y-117962034D01*
X112808936Y-118088389D02*
X112762120Y-118029684D01*
X112826317Y-118105770D02*
X112808936Y-118088389D01*
X112885020Y-118152584D02*
X112826317Y-118105770D01*
X114725925Y-117001502D02*
X114590869Y-117001502D01*
X115327417Y-117602995D02*
X115297365Y-117471324D01*
X114590869Y-117001502D02*
X114459198Y-117031555D01*
X115327417Y-117738051D02*
X115327417Y-117602995D01*
X115297365Y-117471324D02*
X115238766Y-117349642D01*
X114337516Y-117090154D02*
X114231924Y-117174361D01*
X114240533Y-119519986D02*
X114223152Y-119502605D01*
X114223151Y-119028405D02*
X114675779Y-118575778D01*
X115084870Y-117174361D02*
X114979278Y-117090154D01*
X115297365Y-117869722D02*
X115327417Y-117738051D01*
X115238766Y-117991404D02*
X115297365Y-117869722D01*
X113300515Y-118105770D02*
X113241810Y-118152584D01*
X114231924Y-117174361D02*
X113300515Y-118105770D01*
X114675777Y-118575777D02*
X114783541Y-118468014D01*
X128800000Y-129420000D02*
X128800000Y-129945001D01*
X128800000Y-129945001D02*
X128847600Y-129992601D01*
X128847600Y-129992601D02*
X128847600Y-130336872D01*
X128847600Y-130336872D02*
X128736872Y-130447600D01*
X128736872Y-130447600D02*
X126763128Y-130447600D01*
X126763128Y-130447600D02*
X117857763Y-121542236D01*
X117857763Y-121542236D02*
X117810948Y-121483532D01*
X117810948Y-121483532D02*
X117778370Y-121415882D01*
X117778370Y-121415882D02*
X117761662Y-121342679D01*
X117761662Y-121342679D02*
X117761662Y-121267594D01*
X117761662Y-121267594D02*
X117778370Y-121194391D01*
X117778370Y-121194391D02*
X117810948Y-121126741D01*
X117810948Y-121126741D02*
X117857763Y-121068037D01*
X117857763Y-121068037D02*
X117991681Y-120934118D01*
X117991681Y-120934118D02*
X118075888Y-120828526D01*
X118075888Y-120828526D02*
X118134487Y-120706844D01*
X118134487Y-120706844D02*
X118164540Y-120575174D01*
X118164540Y-120575174D02*
X118164540Y-120440117D01*
X118164540Y-120440117D02*
X118134487Y-120308446D01*
X118134487Y-120308446D02*
X118075888Y-120186764D01*
X118075888Y-120186764D02*
X117991681Y-120081173D01*
X117991681Y-120081173D02*
X117921992Y-120011483D01*
X117921992Y-120011483D02*
X117816400Y-119927276D01*
X117816400Y-119927276D02*
X117694718Y-119868677D01*
X117694718Y-119868677D02*
X117563047Y-119838624D01*
X117563047Y-119838624D02*
X117427991Y-119838624D01*
X117427991Y-119838624D02*
X117296320Y-119868677D01*
X117296320Y-119868677D02*
X117174638Y-119927276D01*
X117174638Y-119927276D02*
X117069046Y-120011483D01*
X117069046Y-120011483D02*
X116590264Y-120490264D01*
X116590264Y-120490264D02*
X116581574Y-120481574D01*
X116581574Y-120481574D02*
X116128947Y-120934202D01*
X116128947Y-120934202D02*
X116070242Y-120981016D01*
X116070242Y-120981016D02*
X116002593Y-121013596D01*
X116002593Y-121013596D02*
X115929391Y-121030304D01*
X115929391Y-121030304D02*
X115854305Y-121030304D01*
X115854305Y-121030304D02*
X115781101Y-121013595D01*
X115781101Y-121013595D02*
X115713452Y-120981016D01*
X115713452Y-120981016D02*
X115654749Y-120934202D01*
X115654749Y-120934202D02*
X115637368Y-120916821D01*
X115637368Y-120916821D02*
X115590552Y-120858116D01*
X115590552Y-120858116D02*
X115557974Y-120790466D01*
X115557974Y-120790466D02*
X115541265Y-120717263D01*
X115541265Y-120717263D02*
X115541266Y-120642179D01*
X115541266Y-120642179D02*
X115557975Y-120568976D01*
X115557975Y-120568976D02*
X115590553Y-120501326D01*
X115590553Y-120501326D02*
X115637367Y-120442621D01*
X115637367Y-120442621D02*
X116089995Y-119989994D01*
X116089995Y-119989994D02*
X116089993Y-119989993D01*
X116089993Y-119989993D02*
X116197757Y-119882230D01*
X116197757Y-119882230D02*
X116568775Y-119511211D01*
X116568775Y-119511211D02*
X116652982Y-119405620D01*
X116652982Y-119405620D02*
X116711581Y-119283938D01*
X116711581Y-119283938D02*
X116741633Y-119152267D01*
X116741633Y-119152267D02*
X116741633Y-119017211D01*
X116741633Y-119017211D02*
X116711581Y-118885540D01*
X116711581Y-118885540D02*
X116652982Y-118763858D01*
X116652982Y-118763858D02*
X116568775Y-118658266D01*
X116568775Y-118658266D02*
X116499086Y-118588577D01*
X116499086Y-118588577D02*
X116393494Y-118504370D01*
X116393494Y-118504370D02*
X116271812Y-118445771D01*
X116271812Y-118445771D02*
X116140141Y-118415718D01*
X116140141Y-118415718D02*
X116005085Y-118415718D01*
X116005085Y-118415718D02*
X115873414Y-118445771D01*
X115873414Y-118445771D02*
X115751732Y-118504370D01*
X115751732Y-118504370D02*
X115646140Y-118588577D01*
X115646140Y-118588577D02*
X114714731Y-119519986D01*
X114714731Y-119519986D02*
X114656026Y-119566800D01*
X114656026Y-119566800D02*
X114588377Y-119599380D01*
X114588377Y-119599380D02*
X114515175Y-119616088D01*
X114515175Y-119616088D02*
X114440089Y-119616088D01*
X114440089Y-119616088D02*
X114366885Y-119599379D01*
X114366885Y-119599379D02*
X114299236Y-119566800D01*
X114299236Y-119566800D02*
X114240533Y-119519986D01*
X114223152Y-119502605D02*
X114176336Y-119443900D01*
X114176336Y-119443900D02*
X114143758Y-119376250D01*
X114143758Y-119376250D02*
X114127049Y-119303047D01*
X114127049Y-119303047D02*
X114127050Y-119227963D01*
X114127050Y-119227963D02*
X114143759Y-119154760D01*
X114143759Y-119154760D02*
X114176337Y-119087110D01*
X114176337Y-119087110D02*
X114223151Y-119028405D01*
X114675779Y-118575778D02*
X114675777Y-118575777D01*
X114783541Y-118468014D02*
X115154559Y-118096995D01*
X115154559Y-118096995D02*
X115238766Y-117991404D01*
X115238766Y-117349642D02*
X115154559Y-117244050D01*
X115154559Y-117244050D02*
X115084870Y-117174361D01*
X114979278Y-117090154D02*
X114857596Y-117031555D01*
X114857596Y-117031555D02*
X114725925Y-117001502D01*
X114459198Y-117031555D02*
X114337516Y-117090154D01*
X113241810Y-118152584D02*
X113174161Y-118185164D01*
X113174161Y-118185164D02*
X113100959Y-118201872D01*
X113100959Y-118201872D02*
X113025873Y-118201872D01*
X113025873Y-118201872D02*
X112952669Y-118185163D01*
X112952669Y-118185163D02*
X112885020Y-118152584D01*
G04 #@! TO.N,/E0_TR0+*
X113578055Y-116145561D02*
X113545476Y-116077912D01*
X113594763Y-116218764D02*
X113578055Y-116145561D01*
X113545476Y-116434702D02*
X113578055Y-116367052D01*
X113498661Y-116493406D02*
X113545476Y-116434702D01*
X112593408Y-117398663D02*
X113283133Y-116708934D01*
X112424448Y-117652091D02*
X112483046Y-117530408D01*
X112394395Y-117783762D02*
X112424448Y-117652091D01*
X112394395Y-117918818D02*
X112394395Y-117783762D01*
X112424448Y-118050489D02*
X112394395Y-117918818D01*
X112483046Y-118172170D02*
X112424448Y-118050489D01*
X112567254Y-118277763D02*
X112483046Y-118172170D01*
X112636943Y-118347452D02*
X112567254Y-118277763D01*
X112742534Y-118431658D02*
X112636943Y-118347452D01*
X112995887Y-118520309D02*
X112864217Y-118490258D01*
X113262613Y-118490256D02*
X113130943Y-118520309D01*
X113489887Y-118347451D02*
X113384296Y-118431658D01*
X114421297Y-117416043D02*
X113489887Y-118347451D01*
X114480001Y-117369228D02*
X114421297Y-117416043D01*
X114547651Y-117336650D02*
X114480001Y-117369228D01*
X114620854Y-117319941D02*
X114547651Y-117336650D01*
X114695939Y-117319941D02*
X114620854Y-117319941D01*
X114912877Y-117433424D02*
X114895496Y-117416043D01*
X113594763Y-116293850D02*
X113594763Y-116218764D01*
X129200000Y-129420000D02*
X129200000Y-129945001D01*
X115008979Y-117632980D02*
X114992271Y-117559777D01*
X115008979Y-117708066D02*
X115008979Y-117632980D01*
X114568014Y-118252486D02*
X114912877Y-117907622D01*
X113981470Y-118839033D02*
X114007624Y-118812879D01*
X113897262Y-118944624D02*
X113981470Y-118839033D01*
X113838664Y-119066307D02*
X113897262Y-118944624D01*
X113808611Y-119197978D02*
X113838664Y-119066307D01*
X113808611Y-119333034D02*
X113808611Y-119197978D01*
X113897262Y-119586386D02*
X113838664Y-119464705D01*
X113981470Y-119691979D02*
X113897262Y-119586386D01*
X114051159Y-119761668D02*
X113981470Y-119691979D01*
X114156750Y-119845874D02*
X114051159Y-119761668D01*
X114278433Y-119904474D02*
X114156750Y-119845874D01*
X114410103Y-119934525D02*
X114278433Y-119904474D01*
X114545159Y-119934525D02*
X114410103Y-119934525D01*
X114676829Y-119904472D02*
X114545159Y-119934525D01*
X114798512Y-119845874D02*
X114676829Y-119904472D01*
X114904103Y-119761667D02*
X114798512Y-119845874D01*
X115835513Y-118830259D02*
X114904103Y-119761667D01*
X115894217Y-118783444D02*
X115835513Y-118830259D01*
X115961867Y-118750866D02*
X115894217Y-118783444D01*
X116035070Y-118734157D02*
X115961867Y-118750866D01*
X116110155Y-118734157D02*
X116035070Y-118734157D01*
X116183358Y-118750866D02*
X116110155Y-118734157D01*
X116251008Y-118783444D02*
X116183358Y-118750866D01*
X116309712Y-118830259D02*
X116251008Y-118783444D01*
X116327093Y-118847640D02*
X116309712Y-118830259D01*
X116373908Y-118906344D02*
X116327093Y-118847640D01*
X117384774Y-120173772D02*
X117317124Y-120206350D01*
X117457977Y-120157063D02*
X117384774Y-120173772D01*
X114007624Y-118812879D02*
X114568014Y-118252486D01*
X117846101Y-120470103D02*
X117829393Y-120396900D01*
X116373908Y-119263134D02*
X116406487Y-119195484D01*
X117606265Y-120173772D02*
X117533062Y-120157063D01*
X117846101Y-120545188D02*
X117846101Y-120470103D01*
X115982230Y-119666702D02*
X116327093Y-119321838D01*
X114895496Y-117416043D02*
X114836792Y-117369228D01*
X117829393Y-120396900D02*
X117796815Y-120329251D01*
X116318319Y-121175883D02*
X116212728Y-121260090D01*
X117796815Y-120686041D02*
X117829393Y-120618391D01*
X114912877Y-117907622D02*
X114959692Y-117848918D01*
X114769142Y-117336650D02*
X114695939Y-117319941D01*
X117750000Y-120744745D02*
X117796815Y-120686041D01*
X113283133Y-116708934D02*
X113498661Y-116493406D01*
X117473276Y-121105937D02*
X117531875Y-120984256D01*
X115692649Y-121318690D02*
X115570966Y-121260090D01*
X117732619Y-120253165D02*
X117673915Y-120206350D01*
X114836792Y-117369228D02*
X114769142Y-117336650D01*
X117616081Y-120878664D02*
X117642236Y-120852510D01*
X115311478Y-121000602D02*
X115252880Y-120878921D01*
X112864217Y-118490258D02*
X112742534Y-118431658D01*
X117829393Y-120618391D02*
X117846101Y-120545188D01*
X113578055Y-116367052D02*
X113594763Y-116293850D01*
X117473276Y-121504335D02*
X117443223Y-121372665D01*
X116423195Y-119122282D02*
X116423195Y-119047196D01*
X117642236Y-120852510D02*
X117750000Y-120744745D01*
X115222827Y-120747250D02*
X115222827Y-120612194D01*
X129200000Y-129945001D02*
X129152400Y-129992601D01*
X117533062Y-120157063D02*
X117457977Y-120157063D01*
X113384296Y-118431658D02*
X113262613Y-118490256D01*
X129152400Y-129992601D02*
X129152400Y-130463128D01*
X116212728Y-121260090D02*
X116091045Y-121318688D01*
X113838664Y-119464705D02*
X113808611Y-119333034D01*
X128863128Y-130752400D02*
X126636872Y-130752400D01*
X116406487Y-119195484D02*
X116423195Y-119122282D01*
X114992271Y-117781268D02*
X115008979Y-117708066D01*
X126636872Y-130752400D02*
X117616081Y-121731609D01*
X117673915Y-120206350D02*
X117606265Y-120173772D01*
X113130943Y-118520309D02*
X112995887Y-118520309D01*
X117443223Y-121237608D02*
X117473276Y-121105937D01*
X115959375Y-121348741D02*
X115824319Y-121348741D01*
X114959692Y-117848918D02*
X114992271Y-117781268D01*
X117616081Y-121731609D02*
X117531875Y-121626017D01*
X116689337Y-120804864D02*
X116318319Y-121175883D01*
X112483046Y-117530408D02*
X112567254Y-117424817D01*
X129152400Y-130463128D02*
X128863128Y-130752400D01*
X117531875Y-121626017D02*
X117473276Y-121504335D01*
X116797101Y-120697101D02*
X116689337Y-120804864D01*
X117796815Y-120329251D02*
X117750000Y-120270546D01*
X117750000Y-120270546D02*
X117732619Y-120253165D01*
X115311478Y-120358840D02*
X115395686Y-120253249D01*
X114992271Y-117559777D02*
X114959692Y-117492128D01*
X117443223Y-121372665D02*
X117443223Y-121237608D01*
X116327093Y-119321838D02*
X116373908Y-119263134D01*
X114959692Y-117492128D02*
X114912877Y-117433424D01*
X117531875Y-120984256D02*
X117616081Y-120878664D01*
X117317124Y-120206350D02*
X117258420Y-120253165D01*
X117258420Y-120253165D02*
X116913556Y-120598028D01*
X112567254Y-117424817D02*
X112593408Y-117398663D01*
X116913556Y-120598028D02*
X116805792Y-120705792D01*
X116805792Y-120705792D02*
X116797101Y-120697101D01*
X116091045Y-121318688D02*
X115959375Y-121348741D01*
X115824319Y-121348741D02*
X115692649Y-121318690D01*
X115570966Y-121260090D02*
X115465375Y-121175884D01*
X115465375Y-121175884D02*
X115395686Y-121106195D01*
X115395686Y-121106195D02*
X115311478Y-121000602D01*
X115252880Y-120878921D02*
X115222827Y-120747250D01*
X115222827Y-120612194D02*
X115252880Y-120480523D01*
X115252880Y-120480523D02*
X115311478Y-120358840D01*
X115395686Y-120253249D02*
X115421840Y-120227095D01*
X115421840Y-120227095D02*
X115982230Y-119666702D01*
X116423195Y-119047196D02*
X116406487Y-118973993D01*
X116406487Y-118973993D02*
X116373908Y-118906344D01*
X113545476Y-116077912D02*
X113498661Y-116019208D01*
X113498661Y-116019208D02*
X113481280Y-116001827D01*
X113481280Y-116001827D02*
X113422576Y-115955012D01*
X113422576Y-115955012D02*
X113354926Y-115922434D01*
X113354926Y-115922434D02*
X113281723Y-115905725D01*
X113281723Y-115905725D02*
X113206638Y-115905725D01*
X113206638Y-115905725D02*
X113133435Y-115922434D01*
X113133435Y-115922434D02*
X113065785Y-115955012D01*
X113065785Y-115955012D02*
X113007081Y-116001827D01*
X113007081Y-116001827D02*
X112873162Y-116135745D01*
X112873162Y-116135745D02*
X112767570Y-116219952D01*
X112767570Y-116219952D02*
X112645888Y-116278551D01*
X112645888Y-116278551D02*
X112514218Y-116308604D01*
X112514218Y-116308604D02*
X112379161Y-116308604D01*
X112379161Y-116308604D02*
X112247490Y-116278551D01*
X112247490Y-116278551D02*
X112125808Y-116219952D01*
X112125808Y-116219952D02*
X112020217Y-116135745D01*
X112020217Y-116135745D02*
X111994062Y-116109591D01*
X111994062Y-116109591D02*
X111336872Y-115452400D01*
X111336872Y-115452400D02*
X102338127Y-115452400D01*
X102338127Y-115452400D02*
X101715000Y-116075527D01*
X101715000Y-116075527D02*
X101715000Y-118400000D01*
G04 #@! TO.N,/~E0_LEDR*
X105100000Y-123975000D02*
X113825000Y-123975000D01*
X130800000Y-132500000D02*
X130800000Y-131997600D01*
X130800000Y-131997600D02*
X131000000Y-131797600D01*
X131000000Y-131797600D02*
X131000000Y-131299990D01*
G04 #@! TO.N,/~E0_LEDL*
X85475000Y-123875000D02*
X85400000Y-123800000D01*
X86800000Y-123875000D02*
X85475000Y-123875000D01*
X111399996Y-122600000D02*
X111400000Y-122600004D01*
X108200000Y-122600000D02*
X111399996Y-122600000D01*
X130400000Y-132500000D02*
X130400000Y-131800000D01*
D31*
G04 #@! TO.N,+5V*
X103050000Y-102600000D02*
X103050000Y-104700000D01*
X105050000Y-100600000D02*
X103050000Y-102600000D01*
X105062500Y-100600000D02*
X105050000Y-100600000D01*
X103050000Y-104700000D02*
X102000000Y-104700000D01*
X103050000Y-102600000D02*
X102000000Y-102600000D01*
D29*
X89212500Y-111300000D02*
X88300000Y-111300000D01*
X142900000Y-133400000D02*
X143400000Y-133400000D01*
X144400000Y-132500000D02*
X144000000Y-132500000D01*
X144000000Y-132500000D02*
X143600000Y-132500000D01*
X143600000Y-132500000D02*
X143200000Y-132500000D01*
X143200000Y-132500000D02*
X142800000Y-132500000D01*
X142800000Y-132500000D02*
X142400000Y-132500000D01*
G04 #@! TO.N,/USB_D-*
X96750000Y-100077600D02*
X96572400Y-99900000D01*
X96750000Y-100810000D02*
X96750000Y-100077600D01*
X96572400Y-99900000D02*
X95900000Y-99900000D01*
X95750000Y-100050000D02*
X95750000Y-100810000D01*
X95900000Y-99900000D02*
X95750000Y-100050000D01*
X96350000Y-102450000D02*
X96350000Y-103625000D01*
X96750000Y-102050000D02*
X96350000Y-102450000D01*
X96750000Y-100810000D02*
X96750000Y-102050000D01*
X127647600Y-99152601D02*
X127600000Y-99105001D01*
X117536872Y-100647600D02*
X127036872Y-100647600D01*
X111184472Y-107000000D02*
X117536872Y-100647600D01*
X98515527Y-107000000D02*
X111184472Y-107000000D01*
X97795196Y-106279669D02*
X98515527Y-107000000D01*
X97765599Y-106232566D02*
X97777744Y-106257785D01*
X97759372Y-106177286D02*
X97759372Y-106205278D01*
X97795196Y-106102893D02*
X97777744Y-106124777D01*
X97873430Y-106024662D02*
X97795196Y-106102893D01*
X97903026Y-105977557D02*
X97890882Y-106002778D01*
X97765599Y-106149996D02*
X97759372Y-106177286D01*
X97183776Y-105295672D02*
X97166324Y-105317556D01*
X127600000Y-99105001D02*
X127600000Y-98580000D01*
X97195920Y-105270451D02*
X97183776Y-105295672D01*
X127036872Y-100647600D02*
X127647600Y-100036872D01*
X97202150Y-105215172D02*
X97202149Y-105243162D01*
X97777744Y-106124777D02*
X97765599Y-106149996D01*
X97088090Y-105395787D02*
X97070638Y-105417671D01*
X97195921Y-105187883D02*
X97202150Y-105215172D01*
X96579648Y-105059688D02*
X96604867Y-105071833D01*
X97903027Y-105894989D02*
X97909256Y-105922278D01*
X96915156Y-104928178D02*
X96942444Y-104934405D01*
X96887164Y-104928178D02*
X96915156Y-104928178D01*
X96989547Y-104964002D02*
X97166323Y-105140778D01*
X97264870Y-105749342D02*
X97286754Y-105766794D01*
X96859874Y-104934405D02*
X96887164Y-104928178D01*
X97674769Y-105653656D02*
X97696653Y-105671108D01*
X96350000Y-103625000D02*
X96350000Y-103850001D01*
X97166324Y-105317556D02*
X97088090Y-105395787D01*
X96834655Y-104946550D02*
X96859874Y-104934405D01*
X96967663Y-104946550D02*
X96989547Y-104964002D01*
X97286754Y-105766794D02*
X97311973Y-105778939D01*
X97183776Y-105162664D02*
X97195921Y-105187883D01*
X97052266Y-105470180D02*
X97052266Y-105498172D01*
X97419762Y-105766794D02*
X97441646Y-105749342D01*
X96152400Y-104636872D02*
X96557764Y-105042236D01*
X97890882Y-105869770D02*
X97903027Y-105894989D01*
X97541761Y-105653656D02*
X97566980Y-105641511D01*
X97202149Y-105243162D02*
X97195920Y-105270451D01*
X96604867Y-105071833D02*
X96632155Y-105078060D01*
X97394543Y-105778939D02*
X97419762Y-105766794D01*
X96660147Y-105078061D02*
X96687437Y-105071833D01*
X97052266Y-105498172D02*
X97058493Y-105525460D01*
X96712656Y-105059688D02*
X96734540Y-105042236D01*
X96734540Y-105042236D02*
X96812771Y-104964002D01*
X96687437Y-105071833D02*
X96712656Y-105059688D01*
X97070638Y-105417671D02*
X97058493Y-105442890D01*
X97890882Y-106002778D02*
X97873430Y-106024662D01*
X97058493Y-105442890D02*
X97052266Y-105470180D01*
X96942444Y-104934405D02*
X96967663Y-104946550D01*
X97058493Y-105525460D02*
X97070638Y-105550679D01*
X97070638Y-105550679D02*
X97088090Y-105572563D01*
X97088090Y-105572563D02*
X97264870Y-105749342D01*
X97311973Y-105778939D02*
X97339261Y-105785166D01*
X97166323Y-105140778D02*
X97183776Y-105162664D01*
X97339261Y-105785166D02*
X97367253Y-105785167D01*
X97367253Y-105785167D02*
X97394543Y-105778939D01*
X97777744Y-106257785D02*
X97795196Y-106279669D01*
X97441646Y-105749342D02*
X97519877Y-105671108D01*
X96632155Y-105078060D02*
X96660147Y-105078061D01*
X97519877Y-105671108D02*
X97541761Y-105653656D01*
X97566980Y-105641511D02*
X97594270Y-105635284D01*
X97594270Y-105635284D02*
X97622262Y-105635284D01*
X97622262Y-105635284D02*
X97649550Y-105641511D01*
X96350000Y-103850001D02*
X96152400Y-104047601D01*
X97649550Y-105641511D02*
X97674769Y-105653656D01*
X96152400Y-104047601D02*
X96152400Y-104636872D01*
X97696653Y-105671108D02*
X97873429Y-105847884D01*
X127647600Y-100036872D02*
X127647600Y-99152601D01*
X96557764Y-105042236D02*
X96579648Y-105059688D01*
X97873429Y-105847884D02*
X97890882Y-105869770D01*
X97759372Y-106205278D02*
X97765599Y-106232566D01*
X97909256Y-105922278D02*
X97909255Y-105950268D01*
X96812771Y-104964002D02*
X96834655Y-104946550D01*
X97909255Y-105950268D02*
X97903026Y-105977557D01*
G04 #@! TO.N,/USB_D+*
X95250000Y-101542400D02*
X95407600Y-101700000D01*
X96250000Y-101542400D02*
X96250000Y-100810000D01*
X96092400Y-101700000D02*
X96250000Y-101542400D01*
X95407600Y-101700000D02*
X96092400Y-101700000D01*
X95250000Y-100810000D02*
X95250000Y-101450000D01*
X95250000Y-101450000D02*
X95250000Y-101542400D01*
X95650000Y-102450000D02*
X95650000Y-103625000D01*
X95250000Y-102050000D02*
X95650000Y-102450000D01*
X95250000Y-101450000D02*
X95250000Y-102050000D01*
X127952400Y-100163128D02*
X127952400Y-99152601D01*
X127952400Y-99152601D02*
X128000000Y-99105001D01*
X127163128Y-100952400D02*
X127952400Y-100163128D01*
X117663128Y-100952400D02*
X127163128Y-100952400D01*
X111315528Y-107300000D02*
X117663128Y-100952400D01*
X98384472Y-107300000D02*
X111315528Y-107300000D01*
X95847600Y-104763128D02*
X98384472Y-107300000D01*
X95847600Y-104047601D02*
X95847600Y-104763128D01*
X128000000Y-99105001D02*
X128000000Y-98580000D01*
X95650000Y-103850001D02*
X95847600Y-104047601D01*
X95650000Y-103625000D02*
X95650000Y-103850001D01*
G04 #@! TO.N,Net-(J3-Pad14)*
X106075000Y-125625000D02*
X106100000Y-125600000D01*
X105100000Y-125625000D02*
X106075000Y-125625000D01*
G04 #@! TO.N,Net-(J3-Pad12)*
X85425000Y-125525000D02*
X85400000Y-125500000D01*
X86800000Y-125525000D02*
X85425000Y-125525000D01*
D31*
G04 #@! TO.N,Net-(C3-Pad1)*
X96635000Y-117130000D02*
X95365000Y-115860000D01*
X96635000Y-118400000D02*
X96635000Y-117130000D01*
X95365000Y-115860000D02*
X93605000Y-114100000D01*
X93605000Y-114100000D02*
X89100000Y-114100000D01*
X86950000Y-116250000D02*
X86950000Y-118000000D01*
X89100000Y-114100000D02*
X86950000Y-116250000D01*
G04 #@! TO.N,Net-(D2-Pad1)*
X92175000Y-109300000D02*
X90787500Y-109300000D01*
G04 #@! TO.N,Net-(D3-Pad1)*
X90787500Y-107300000D02*
X92175000Y-107300000D01*
D29*
G04 #@! TO.N,/SD_PWR*
X89212500Y-105300000D02*
X88300000Y-105300000D01*
D31*
X88900000Y-98900000D02*
X88900000Y-100600000D01*
X90209610Y-97590390D02*
X88900000Y-98900000D01*
X104590390Y-97590390D02*
X90209610Y-97590390D01*
X108400000Y-101400000D02*
X104590390Y-97590390D01*
X114800000Y-99000000D02*
X112400000Y-101400000D01*
X120000000Y-99000000D02*
X114800000Y-99000000D01*
X121000000Y-98000000D02*
X120000000Y-99000000D01*
D30*
X88900000Y-100600000D02*
X88900000Y-101500000D01*
D31*
X111300000Y-101400000D02*
X108400000Y-101400000D01*
X111600000Y-101400000D02*
X111300000Y-101400000D01*
X112400000Y-101400000D02*
X111600000Y-101400000D01*
G04 #@! TO.N,Net-(D4-Pad1)*
X92175000Y-105300000D02*
X90787500Y-105300000D01*
D32*
G04 #@! TO.N,/SD_PWR_ON*
X142000000Y-132198382D02*
X142400000Y-131798382D01*
X142000000Y-132500000D02*
X142000000Y-132198382D01*
D29*
X87950000Y-103000000D02*
X87950000Y-102450000D01*
X87475000Y-101975000D02*
X86300000Y-101975000D01*
X87950000Y-102450000D02*
X87475000Y-101975000D01*
X109800000Y-103900006D02*
X112199994Y-103900006D01*
X112199994Y-103900006D02*
X116200006Y-99899994D01*
X116200006Y-99899994D02*
X125500000Y-99899994D01*
X86300000Y-101975000D02*
X86300000Y-101200010D01*
X86300000Y-101200010D02*
X86800000Y-100700010D01*
G04 #@! TO.N,/PI_LED_nACT*
X95400000Y-107300000D02*
X97400000Y-109300000D01*
X97400000Y-109300000D02*
X103700000Y-109300000D01*
X93825000Y-107300000D02*
X95400000Y-107300000D01*
X131200000Y-131997600D02*
X131700000Y-131497600D01*
X131700000Y-131497600D02*
X131700000Y-131300000D01*
X131200000Y-132500000D02*
X131200000Y-131997600D01*
G04 #@! TO.N,/PI_nRPI_BOOT*
X83825000Y-108500000D02*
X84800000Y-108500000D01*
X84800000Y-108500000D02*
X84800000Y-108499988D01*
X101000000Y-108500000D02*
X102999996Y-108500000D01*
X102999996Y-108500000D02*
X103000000Y-108500004D01*
X137699992Y-130500000D02*
X136800000Y-131399992D01*
X145600000Y-132500000D02*
X145600000Y-131700000D01*
X144400000Y-130500000D02*
X137699992Y-130500000D01*
X145600000Y-131700000D02*
X144400000Y-130500000D01*
G04 #@! TO.N,/PI_GLOBAL_EN*
X83825000Y-114600000D02*
X84600000Y-114600000D01*
X113600000Y-111200000D02*
X96800000Y-111200000D01*
X95499996Y-112500004D02*
X88300000Y-112500004D01*
X96800000Y-111200000D02*
X95499996Y-112500004D01*
X137300000Y-130100000D02*
X136000000Y-131400000D01*
X144902400Y-130100000D02*
X137300000Y-130100000D01*
X146800000Y-131997600D02*
X144902400Y-130100000D01*
X146800000Y-132500000D02*
X146800000Y-131997600D01*
D31*
G04 #@! TO.N,Net-(R9-Pad1)*
X81300000Y-106700000D02*
X81300000Y-105000000D01*
X82175000Y-107575000D02*
X81300000Y-106700000D01*
X82175000Y-108500000D02*
X82175000Y-107575000D01*
G04 #@! TO.N,Net-(R11-Pad1)*
X82175000Y-113375000D02*
X82175000Y-114600000D01*
X81300000Y-112500000D02*
X82175000Y-113375000D01*
X81300000Y-111000000D02*
X81300000Y-112500000D01*
D32*
G04 #@! TO.N,Net-(JP1-Pad2)*
X142502834Y-131099994D02*
X143600000Y-131099994D01*
X141600000Y-132002828D02*
X142502834Y-131099994D01*
X141600000Y-132500000D02*
X141600000Y-132002828D01*
G04 #@! TO.N,Net-(JP2-Pad2)*
X144800000Y-132500000D02*
X144800000Y-131800000D01*
G04 #@! TO.N,Net-(JP3-Pad2)*
X145200000Y-133199994D02*
X145199994Y-133200000D01*
X145200000Y-132500000D02*
X145200000Y-133199994D01*
G04 #@! TO.N,Net-(JP4-Pad2)*
X130800000Y-129420000D02*
X130800000Y-128600000D01*
X130800000Y-128600000D02*
X132799998Y-126600002D01*
X132799998Y-126600002D02*
X142500000Y-126600002D01*
D31*
G04 #@! TO.N,Net-(C5-Pad1)*
X102339999Y-96060000D02*
X102399999Y-96000000D01*
X100320000Y-96060000D02*
X102339999Y-96060000D01*
D29*
G04 #@! TO.N,/USB_OTG_ID*
X159400000Y-107000000D02*
X149400000Y-97000000D01*
X149400000Y-97000000D02*
X127800000Y-97000000D01*
X127200000Y-97600000D02*
X127200000Y-98580000D01*
X127800000Y-97000000D02*
X127200000Y-97600000D01*
X163750000Y-107000000D02*
X159400000Y-107000000D01*
G04 #@! TD*
G04 #@! TO.N,+5V*
X142423800Y-132474600D02*
X142776200Y-132474600D01*
X142776200Y-132454600D01*
X142823800Y-132454600D01*
X142823800Y-132474600D01*
X143176200Y-132474600D01*
X143176200Y-132454600D01*
X143223800Y-132454600D01*
X143223800Y-132474600D01*
X143576200Y-132474600D01*
X143576200Y-132454600D01*
X143623800Y-132454600D01*
X143623800Y-132474600D01*
X143976200Y-132474600D01*
X143976200Y-132454600D01*
X144023800Y-132454600D01*
X144023800Y-132474600D01*
X144376200Y-132474600D01*
X144376200Y-132454600D01*
X144413276Y-132454600D01*
X144423800Y-132507506D01*
X144423800Y-133592494D01*
X144412997Y-133646805D01*
X144386484Y-133686484D01*
X144346805Y-133712997D01*
X144292494Y-133723800D01*
X142507506Y-133723800D01*
X142453195Y-133712997D01*
X142413516Y-133686484D01*
X142387003Y-133646805D01*
X142376200Y-133592494D01*
X142376200Y-132525400D01*
X142423800Y-132525400D01*
X142423800Y-133021450D01*
X142480950Y-133078600D01*
X142500000Y-133079706D01*
X142544813Y-133075292D01*
X142587905Y-133062221D01*
X142600000Y-133055756D01*
X142612095Y-133062221D01*
X142655187Y-133075292D01*
X142700000Y-133079706D01*
X142719050Y-133078600D01*
X142776200Y-133021450D01*
X142776200Y-132525400D01*
X142823800Y-132525400D01*
X142823800Y-133021450D01*
X142880950Y-133078600D01*
X142900000Y-133079706D01*
X142944813Y-133075292D01*
X142987905Y-133062221D01*
X143000000Y-133055756D01*
X143012095Y-133062221D01*
X143055187Y-133075292D01*
X143100000Y-133079706D01*
X143119050Y-133078600D01*
X143176200Y-133021450D01*
X143176200Y-132525400D01*
X143223800Y-132525400D01*
X143223800Y-133021450D01*
X143280950Y-133078600D01*
X143300000Y-133079706D01*
X143344813Y-133075292D01*
X143387905Y-133062221D01*
X143400000Y-133055756D01*
X143412095Y-133062221D01*
X143455187Y-133075292D01*
X143500000Y-133079706D01*
X143519050Y-133078600D01*
X143576200Y-133021450D01*
X143576200Y-132525400D01*
X143623800Y-132525400D01*
X143623800Y-133021450D01*
X143680950Y-133078600D01*
X143700000Y-133079706D01*
X143744813Y-133075292D01*
X143787905Y-133062221D01*
X143800000Y-133055756D01*
X143812095Y-133062221D01*
X143855187Y-133075292D01*
X143900000Y-133079706D01*
X143919050Y-133078600D01*
X143976200Y-133021450D01*
X143976200Y-132525400D01*
X144023800Y-132525400D01*
X144023800Y-133021450D01*
X144080950Y-133078600D01*
X144100000Y-133079706D01*
X144144813Y-133075292D01*
X144187905Y-133062221D01*
X144200000Y-133055756D01*
X144212095Y-133062221D01*
X144255187Y-133075292D01*
X144300000Y-133079706D01*
X144319050Y-133078600D01*
X144376200Y-133021450D01*
X144376200Y-132525400D01*
X144023800Y-132525400D01*
X143976200Y-132525400D01*
X143623800Y-132525400D01*
X143576200Y-132525400D01*
X143223800Y-132525400D01*
X143176200Y-132525400D01*
X142823800Y-132525400D01*
X142776200Y-132525400D01*
X142423800Y-132525400D01*
X142376200Y-132525400D01*
X142376200Y-132507506D01*
X142386724Y-132454600D01*
X142423800Y-132454600D01*
X142423800Y-132474600D01*
G04 #@! TA.AperFunction,Conductor*
D33*
G36*
X142423800Y-132474600D02*
G01*
X142776200Y-132474600D01*
X142776200Y-132454600D01*
X142823800Y-132454600D01*
X142823800Y-132474600D01*
X143176200Y-132474600D01*
X143176200Y-132454600D01*
X143223800Y-132454600D01*
X143223800Y-132474600D01*
X143576200Y-132474600D01*
X143576200Y-132454600D01*
X143623800Y-132454600D01*
X143623800Y-132474600D01*
X143976200Y-132474600D01*
X143976200Y-132454600D01*
X144023800Y-132454600D01*
X144023800Y-132474600D01*
X144376200Y-132474600D01*
X144376200Y-132454600D01*
X144413276Y-132454600D01*
X144423800Y-132507506D01*
X144423800Y-133592494D01*
X144412997Y-133646805D01*
X144386484Y-133686484D01*
X144346805Y-133712997D01*
X144292494Y-133723800D01*
X142507506Y-133723800D01*
X142453195Y-133712997D01*
X142413516Y-133686484D01*
X142387003Y-133646805D01*
X142376200Y-133592494D01*
X142376200Y-132525400D01*
X142423800Y-132525400D01*
X142423800Y-133021450D01*
X142480950Y-133078600D01*
X142500000Y-133079706D01*
X142544813Y-133075292D01*
X142587905Y-133062221D01*
X142600000Y-133055756D01*
X142612095Y-133062221D01*
X142655187Y-133075292D01*
X142700000Y-133079706D01*
X142719050Y-133078600D01*
X142776200Y-133021450D01*
X142776200Y-132525400D01*
X142823800Y-132525400D01*
X142823800Y-133021450D01*
X142880950Y-133078600D01*
X142900000Y-133079706D01*
X142944813Y-133075292D01*
X142987905Y-133062221D01*
X143000000Y-133055756D01*
X143012095Y-133062221D01*
X143055187Y-133075292D01*
X143100000Y-133079706D01*
X143119050Y-133078600D01*
X143176200Y-133021450D01*
X143176200Y-132525400D01*
X143223800Y-132525400D01*
X143223800Y-133021450D01*
X143280950Y-133078600D01*
X143300000Y-133079706D01*
X143344813Y-133075292D01*
X143387905Y-133062221D01*
X143400000Y-133055756D01*
X143412095Y-133062221D01*
X143455187Y-133075292D01*
X143500000Y-133079706D01*
X143519050Y-133078600D01*
X143576200Y-133021450D01*
X143576200Y-132525400D01*
X143623800Y-132525400D01*
X143623800Y-133021450D01*
X143680950Y-133078600D01*
X143700000Y-133079706D01*
X143744813Y-133075292D01*
X143787905Y-133062221D01*
X143800000Y-133055756D01*
X143812095Y-133062221D01*
X143855187Y-133075292D01*
X143900000Y-133079706D01*
X143919050Y-133078600D01*
X143976200Y-133021450D01*
X143976200Y-132525400D01*
X144023800Y-132525400D01*
X144023800Y-133021450D01*
X144080950Y-133078600D01*
X144100000Y-133079706D01*
X144144813Y-133075292D01*
X144187905Y-133062221D01*
X144200000Y-133055756D01*
X144212095Y-133062221D01*
X144255187Y-133075292D01*
X144300000Y-133079706D01*
X144319050Y-133078600D01*
X144376200Y-133021450D01*
X144376200Y-132525400D01*
X144023800Y-132525400D01*
X143976200Y-132525400D01*
X143623800Y-132525400D01*
X143576200Y-132525400D01*
X143223800Y-132525400D01*
X143176200Y-132525400D01*
X142823800Y-132525400D01*
X142776200Y-132525400D01*
X142423800Y-132525400D01*
X142376200Y-132525400D01*
X142376200Y-132507506D01*
X142386724Y-132454600D01*
X142423800Y-132454600D01*
X142423800Y-132474600D01*
G37*
G04 #@! TD.AperFunction*
G04 #@! TD*
D29*
G04 #@! TO.N,+3V3*
X144046805Y-128087003D02*
X144086484Y-128113516D01*
X144112997Y-128153195D01*
X144123800Y-128207506D01*
X144123800Y-128842638D01*
X144100000Y-128840294D01*
X144080950Y-128841400D01*
X144023800Y-128898550D01*
X144023800Y-129394600D01*
X144045400Y-129394600D01*
X144045400Y-129413276D01*
X143992494Y-129423800D01*
X143554600Y-129423800D01*
X143554600Y-129394600D01*
X143576200Y-129394600D01*
X143576200Y-128898550D01*
X143623800Y-128898550D01*
X143623800Y-129394600D01*
X143976200Y-129394600D01*
X143976200Y-128898550D01*
X143919050Y-128841400D01*
X143900000Y-128840294D01*
X143855187Y-128844708D01*
X143812095Y-128857779D01*
X143800000Y-128864244D01*
X143787905Y-128857779D01*
X143744813Y-128844708D01*
X143700000Y-128840294D01*
X143680950Y-128841400D01*
X143623800Y-128898550D01*
X143576200Y-128898550D01*
X143519050Y-128841400D01*
X143500000Y-128840294D01*
X143455187Y-128844708D01*
X143412095Y-128857779D01*
X143400000Y-128864244D01*
X143387905Y-128857779D01*
X143344813Y-128844708D01*
X143300000Y-128840294D01*
X143100000Y-128840294D01*
X143055187Y-128844708D01*
X143012095Y-128857779D01*
X143000000Y-128864244D01*
X142987905Y-128857779D01*
X142944813Y-128844708D01*
X142900000Y-128840294D01*
X142700000Y-128840294D01*
X142655187Y-128844708D01*
X142612095Y-128857779D01*
X142600000Y-128864244D01*
X142587905Y-128857779D01*
X142544813Y-128844708D01*
X142500000Y-128840294D01*
X142480950Y-128841400D01*
X142423800Y-128898550D01*
X142423800Y-129394600D01*
X142445400Y-129394600D01*
X142445400Y-129423800D01*
X142407506Y-129423800D01*
X142354600Y-129413276D01*
X142354600Y-129394600D01*
X142376200Y-129394600D01*
X142376200Y-128898550D01*
X142319050Y-128841400D01*
X142300000Y-128840294D01*
X142276200Y-128842638D01*
X142276200Y-128207506D01*
X142287003Y-128153195D01*
X142313516Y-128113516D01*
X142353195Y-128087003D01*
X142407506Y-128076200D01*
X143992494Y-128076200D01*
X144046805Y-128087003D01*
G04 #@! TA.AperFunction,Conductor*
D33*
G36*
X144046805Y-128087003D02*
G01*
X144086484Y-128113516D01*
X144112997Y-128153195D01*
X144123800Y-128207506D01*
X144123800Y-128842638D01*
X144100000Y-128840294D01*
X144080950Y-128841400D01*
X144023800Y-128898550D01*
X144023800Y-129394600D01*
X144045400Y-129394600D01*
X144045400Y-129413276D01*
X143992494Y-129423800D01*
X143554600Y-129423800D01*
X143554600Y-129394600D01*
X143576200Y-129394600D01*
X143576200Y-128898550D01*
X143623800Y-128898550D01*
X143623800Y-129394600D01*
X143976200Y-129394600D01*
X143976200Y-128898550D01*
X143919050Y-128841400D01*
X143900000Y-128840294D01*
X143855187Y-128844708D01*
X143812095Y-128857779D01*
X143800000Y-128864244D01*
X143787905Y-128857779D01*
X143744813Y-128844708D01*
X143700000Y-128840294D01*
X143680950Y-128841400D01*
X143623800Y-128898550D01*
X143576200Y-128898550D01*
X143519050Y-128841400D01*
X143500000Y-128840294D01*
X143455187Y-128844708D01*
X143412095Y-128857779D01*
X143400000Y-128864244D01*
X143387905Y-128857779D01*
X143344813Y-128844708D01*
X143300000Y-128840294D01*
X143100000Y-128840294D01*
X143055187Y-128844708D01*
X143012095Y-128857779D01*
X143000000Y-128864244D01*
X142987905Y-128857779D01*
X142944813Y-128844708D01*
X142900000Y-128840294D01*
X142700000Y-128840294D01*
X142655187Y-128844708D01*
X142612095Y-128857779D01*
X142600000Y-128864244D01*
X142587905Y-128857779D01*
X142544813Y-128844708D01*
X142500000Y-128840294D01*
X142480950Y-128841400D01*
X142423800Y-128898550D01*
X142423800Y-129394600D01*
X142445400Y-129394600D01*
X142445400Y-129423800D01*
X142407506Y-129423800D01*
X142354600Y-129413276D01*
X142354600Y-129394600D01*
X142376200Y-129394600D01*
X142376200Y-128898550D01*
X142319050Y-128841400D01*
X142300000Y-128840294D01*
X142276200Y-128842638D01*
X142276200Y-128207506D01*
X142287003Y-128153195D01*
X142313516Y-128113516D01*
X142353195Y-128087003D01*
X142407506Y-128076200D01*
X143992494Y-128076200D01*
X144046805Y-128087003D01*
G37*
G04 #@! TD.AperFunction*
G04 #@! TD*
M02*
