G04 #@! TF.GenerationSoftware,KiCad,Pcbnew,(5.1.9)-1*
G04 #@! TF.CreationDate,2021-09-18T19:11:12-04:00*
G04 #@! TF.ProjectId,cm4-carrier-net,636d342d-6361-4727-9269-65722d6e6574,v1.0a*
G04 #@! TF.SameCoordinates,Original*
G04 #@! TF.FileFunction,Soldermask,Top*
G04 #@! TF.FilePolarity,Negative*
%FSLAX46Y46*%
G04 Gerber Fmt 4.6, Leading zero omitted, Abs format (unit mm)*
G04 Created by KiCad (PCBNEW (5.1.9)-1) date 2021-09-18 19:11:12*
%MOMM*%
%LPD*%
G01*
G04 APERTURE LIST*
%ADD10C,0.900000*%
%ADD11R,2.500000X1.250000*%
%ADD12R,0.600000X1.160000*%
%ADD13C,0.650000*%
%ADD14R,0.300000X1.160000*%
%ADD15O,0.900000X1.700000*%
%ADD16O,0.900000X2.000000*%
%ADD17C,6.100000*%
%ADD18R,0.200000X0.700000*%
%ADD19R,0.800000X0.900000*%
%ADD20R,0.900000X1.700000*%
%ADD21C,2.200000*%
%ADD22C,1.500000*%
%ADD23C,3.250000*%
%ADD24C,1.524000*%
%ADD25C,0.800000*%
%ADD26C,5.400000*%
%ADD27R,0.300000X0.300000*%
G04 APERTURE END LIST*
D10*
G04 #@! TO.C,SW3*
X166500000Y-103600000D03*
X166500000Y-110400000D03*
D11*
X163750000Y-104500000D03*
X163750000Y-107000000D03*
X163750000Y-109500000D03*
G04 #@! TD*
G04 #@! TO.C,C5*
G36*
G01*
X103799999Y-96475000D02*
X103799999Y-95525000D01*
G75*
G02*
X104049999Y-95275000I250000J0D01*
G01*
X104549999Y-95275000D01*
G75*
G02*
X104799999Y-95525000I0J-250000D01*
G01*
X104799999Y-96475000D01*
G75*
G02*
X104549999Y-96725000I-250000J0D01*
G01*
X104049999Y-96725000D01*
G75*
G02*
X103799999Y-96475000I0J250000D01*
G01*
G37*
G36*
G01*
X101899999Y-96475000D02*
X101899999Y-95525000D01*
G75*
G02*
X102149999Y-95275000I250000J0D01*
G01*
X102649999Y-95275000D01*
G75*
G02*
X102899999Y-95525000I0J-250000D01*
G01*
X102899999Y-96475000D01*
G75*
G02*
X102649999Y-96725000I-250000J0D01*
G01*
X102149999Y-96725000D01*
G75*
G02*
X101899999Y-96475000I0J250000D01*
G01*
G37*
G04 #@! TD*
D12*
G04 #@! TO.C,J1*
X92800000Y-100810000D03*
X93600000Y-100810000D03*
X92800000Y-100810000D03*
X93600000Y-100810000D03*
X99200000Y-100810000D03*
X99200000Y-100810000D03*
X98400000Y-100810000D03*
X98400000Y-100810000D03*
D13*
X98890000Y-99730000D03*
X93110000Y-99730000D03*
D14*
X94250000Y-100810000D03*
X95250000Y-100810000D03*
X94750000Y-100810000D03*
X97250000Y-100810000D03*
X97750000Y-100810000D03*
X95750000Y-100810000D03*
X96250000Y-100810000D03*
X96750000Y-100810000D03*
D15*
X91680000Y-96060000D03*
X100320000Y-96060000D03*
D16*
X91680000Y-100230000D03*
X100320000Y-100230000D03*
G04 #@! TD*
D17*
G04 #@! TO.C,U5*
X110500000Y-130500000D03*
X158500000Y-97500000D03*
X158500000Y-130500000D03*
X110500000Y-97500000D03*
D18*
X127200000Y-132500000D03*
X127200000Y-129420000D03*
X127600000Y-132500000D03*
X127600000Y-129420000D03*
X128000000Y-132500000D03*
X128000000Y-129420000D03*
X128400000Y-132500000D03*
X128400000Y-129420000D03*
X128800000Y-132500000D03*
X128800000Y-129420000D03*
X129200000Y-132500000D03*
X129200000Y-129420000D03*
X129600000Y-132500000D03*
X129600000Y-129420000D03*
X130000000Y-132500000D03*
X130000000Y-129420000D03*
X130400000Y-132500000D03*
X130400000Y-129420000D03*
X130800000Y-132500000D03*
X130800000Y-129420000D03*
X131200000Y-132500000D03*
X131200000Y-129420000D03*
X131600000Y-132500000D03*
X131600000Y-129420000D03*
X132000000Y-132500000D03*
X132000000Y-129420000D03*
X132400000Y-132500000D03*
X132400000Y-129420000D03*
X132800000Y-132500000D03*
X132800000Y-129420000D03*
X133200000Y-132500000D03*
X133200000Y-129420000D03*
X133600000Y-132500000D03*
X133600000Y-129420000D03*
X134000000Y-132500000D03*
X134000000Y-129420000D03*
X134400000Y-132500000D03*
X134400000Y-129420000D03*
X134800000Y-132500000D03*
X134800000Y-129420000D03*
X135200000Y-132500000D03*
X135200000Y-129420000D03*
X135600000Y-132500000D03*
X135600000Y-129420000D03*
X136000000Y-132500000D03*
X136000000Y-129420000D03*
X136400000Y-132500000D03*
X136400000Y-129420000D03*
X136800000Y-132500000D03*
X136800000Y-129420000D03*
X137200000Y-132500000D03*
X137200000Y-129420000D03*
X137600000Y-132500000D03*
X137600000Y-129420000D03*
X138000000Y-132500000D03*
X138000000Y-129420000D03*
X138400000Y-132500000D03*
X138400000Y-129420000D03*
X138800000Y-132500000D03*
X138800000Y-129420000D03*
X139200000Y-132500000D03*
X139200000Y-129420000D03*
X139600000Y-132500000D03*
X139600000Y-129420000D03*
X140000000Y-132500000D03*
X140000000Y-129420000D03*
X140400000Y-132500000D03*
X140400000Y-129420000D03*
X140800000Y-132500000D03*
X140800000Y-129420000D03*
X141200000Y-132500000D03*
X141200000Y-129420000D03*
X141600000Y-132500000D03*
X141600000Y-129420000D03*
X142000000Y-132500000D03*
X142000000Y-129420000D03*
X142400000Y-132500000D03*
X142400000Y-129420000D03*
X142800000Y-132500000D03*
X142800000Y-129420000D03*
X143200000Y-132500000D03*
X143200000Y-129420000D03*
X143600000Y-132500000D03*
X143600000Y-129420000D03*
X144000000Y-132500000D03*
X144000000Y-129420000D03*
X144400000Y-132500000D03*
X144400000Y-129420000D03*
X144800000Y-132500000D03*
X144800000Y-129420000D03*
X145200000Y-132500000D03*
X145200000Y-129420000D03*
X145600000Y-132500000D03*
X145600000Y-129420000D03*
X146000000Y-132500000D03*
X146000000Y-129420000D03*
X146400000Y-132500000D03*
X146400000Y-129420000D03*
X146800000Y-132500000D03*
X146800000Y-129420000D03*
X127200000Y-98580000D03*
X127200000Y-95500000D03*
X127600000Y-98580000D03*
X127600000Y-95500000D03*
X128000000Y-98580000D03*
X128000000Y-95500000D03*
X128400000Y-98580000D03*
X128400000Y-95500000D03*
X128800000Y-98580000D03*
X128800000Y-95500000D03*
X129200000Y-98580000D03*
X129200000Y-95500000D03*
X129600000Y-98580000D03*
X129600000Y-95500000D03*
X130000000Y-98580000D03*
X130000000Y-95500000D03*
X130400000Y-98580000D03*
X130400000Y-95500000D03*
X130800000Y-98580000D03*
X130800000Y-95500000D03*
X131200000Y-98580000D03*
X131200000Y-95500000D03*
X131600000Y-98580000D03*
X131600000Y-95500000D03*
X132000000Y-98580000D03*
X132000000Y-95500000D03*
X132400000Y-98580000D03*
X132400000Y-95500000D03*
X132800000Y-98580000D03*
X132800000Y-95500000D03*
X133200000Y-98580000D03*
X133200000Y-95500000D03*
X133600000Y-98580000D03*
X133600000Y-95500000D03*
X134000000Y-98580000D03*
X134000000Y-95500000D03*
X134400000Y-98580000D03*
X134400000Y-95500000D03*
X134800000Y-98580000D03*
X134800000Y-95500000D03*
X135200000Y-98580000D03*
X135200000Y-95500000D03*
X135600000Y-98580000D03*
X135600000Y-95500000D03*
X136000000Y-98580000D03*
X136000000Y-95500000D03*
X136400000Y-98580000D03*
X136400000Y-95500000D03*
X136800000Y-98580000D03*
X136800000Y-95500000D03*
X137200000Y-98580000D03*
X137200000Y-95500000D03*
X137600000Y-98580000D03*
X137600000Y-95500000D03*
X138000000Y-98580000D03*
X138000000Y-95500000D03*
X138400000Y-98580000D03*
X138400000Y-95500000D03*
X138800000Y-98580000D03*
X138800000Y-95500000D03*
X139200000Y-98580000D03*
X139200000Y-95500000D03*
X139600000Y-98580000D03*
X139600000Y-95500000D03*
X140000000Y-98580000D03*
X140000000Y-95500000D03*
X140400000Y-98580000D03*
X140400000Y-95500000D03*
X140800000Y-98580000D03*
X140800000Y-95500000D03*
X141200000Y-98580000D03*
X141200000Y-95500000D03*
X141600000Y-98580000D03*
X141600000Y-95500000D03*
X142000000Y-98580000D03*
X142000000Y-95500000D03*
X142400000Y-98580000D03*
X142400000Y-95500000D03*
X142800000Y-98580000D03*
X142800000Y-95500000D03*
X143200000Y-98580000D03*
X143200000Y-95500000D03*
X143600000Y-98580000D03*
X143600000Y-95500000D03*
X144000000Y-98580000D03*
X144000000Y-95500000D03*
X144400000Y-98580000D03*
X144400000Y-95500000D03*
X144800000Y-98580000D03*
X144800000Y-95500000D03*
X145200000Y-98580000D03*
X145200000Y-95500000D03*
X145600000Y-98580000D03*
X145600000Y-95500000D03*
X146000000Y-98580000D03*
X146000000Y-95500000D03*
X146400000Y-98580000D03*
X146400000Y-95500000D03*
X146800000Y-98580000D03*
X146800000Y-95500000D03*
G04 #@! TD*
G04 #@! TO.C,D4*
G36*
G01*
X89650000Y-105043750D02*
X89650000Y-105556250D01*
G75*
G02*
X89431250Y-105775000I-218750J0D01*
G01*
X88993750Y-105775000D01*
G75*
G02*
X88775000Y-105556250I0J218750D01*
G01*
X88775000Y-105043750D01*
G75*
G02*
X88993750Y-104825000I218750J0D01*
G01*
X89431250Y-104825000D01*
G75*
G02*
X89650000Y-105043750I0J-218750D01*
G01*
G37*
G36*
G01*
X91225000Y-105043750D02*
X91225000Y-105556250D01*
G75*
G02*
X91006250Y-105775000I-218750J0D01*
G01*
X90568750Y-105775000D01*
G75*
G02*
X90350000Y-105556250I0J218750D01*
G01*
X90350000Y-105043750D01*
G75*
G02*
X90568750Y-104825000I218750J0D01*
G01*
X91006250Y-104825000D01*
G75*
G02*
X91225000Y-105043750I0J-218750D01*
G01*
G37*
G04 #@! TD*
G04 #@! TO.C,D3*
G36*
G01*
X89650000Y-107043750D02*
X89650000Y-107556250D01*
G75*
G02*
X89431250Y-107775000I-218750J0D01*
G01*
X88993750Y-107775000D01*
G75*
G02*
X88775000Y-107556250I0J218750D01*
G01*
X88775000Y-107043750D01*
G75*
G02*
X88993750Y-106825000I218750J0D01*
G01*
X89431250Y-106825000D01*
G75*
G02*
X89650000Y-107043750I0J-218750D01*
G01*
G37*
G36*
G01*
X91225000Y-107043750D02*
X91225000Y-107556250D01*
G75*
G02*
X91006250Y-107775000I-218750J0D01*
G01*
X90568750Y-107775000D01*
G75*
G02*
X90350000Y-107556250I0J218750D01*
G01*
X90350000Y-107043750D01*
G75*
G02*
X90568750Y-106825000I218750J0D01*
G01*
X91006250Y-106825000D01*
G75*
G02*
X91225000Y-107043750I0J-218750D01*
G01*
G37*
G04 #@! TD*
D19*
G04 #@! TO.C,Q1*
X88900000Y-100600000D03*
X89850000Y-103000000D03*
X87950000Y-103000000D03*
G04 #@! TD*
D20*
G04 #@! TO.C,SW2*
X84700000Y-111000000D03*
X81300000Y-111000000D03*
G04 #@! TD*
G04 #@! TO.C,SW1*
X84700000Y-105000000D03*
X81300000Y-105000000D03*
G04 #@! TD*
G04 #@! TO.C,R12*
G36*
G01*
X93425000Y-105575000D02*
X93425000Y-105025000D01*
G75*
G02*
X93625000Y-104825000I200000J0D01*
G01*
X94025000Y-104825000D01*
G75*
G02*
X94225000Y-105025000I0J-200000D01*
G01*
X94225000Y-105575000D01*
G75*
G02*
X94025000Y-105775000I-200000J0D01*
G01*
X93625000Y-105775000D01*
G75*
G02*
X93425000Y-105575000I0J200000D01*
G01*
G37*
G36*
G01*
X91775000Y-105575000D02*
X91775000Y-105025000D01*
G75*
G02*
X91975000Y-104825000I200000J0D01*
G01*
X92375000Y-104825000D01*
G75*
G02*
X92575000Y-105025000I0J-200000D01*
G01*
X92575000Y-105575000D01*
G75*
G02*
X92375000Y-105775000I-200000J0D01*
G01*
X91975000Y-105775000D01*
G75*
G02*
X91775000Y-105575000I0J200000D01*
G01*
G37*
G04 #@! TD*
G04 #@! TO.C,R11*
G36*
G01*
X83425000Y-114875000D02*
X83425000Y-114325000D01*
G75*
G02*
X83625000Y-114125000I200000J0D01*
G01*
X84025000Y-114125000D01*
G75*
G02*
X84225000Y-114325000I0J-200000D01*
G01*
X84225000Y-114875000D01*
G75*
G02*
X84025000Y-115075000I-200000J0D01*
G01*
X83625000Y-115075000D01*
G75*
G02*
X83425000Y-114875000I0J200000D01*
G01*
G37*
G36*
G01*
X81775000Y-114875000D02*
X81775000Y-114325000D01*
G75*
G02*
X81975000Y-114125000I200000J0D01*
G01*
X82375000Y-114125000D01*
G75*
G02*
X82575000Y-114325000I0J-200000D01*
G01*
X82575000Y-114875000D01*
G75*
G02*
X82375000Y-115075000I-200000J0D01*
G01*
X81975000Y-115075000D01*
G75*
G02*
X81775000Y-114875000I0J200000D01*
G01*
G37*
G04 #@! TD*
G04 #@! TO.C,R10*
G36*
G01*
X92575000Y-107025000D02*
X92575000Y-107575000D01*
G75*
G02*
X92375000Y-107775000I-200000J0D01*
G01*
X91975000Y-107775000D01*
G75*
G02*
X91775000Y-107575000I0J200000D01*
G01*
X91775000Y-107025000D01*
G75*
G02*
X91975000Y-106825000I200000J0D01*
G01*
X92375000Y-106825000D01*
G75*
G02*
X92575000Y-107025000I0J-200000D01*
G01*
G37*
G36*
G01*
X94225000Y-107025000D02*
X94225000Y-107575000D01*
G75*
G02*
X94025000Y-107775000I-200000J0D01*
G01*
X93625000Y-107775000D01*
G75*
G02*
X93425000Y-107575000I0J200000D01*
G01*
X93425000Y-107025000D01*
G75*
G02*
X93625000Y-106825000I200000J0D01*
G01*
X94025000Y-106825000D01*
G75*
G02*
X94225000Y-107025000I0J-200000D01*
G01*
G37*
G04 #@! TD*
G04 #@! TO.C,R9*
G36*
G01*
X83425000Y-108775000D02*
X83425000Y-108225000D01*
G75*
G02*
X83625000Y-108025000I200000J0D01*
G01*
X84025000Y-108025000D01*
G75*
G02*
X84225000Y-108225000I0J-200000D01*
G01*
X84225000Y-108775000D01*
G75*
G02*
X84025000Y-108975000I-200000J0D01*
G01*
X83625000Y-108975000D01*
G75*
G02*
X83425000Y-108775000I0J200000D01*
G01*
G37*
G36*
G01*
X81775000Y-108775000D02*
X81775000Y-108225000D01*
G75*
G02*
X81975000Y-108025000I200000J0D01*
G01*
X82375000Y-108025000D01*
G75*
G02*
X82575000Y-108225000I0J-200000D01*
G01*
X82575000Y-108775000D01*
G75*
G02*
X82375000Y-108975000I-200000J0D01*
G01*
X81975000Y-108975000D01*
G75*
G02*
X81775000Y-108775000I0J200000D01*
G01*
G37*
G04 #@! TD*
G04 #@! TO.C,R8*
G36*
G01*
X86025000Y-103225000D02*
X86575000Y-103225000D01*
G75*
G02*
X86775000Y-103425000I0J-200000D01*
G01*
X86775000Y-103825000D01*
G75*
G02*
X86575000Y-104025000I-200000J0D01*
G01*
X86025000Y-104025000D01*
G75*
G02*
X85825000Y-103825000I0J200000D01*
G01*
X85825000Y-103425000D01*
G75*
G02*
X86025000Y-103225000I200000J0D01*
G01*
G37*
G36*
G01*
X86025000Y-101575000D02*
X86575000Y-101575000D01*
G75*
G02*
X86775000Y-101775000I0J-200000D01*
G01*
X86775000Y-102175000D01*
G75*
G02*
X86575000Y-102375000I-200000J0D01*
G01*
X86025000Y-102375000D01*
G75*
G02*
X85825000Y-102175000I0J200000D01*
G01*
X85825000Y-101775000D01*
G75*
G02*
X86025000Y-101575000I200000J0D01*
G01*
G37*
G04 #@! TD*
G04 #@! TO.C,R7*
G36*
G01*
X93425000Y-109575000D02*
X93425000Y-109025000D01*
G75*
G02*
X93625000Y-108825000I200000J0D01*
G01*
X94025000Y-108825000D01*
G75*
G02*
X94225000Y-109025000I0J-200000D01*
G01*
X94225000Y-109575000D01*
G75*
G02*
X94025000Y-109775000I-200000J0D01*
G01*
X93625000Y-109775000D01*
G75*
G02*
X93425000Y-109575000I0J200000D01*
G01*
G37*
G36*
G01*
X91775000Y-109575000D02*
X91775000Y-109025000D01*
G75*
G02*
X91975000Y-108825000I200000J0D01*
G01*
X92375000Y-108825000D01*
G75*
G02*
X92575000Y-109025000I0J-200000D01*
G01*
X92575000Y-109575000D01*
G75*
G02*
X92375000Y-109775000I-200000J0D01*
G01*
X91975000Y-109775000D01*
G75*
G02*
X91775000Y-109575000I0J200000D01*
G01*
G37*
G04 #@! TD*
G04 #@! TO.C,R6*
G36*
G01*
X93425000Y-111575000D02*
X93425000Y-111025000D01*
G75*
G02*
X93625000Y-110825000I200000J0D01*
G01*
X94025000Y-110825000D01*
G75*
G02*
X94225000Y-111025000I0J-200000D01*
G01*
X94225000Y-111575000D01*
G75*
G02*
X94025000Y-111775000I-200000J0D01*
G01*
X93625000Y-111775000D01*
G75*
G02*
X93425000Y-111575000I0J200000D01*
G01*
G37*
G36*
G01*
X91775000Y-111575000D02*
X91775000Y-111025000D01*
G75*
G02*
X91975000Y-110825000I200000J0D01*
G01*
X92375000Y-110825000D01*
G75*
G02*
X92575000Y-111025000I0J-200000D01*
G01*
X92575000Y-111575000D01*
G75*
G02*
X92375000Y-111775000I-200000J0D01*
G01*
X91975000Y-111775000D01*
G75*
G02*
X91775000Y-111575000I0J200000D01*
G01*
G37*
G04 #@! TD*
G04 #@! TO.C,D2*
G36*
G01*
X89650000Y-109043750D02*
X89650000Y-109556250D01*
G75*
G02*
X89431250Y-109775000I-218750J0D01*
G01*
X88993750Y-109775000D01*
G75*
G02*
X88775000Y-109556250I0J218750D01*
G01*
X88775000Y-109043750D01*
G75*
G02*
X88993750Y-108825000I218750J0D01*
G01*
X89431250Y-108825000D01*
G75*
G02*
X89650000Y-109043750I0J-218750D01*
G01*
G37*
G36*
G01*
X91225000Y-109043750D02*
X91225000Y-109556250D01*
G75*
G02*
X91006250Y-109775000I-218750J0D01*
G01*
X90568750Y-109775000D01*
G75*
G02*
X90350000Y-109556250I0J218750D01*
G01*
X90350000Y-109043750D01*
G75*
G02*
X90568750Y-108825000I218750J0D01*
G01*
X91006250Y-108825000D01*
G75*
G02*
X91225000Y-109043750I0J-218750D01*
G01*
G37*
G04 #@! TD*
G04 #@! TO.C,D1*
G36*
G01*
X89650000Y-111043750D02*
X89650000Y-111556250D01*
G75*
G02*
X89431250Y-111775000I-218750J0D01*
G01*
X88993750Y-111775000D01*
G75*
G02*
X88775000Y-111556250I0J218750D01*
G01*
X88775000Y-111043750D01*
G75*
G02*
X88993750Y-110825000I218750J0D01*
G01*
X89431250Y-110825000D01*
G75*
G02*
X89650000Y-111043750I0J-218750D01*
G01*
G37*
G36*
G01*
X91225000Y-111043750D02*
X91225000Y-111556250D01*
G75*
G02*
X91006250Y-111775000I-218750J0D01*
G01*
X90568750Y-111775000D01*
G75*
G02*
X90350000Y-111556250I0J218750D01*
G01*
X90350000Y-111043750D01*
G75*
G02*
X90568750Y-110825000I218750J0D01*
G01*
X91006250Y-110825000D01*
G75*
G02*
X91225000Y-111043750I0J-218750D01*
G01*
G37*
G04 #@! TD*
G04 #@! TO.C,C3*
G36*
G01*
X85550000Y-117525000D02*
X85550000Y-118475000D01*
G75*
G02*
X85300000Y-118725000I-250000J0D01*
G01*
X84800000Y-118725000D01*
G75*
G02*
X84550000Y-118475000I0J250000D01*
G01*
X84550000Y-117525000D01*
G75*
G02*
X84800000Y-117275000I250000J0D01*
G01*
X85300000Y-117275000D01*
G75*
G02*
X85550000Y-117525000I0J-250000D01*
G01*
G37*
G36*
G01*
X87450000Y-117525000D02*
X87450000Y-118475000D01*
G75*
G02*
X87200000Y-118725000I-250000J0D01*
G01*
X86700000Y-118725000D01*
G75*
G02*
X86450000Y-118475000I0J250000D01*
G01*
X86450000Y-117525000D01*
G75*
G02*
X86700000Y-117275000I250000J0D01*
G01*
X87200000Y-117275000D01*
G75*
G02*
X87450000Y-117525000I0J-250000D01*
G01*
G37*
G04 #@! TD*
D21*
G04 #@! TO.C,J3*
X88250000Y-121700000D03*
X103750000Y-121700000D03*
D22*
X89215000Y-129000000D03*
X89215000Y-131030000D03*
X102785000Y-129000000D03*
D23*
X101715000Y-124750000D03*
D24*
X90285000Y-115860000D03*
X92825000Y-115860000D03*
X95365000Y-115860000D03*
X97905000Y-115860000D03*
X100445000Y-115860000D03*
X91555000Y-118400000D03*
X94095000Y-118400000D03*
X96635000Y-118400000D03*
G36*
G01*
X102096000Y-119162000D02*
X101334000Y-119162000D01*
G75*
G02*
X100953000Y-118781000I0J381000D01*
G01*
X100953000Y-118019000D01*
G75*
G02*
X101334000Y-117638000I381000J0D01*
G01*
X102096000Y-117638000D01*
G75*
G02*
X102477000Y-118019000I0J-381000D01*
G01*
X102477000Y-118781000D01*
G75*
G02*
X102096000Y-119162000I-381000J0D01*
G01*
G37*
X99175000Y-118400000D03*
D23*
X90285000Y-124750000D03*
D22*
X102785000Y-131030000D03*
G04 #@! TD*
G04 #@! TO.C,FB1*
G36*
G01*
X103375000Y-100218750D02*
X103375000Y-100981250D01*
G75*
G02*
X103156250Y-101200000I-218750J0D01*
G01*
X102718750Y-101200000D01*
G75*
G02*
X102500000Y-100981250I0J218750D01*
G01*
X102500000Y-100218750D01*
G75*
G02*
X102718750Y-100000000I218750J0D01*
G01*
X103156250Y-100000000D01*
G75*
G02*
X103375000Y-100218750I0J-218750D01*
G01*
G37*
G36*
G01*
X105500000Y-100218750D02*
X105500000Y-100981250D01*
G75*
G02*
X105281250Y-101200000I-218750J0D01*
G01*
X104843750Y-101200000D01*
G75*
G02*
X104625000Y-100981250I0J218750D01*
G01*
X104625000Y-100218750D01*
G75*
G02*
X104843750Y-100000000I218750J0D01*
G01*
X105281250Y-100000000D01*
G75*
G02*
X105500000Y-100218750I0J-218750D01*
G01*
G37*
G04 #@! TD*
D25*
G04 #@! TO.C,H4*
X167931891Y-129068109D03*
X166500000Y-128475000D03*
X165068109Y-129068109D03*
X164475000Y-130500000D03*
X165068109Y-131931891D03*
X166500000Y-132525000D03*
X167931891Y-131931891D03*
X168525000Y-130500000D03*
D26*
X166500000Y-130500000D03*
G04 #@! TD*
D25*
G04 #@! TO.C,H3*
X167931891Y-96068109D03*
X166500000Y-95475000D03*
X165068109Y-96068109D03*
X164475000Y-97500000D03*
X165068109Y-98931891D03*
X166500000Y-99525000D03*
X167931891Y-98931891D03*
X168525000Y-97500000D03*
D26*
X166500000Y-97500000D03*
G04 #@! TD*
D27*
G04 #@! TO.C,U6*
X96000000Y-102775000D03*
X96350000Y-103625000D03*
X95650000Y-103625000D03*
G04 #@! TD*
G04 #@! TO.C,R4*
G36*
G01*
X87075000Y-124275000D02*
X86525000Y-124275000D01*
G75*
G02*
X86325000Y-124075000I0J200000D01*
G01*
X86325000Y-123675000D01*
G75*
G02*
X86525000Y-123475000I200000J0D01*
G01*
X87075000Y-123475000D01*
G75*
G02*
X87275000Y-123675000I0J-200000D01*
G01*
X87275000Y-124075000D01*
G75*
G02*
X87075000Y-124275000I-200000J0D01*
G01*
G37*
G36*
G01*
X87075000Y-125925000D02*
X86525000Y-125925000D01*
G75*
G02*
X86325000Y-125725000I0J200000D01*
G01*
X86325000Y-125325000D01*
G75*
G02*
X86525000Y-125125000I200000J0D01*
G01*
X87075000Y-125125000D01*
G75*
G02*
X87275000Y-125325000I0J-200000D01*
G01*
X87275000Y-125725000D01*
G75*
G02*
X87075000Y-125925000I-200000J0D01*
G01*
G37*
G04 #@! TD*
G04 #@! TO.C,R3*
G36*
G01*
X105375000Y-124375000D02*
X104825000Y-124375000D01*
G75*
G02*
X104625000Y-124175000I0J200000D01*
G01*
X104625000Y-123775000D01*
G75*
G02*
X104825000Y-123575000I200000J0D01*
G01*
X105375000Y-123575000D01*
G75*
G02*
X105575000Y-123775000I0J-200000D01*
G01*
X105575000Y-124175000D01*
G75*
G02*
X105375000Y-124375000I-200000J0D01*
G01*
G37*
G36*
G01*
X105375000Y-126025000D02*
X104825000Y-126025000D01*
G75*
G02*
X104625000Y-125825000I0J200000D01*
G01*
X104625000Y-125425000D01*
G75*
G02*
X104825000Y-125225000I200000J0D01*
G01*
X105375000Y-125225000D01*
G75*
G02*
X105575000Y-125425000I0J-200000D01*
G01*
X105575000Y-125825000D01*
G75*
G02*
X105375000Y-126025000I-200000J0D01*
G01*
G37*
G04 #@! TD*
G04 #@! TO.C,R2*
G36*
G01*
X93425000Y-103475000D02*
X93425000Y-102925000D01*
G75*
G02*
X93625000Y-102725000I200000J0D01*
G01*
X94025000Y-102725000D01*
G75*
G02*
X94225000Y-102925000I0J-200000D01*
G01*
X94225000Y-103475000D01*
G75*
G02*
X94025000Y-103675000I-200000J0D01*
G01*
X93625000Y-103675000D01*
G75*
G02*
X93425000Y-103475000I0J200000D01*
G01*
G37*
G36*
G01*
X91775000Y-103475000D02*
X91775000Y-102925000D01*
G75*
G02*
X91975000Y-102725000I200000J0D01*
G01*
X92375000Y-102725000D01*
G75*
G02*
X92575000Y-102925000I0J-200000D01*
G01*
X92575000Y-103475000D01*
G75*
G02*
X92375000Y-103675000I-200000J0D01*
G01*
X91975000Y-103675000D01*
G75*
G02*
X91775000Y-103475000I0J200000D01*
G01*
G37*
G04 #@! TD*
G04 #@! TO.C,R1*
G36*
G01*
X98575000Y-102925000D02*
X98575000Y-103475000D01*
G75*
G02*
X98375000Y-103675000I-200000J0D01*
G01*
X97975000Y-103675000D01*
G75*
G02*
X97775000Y-103475000I0J200000D01*
G01*
X97775000Y-102925000D01*
G75*
G02*
X97975000Y-102725000I200000J0D01*
G01*
X98375000Y-102725000D01*
G75*
G02*
X98575000Y-102925000I0J-200000D01*
G01*
G37*
G36*
G01*
X100225000Y-102925000D02*
X100225000Y-103475000D01*
G75*
G02*
X100025000Y-103675000I-200000J0D01*
G01*
X99625000Y-103675000D01*
G75*
G02*
X99425000Y-103475000I0J200000D01*
G01*
X99425000Y-102925000D01*
G75*
G02*
X99625000Y-102725000I200000J0D01*
G01*
X100025000Y-102725000D01*
G75*
G02*
X100225000Y-102925000I0J-200000D01*
G01*
G37*
G04 #@! TD*
D25*
G04 #@! TO.C,H2*
X84931891Y-129068109D03*
X83500000Y-128475000D03*
X82068109Y-129068109D03*
X81475000Y-130500000D03*
X82068109Y-131931891D03*
X83500000Y-132525000D03*
X84931891Y-131931891D03*
X85525000Y-130500000D03*
D26*
X83500000Y-130500000D03*
G04 #@! TD*
D25*
G04 #@! TO.C,H1*
X84931891Y-96068109D03*
X83500000Y-95475000D03*
X82068109Y-96068109D03*
X81475000Y-97500000D03*
X82068109Y-98931891D03*
X83500000Y-99525000D03*
X84931891Y-98931891D03*
X85525000Y-97500000D03*
D26*
X83500000Y-97500000D03*
G04 #@! TD*
D22*
G04 #@! TO.C,FID3*
X153500000Y-97500000D03*
G04 #@! TD*
G04 #@! TO.C,FID2*
X158500000Y-125500000D03*
G04 #@! TD*
G04 #@! TO.C,FID1*
X110500000Y-125500000D03*
G04 #@! TD*
G04 #@! TO.C,C2*
G36*
G01*
X104450000Y-103075000D02*
X104450000Y-102125000D01*
G75*
G02*
X104700000Y-101875000I250000J0D01*
G01*
X105200000Y-101875000D01*
G75*
G02*
X105450000Y-102125000I0J-250000D01*
G01*
X105450000Y-103075000D01*
G75*
G02*
X105200000Y-103325000I-250000J0D01*
G01*
X104700000Y-103325000D01*
G75*
G02*
X104450000Y-103075000I0J250000D01*
G01*
G37*
G36*
G01*
X102550000Y-103075000D02*
X102550000Y-102125000D01*
G75*
G02*
X102800000Y-101875000I250000J0D01*
G01*
X103300000Y-101875000D01*
G75*
G02*
X103550000Y-102125000I0J-250000D01*
G01*
X103550000Y-103075000D01*
G75*
G02*
X103300000Y-103325000I-250000J0D01*
G01*
X102800000Y-103325000D01*
G75*
G02*
X102550000Y-103075000I0J250000D01*
G01*
G37*
G04 #@! TD*
G04 #@! TO.C,C1*
G36*
G01*
X104450000Y-105175000D02*
X104450000Y-104225000D01*
G75*
G02*
X104700000Y-103975000I250000J0D01*
G01*
X105200000Y-103975000D01*
G75*
G02*
X105450000Y-104225000I0J-250000D01*
G01*
X105450000Y-105175000D01*
G75*
G02*
X105200000Y-105425000I-250000J0D01*
G01*
X104700000Y-105425000D01*
G75*
G02*
X104450000Y-105175000I0J250000D01*
G01*
G37*
G36*
G01*
X102550000Y-105175000D02*
X102550000Y-104225000D01*
G75*
G02*
X102800000Y-103975000I250000J0D01*
G01*
X103300000Y-103975000D01*
G75*
G02*
X103550000Y-104225000I0J-250000D01*
G01*
X103550000Y-105175000D01*
G75*
G02*
X103300000Y-105425000I-250000J0D01*
G01*
X102800000Y-105425000D01*
G75*
G02*
X102550000Y-105175000I0J250000D01*
G01*
G37*
G04 #@! TD*
M02*
