G04 #@! TF.GenerationSoftware,KiCad,Pcbnew,(5.1.9)-1*
G04 #@! TF.CreationDate,2021-09-18T19:11:12-04:00*
G04 #@! TF.ProjectId,cm4-carrier-net,636d342d-6361-4727-9269-65722d6e6574,v1.0a*
G04 #@! TF.SameCoordinates,Original*
G04 #@! TF.FileFunction,Copper,L4,Bot*
G04 #@! TF.FilePolarity,Positive*
%FSLAX46Y46*%
G04 Gerber Fmt 4.6, Leading zero omitted, Abs format (unit mm)*
G04 Created by KiCad (PCBNEW (5.1.9)-1) date 2021-09-18 19:11:12*
%MOMM*%
%LPD*%
G01*
G04 APERTURE LIST*
G04 #@! TA.AperFunction,EtchedComponent*
%ADD10C,0.508000*%
G04 #@! TD*
G04 #@! TA.AperFunction,ComponentPad*
%ADD11O,0.900000X1.700000*%
G04 #@! TD*
G04 #@! TA.AperFunction,ComponentPad*
%ADD12O,0.900000X2.000000*%
G04 #@! TD*
G04 #@! TA.AperFunction,ComponentPad*
%ADD13C,2.200000*%
G04 #@! TD*
G04 #@! TA.AperFunction,ComponentPad*
%ADD14C,1.500000*%
G04 #@! TD*
G04 #@! TA.AperFunction,ComponentPad*
%ADD15C,1.524000*%
G04 #@! TD*
G04 #@! TA.AperFunction,SMDPad,CuDef*
%ADD16C,0.750000*%
G04 #@! TD*
G04 #@! TA.AperFunction,ComponentPad*
%ADD17C,0.800000*%
G04 #@! TD*
G04 #@! TA.AperFunction,ComponentPad*
%ADD18C,5.400000*%
G04 #@! TD*
G04 #@! TA.AperFunction,SMDPad,CuDef*
%ADD19R,1.900000X1.350000*%
G04 #@! TD*
G04 #@! TA.AperFunction,SMDPad,CuDef*
%ADD20R,1.200000X1.000000*%
G04 #@! TD*
G04 #@! TA.AperFunction,SMDPad,CuDef*
%ADD21R,1.550000X1.350000*%
G04 #@! TD*
G04 #@! TA.AperFunction,SMDPad,CuDef*
%ADD22R,1.170000X1.800000*%
G04 #@! TD*
G04 #@! TA.AperFunction,SMDPad,CuDef*
%ADD23R,0.850000X1.100000*%
G04 #@! TD*
G04 #@! TA.AperFunction,SMDPad,CuDef*
%ADD24R,0.750000X1.100000*%
G04 #@! TD*
G04 #@! TA.AperFunction,ViaPad*
%ADD25C,0.500000*%
G04 #@! TD*
G04 #@! TA.AperFunction,ViaPad*
%ADD26C,0.800000*%
G04 #@! TD*
G04 #@! TA.AperFunction,Conductor*
%ADD27C,0.508000*%
G04 #@! TD*
G04 #@! TA.AperFunction,Conductor*
%ADD28C,0.254000*%
G04 #@! TD*
G04 #@! TA.AperFunction,Conductor*
%ADD29C,0.101600*%
G04 #@! TD*
G04 #@! TA.AperFunction,Conductor*
%ADD30C,0.152400*%
G04 #@! TD*
G04 APERTURE END LIST*
D10*
G04 #@! TO.C,JP4*
X147700000Y-125973000D02*
X147700000Y-126227000D01*
G04 #@! TO.C,JP1*
X149300000Y-125973000D02*
X149300000Y-126227000D01*
G04 #@! TO.C,JP2*
X150900000Y-125973000D02*
X150900000Y-126227000D01*
G04 #@! TO.C,JP3*
X152500000Y-125973000D02*
X152500000Y-126227000D01*
G04 #@! TD*
G04 #@! TO.P,C4,2*
G04 #@! TO.N,GND*
G04 #@! TA.AperFunction,SMDPad,CuDef*
G36*
G01*
X112525000Y-102299999D02*
X113475000Y-102299999D01*
G75*
G02*
X113725000Y-102549999I0J-250000D01*
G01*
X113725000Y-103049999D01*
G75*
G02*
X113475000Y-103299999I-250000J0D01*
G01*
X112525000Y-103299999D01*
G75*
G02*
X112275000Y-103049999I0J250000D01*
G01*
X112275000Y-102549999D01*
G75*
G02*
X112525000Y-102299999I250000J0D01*
G01*
G37*
G04 #@! TD.AperFunction*
G04 #@! TO.P,C4,1*
G04 #@! TO.N,/SD_PWR*
G04 #@! TA.AperFunction,SMDPad,CuDef*
G36*
G01*
X112525000Y-100399999D02*
X113475000Y-100399999D01*
G75*
G02*
X113725000Y-100649999I0J-250000D01*
G01*
X113725000Y-101149999D01*
G75*
G02*
X113475000Y-101399999I-250000J0D01*
G01*
X112525000Y-101399999D01*
G75*
G02*
X112275000Y-101149999I0J250000D01*
G01*
X112275000Y-100649999D01*
G75*
G02*
X112525000Y-100399999I250000J0D01*
G01*
G37*
G04 #@! TD.AperFunction*
G04 #@! TD*
D11*
G04 #@! TO.P,J1,S1*
G04 #@! TO.N,Net-(C5-Pad1)*
X91680000Y-96060000D03*
X100320000Y-96060000D03*
D12*
X91680000Y-100230000D03*
X100320000Y-100230000D03*
G04 #@! TD*
G04 #@! TO.P,JP4,1*
G04 #@! TO.N,GND*
G04 #@! TA.AperFunction,SMDPad,CuDef*
G36*
G01*
X147460000Y-124965000D02*
X147940000Y-124965000D01*
G75*
G02*
X148100000Y-125125000I0J-160000D01*
G01*
X148100000Y-125805000D01*
G75*
G02*
X147940000Y-125965000I-160000J0D01*
G01*
X147460000Y-125965000D01*
G75*
G02*
X147300000Y-125805000I0J160000D01*
G01*
X147300000Y-125125000D01*
G75*
G02*
X147460000Y-124965000I160000J0D01*
G01*
G37*
G04 #@! TD.AperFunction*
G04 #@! TO.P,JP4,2*
G04 #@! TO.N,Net-(JP4-Pad2)*
G04 #@! TA.AperFunction,SMDPad,CuDef*
G36*
G01*
X147500000Y-126235000D02*
X147900000Y-126235000D01*
G75*
G02*
X148100000Y-126435000I0J-200000D01*
G01*
X148100000Y-127035000D01*
G75*
G02*
X147900000Y-127235000I-200000J0D01*
G01*
X147500000Y-127235000D01*
G75*
G02*
X147300000Y-127035000I0J200000D01*
G01*
X147300000Y-126435000D01*
G75*
G02*
X147500000Y-126235000I200000J0D01*
G01*
G37*
G04 #@! TD.AperFunction*
G04 #@! TD*
G04 #@! TO.P,JP1,1*
G04 #@! TO.N,+3V3*
G04 #@! TA.AperFunction,SMDPad,CuDef*
G36*
G01*
X149060000Y-124965000D02*
X149540000Y-124965000D01*
G75*
G02*
X149700000Y-125125000I0J-160000D01*
G01*
X149700000Y-125805000D01*
G75*
G02*
X149540000Y-125965000I-160000J0D01*
G01*
X149060000Y-125965000D01*
G75*
G02*
X148900000Y-125805000I0J160000D01*
G01*
X148900000Y-125125000D01*
G75*
G02*
X149060000Y-124965000I160000J0D01*
G01*
G37*
G04 #@! TD.AperFunction*
G04 #@! TO.P,JP1,2*
G04 #@! TO.N,Net-(JP1-Pad2)*
G04 #@! TA.AperFunction,SMDPad,CuDef*
G36*
G01*
X149100000Y-126235000D02*
X149500000Y-126235000D01*
G75*
G02*
X149700000Y-126435000I0J-200000D01*
G01*
X149700000Y-127035000D01*
G75*
G02*
X149500000Y-127235000I-200000J0D01*
G01*
X149100000Y-127235000D01*
G75*
G02*
X148900000Y-127035000I0J200000D01*
G01*
X148900000Y-126435000D01*
G75*
G02*
X149100000Y-126235000I200000J0D01*
G01*
G37*
G04 #@! TD.AperFunction*
G04 #@! TD*
G04 #@! TO.P,JP2,1*
G04 #@! TO.N,GND*
G04 #@! TA.AperFunction,SMDPad,CuDef*
G36*
G01*
X150660000Y-124965000D02*
X151140000Y-124965000D01*
G75*
G02*
X151300000Y-125125000I0J-160000D01*
G01*
X151300000Y-125805000D01*
G75*
G02*
X151140000Y-125965000I-160000J0D01*
G01*
X150660000Y-125965000D01*
G75*
G02*
X150500000Y-125805000I0J160000D01*
G01*
X150500000Y-125125000D01*
G75*
G02*
X150660000Y-124965000I160000J0D01*
G01*
G37*
G04 #@! TD.AperFunction*
G04 #@! TO.P,JP2,2*
G04 #@! TO.N,Net-(JP2-Pad2)*
G04 #@! TA.AperFunction,SMDPad,CuDef*
G36*
G01*
X150700000Y-126235000D02*
X151100000Y-126235000D01*
G75*
G02*
X151300000Y-126435000I0J-200000D01*
G01*
X151300000Y-127035000D01*
G75*
G02*
X151100000Y-127235000I-200000J0D01*
G01*
X150700000Y-127235000D01*
G75*
G02*
X150500000Y-127035000I0J200000D01*
G01*
X150500000Y-126435000D01*
G75*
G02*
X150700000Y-126235000I200000J0D01*
G01*
G37*
G04 #@! TD.AperFunction*
G04 #@! TD*
G04 #@! TO.P,JP3,1*
G04 #@! TO.N,GND*
G04 #@! TA.AperFunction,SMDPad,CuDef*
G36*
G01*
X152260000Y-124965000D02*
X152740000Y-124965000D01*
G75*
G02*
X152900000Y-125125000I0J-160000D01*
G01*
X152900000Y-125805000D01*
G75*
G02*
X152740000Y-125965000I-160000J0D01*
G01*
X152260000Y-125965000D01*
G75*
G02*
X152100000Y-125805000I0J160000D01*
G01*
X152100000Y-125125000D01*
G75*
G02*
X152260000Y-124965000I160000J0D01*
G01*
G37*
G04 #@! TD.AperFunction*
G04 #@! TO.P,JP3,2*
G04 #@! TO.N,Net-(JP3-Pad2)*
G04 #@! TA.AperFunction,SMDPad,CuDef*
G36*
G01*
X152300000Y-126235000D02*
X152700000Y-126235000D01*
G75*
G02*
X152900000Y-126435000I0J-200000D01*
G01*
X152900000Y-127035000D01*
G75*
G02*
X152700000Y-127235000I-200000J0D01*
G01*
X152300000Y-127235000D01*
G75*
G02*
X152100000Y-127035000I0J200000D01*
G01*
X152100000Y-126435000D01*
G75*
G02*
X152300000Y-126235000I200000J0D01*
G01*
G37*
G04 #@! TD.AperFunction*
G04 #@! TD*
D13*
G04 #@! TO.P,J3,SH*
G04 #@! TO.N,GND*
X88250000Y-121700000D03*
X103750000Y-121700000D03*
D14*
G04 #@! TO.P,J3,11*
G04 #@! TO.N,+3V3*
X89215000Y-129000000D03*
G04 #@! TO.P,J3,12*
G04 #@! TO.N,Net-(J3-Pad12)*
X89215000Y-131030000D03*
G04 #@! TO.P,J3,13*
G04 #@! TO.N,+3V3*
X102785000Y-129000000D03*
D15*
G04 #@! TO.P,J3,10*
G04 #@! TO.N,/E0_TR3-*
X90285000Y-115860000D03*
G04 #@! TO.P,J3,8*
G04 #@! TO.N,/E0_TR2-*
X92825000Y-115860000D03*
G04 #@! TO.P,J3,6*
G04 #@! TO.N,Net-(C3-Pad1)*
X95365000Y-115860000D03*
G04 #@! TO.P,J3,4*
G04 #@! TO.N,/E0_TR1-*
X97905000Y-115860000D03*
G04 #@! TO.P,J3,2*
G04 #@! TO.N,/E0_TR0-*
X100445000Y-115860000D03*
G04 #@! TO.P,J3,9*
G04 #@! TO.N,/E0_TR3+*
X91555000Y-118400000D03*
G04 #@! TO.P,J3,7*
G04 #@! TO.N,/E0_TR2+*
X94095000Y-118400000D03*
G04 #@! TO.P,J3,5*
G04 #@! TO.N,Net-(C3-Pad1)*
X96635000Y-118400000D03*
G04 #@! TO.P,J3,1*
G04 #@! TO.N,/E0_TR0+*
G04 #@! TA.AperFunction,ComponentPad*
G36*
G01*
X102096000Y-119162000D02*
X101334000Y-119162000D01*
G75*
G02*
X100953000Y-118781000I0J381000D01*
G01*
X100953000Y-118019000D01*
G75*
G02*
X101334000Y-117638000I381000J0D01*
G01*
X102096000Y-117638000D01*
G75*
G02*
X102477000Y-118019000I0J-381000D01*
G01*
X102477000Y-118781000D01*
G75*
G02*
X102096000Y-119162000I-381000J0D01*
G01*
G37*
G04 #@! TD.AperFunction*
G04 #@! TO.P,J3,3*
G04 #@! TO.N,/E0_TR1+*
X99175000Y-118400000D03*
D14*
G04 #@! TO.P,J3,14*
G04 #@! TO.N,Net-(J3-Pad14)*
X102785000Y-131030000D03*
G04 #@! TD*
D16*
G04 #@! TO.P,FID6,*
G04 #@! TO.N,*
X153500000Y-97500000D03*
G04 #@! TD*
G04 #@! TO.P,FID5,*
G04 #@! TO.N,*
X158500000Y-125500000D03*
G04 #@! TD*
G04 #@! TO.P,FID4,*
G04 #@! TO.N,*
X110500000Y-125500000D03*
G04 #@! TD*
D17*
G04 #@! TO.P,H4,1*
G04 #@! TO.N,GND*
X167931891Y-129068109D03*
X166500000Y-128475000D03*
X165068109Y-129068109D03*
X164475000Y-130500000D03*
X165068109Y-131931891D03*
X166500000Y-132525000D03*
X167931891Y-131931891D03*
X168525000Y-130500000D03*
D18*
X166500000Y-130500000D03*
G04 #@! TD*
D17*
G04 #@! TO.P,H3,1*
G04 #@! TO.N,GND*
X167931891Y-96068109D03*
X166500000Y-95475000D03*
X165068109Y-96068109D03*
X164475000Y-97500000D03*
X165068109Y-98931891D03*
X166500000Y-99525000D03*
X167931891Y-98931891D03*
X168525000Y-97500000D03*
D18*
X166500000Y-97500000D03*
G04 #@! TD*
D19*
G04 #@! TO.P,J2,11*
G04 #@! TO.N,N/C*
X117470000Y-107775000D03*
X123440000Y-107775000D03*
D20*
G04 #@! TO.P,J2,9*
G04 #@! TO.N,GND*
X126940000Y-103100000D03*
G04 #@! TO.P,J2,10*
G04 #@! TO.N,N/C*
X126940000Y-106800000D03*
D21*
G04 #@! TO.P,J2,11*
X126765000Y-97075000D03*
D22*
X115445000Y-97300000D03*
D23*
G04 #@! TO.P,J2,7*
G04 #@! TO.N,/SD_D0*
X117705000Y-96950000D03*
G04 #@! TO.P,J2,6*
G04 #@! TO.N,GND*
X118805000Y-96950000D03*
G04 #@! TO.P,J2,5*
G04 #@! TO.N,/SD_CLK*
X119905000Y-96950000D03*
G04 #@! TO.P,J2,4*
G04 #@! TO.N,/SD_PWR*
X121005000Y-96950000D03*
G04 #@! TO.P,J2,3*
G04 #@! TO.N,/SD_CMD*
X122105000Y-96950000D03*
G04 #@! TO.P,J2,2*
G04 #@! TO.N,/SD_D3*
X123205000Y-96950000D03*
D24*
G04 #@! TO.P,J2,8*
G04 #@! TO.N,/SD_D1*
X116655000Y-96950000D03*
D23*
G04 #@! TO.P,J2,1*
G04 #@! TO.N,/SD_D2*
X124305000Y-96950000D03*
G04 #@! TD*
D17*
G04 #@! TO.P,H2,1*
G04 #@! TO.N,GND*
X84931891Y-129068109D03*
X83500000Y-128475000D03*
X82068109Y-129068109D03*
X81475000Y-130500000D03*
X82068109Y-131931891D03*
X83500000Y-132525000D03*
X84931891Y-131931891D03*
X85525000Y-130500000D03*
D18*
X83500000Y-130500000D03*
G04 #@! TD*
D17*
G04 #@! TO.P,H1,1*
G04 #@! TO.N,GND*
X84931891Y-96068109D03*
X83500000Y-95475000D03*
X82068109Y-96068109D03*
X81475000Y-97500000D03*
X82068109Y-98931891D03*
X83500000Y-99525000D03*
X84931891Y-98931891D03*
X85525000Y-97500000D03*
D18*
X83500000Y-97500000D03*
G04 #@! TD*
D25*
G04 #@! TO.N,GND*
X96000000Y-102200002D03*
D26*
X99200000Y-102000000D03*
X92800000Y-102000000D03*
X105999988Y-102600000D03*
X106000010Y-104700000D03*
D25*
X100700000Y-103200000D03*
X91300000Y-103200000D03*
X94600000Y-105300000D03*
X94600000Y-109300000D03*
X94600000Y-111300000D03*
D26*
X83900000Y-118000000D03*
X85800000Y-105000000D03*
X85800000Y-111000000D03*
X118800000Y-98000000D03*
X126052410Y-103100000D03*
D25*
X137600000Y-131800000D03*
X133600000Y-131800000D03*
X132400000Y-131798398D03*
X129600000Y-130700000D03*
X127200000Y-128700000D03*
X126700000Y-132700000D03*
X131600000Y-130200000D03*
X133200000Y-130200000D03*
X141600000Y-128700000D03*
X128400000Y-128700000D03*
X135000000Y-131800000D03*
D26*
X147700000Y-124000000D03*
D25*
G04 #@! TO.N,/USB_OTG_ID*
X127200000Y-99300000D03*
G04 #@! TO.N,GND*
X128400000Y-99300000D03*
X129600000Y-97900000D03*
X132000000Y-97900000D03*
X133200000Y-97900000D03*
X134400000Y-97900000D03*
X138000000Y-97900000D03*
X139200000Y-97900000D03*
X140400000Y-97900000D03*
X141600000Y-97900000D03*
X142800000Y-97900000D03*
X144000000Y-97900000D03*
X145200000Y-97900000D03*
X146400000Y-97900000D03*
X146400000Y-96200000D03*
X145200000Y-96200000D03*
X144000000Y-96200000D03*
X142800000Y-96200000D03*
X141600000Y-96200000D03*
X140400000Y-96200000D03*
X139200000Y-96200000D03*
X138000000Y-96200000D03*
X135600000Y-96200000D03*
X134400000Y-96200000D03*
X133200000Y-96200000D03*
X132000000Y-96200000D03*
X129600000Y-96200000D03*
X128400000Y-96200000D03*
X146400000Y-128700000D03*
D26*
X152500000Y-124000000D03*
X150900000Y-124000000D03*
D25*
X131200000Y-96201626D03*
X130998028Y-97893497D03*
X136400000Y-96201650D03*
D26*
X105400000Y-96000000D03*
X111600000Y-102800000D03*
X162000000Y-104500000D03*
D25*
G04 #@! TO.N,/SD_D0*
X140400000Y-131100000D03*
G04 #@! TO.N,/SD_CLK*
X138400000Y-131800012D03*
D26*
G04 #@! TO.N,+3V3*
X149300000Y-124000000D03*
D25*
G04 #@! TO.N,/SD_CMD*
X139200000Y-128700000D03*
G04 #@! TO.N,/SD_D3*
X139200000Y-131800000D03*
X125200000Y-114000000D03*
X125199980Y-117400000D03*
G04 #@! TO.N,/SD_D1*
X140400000Y-131800000D03*
G04 #@! TO.N,/SD_D2*
X141200000Y-131798374D03*
G04 #@! TO.N,/~E0_LEDR*
X113825000Y-123975000D03*
X131000000Y-131299990D03*
G04 #@! TO.N,/~E0_LEDL*
X85400000Y-123800000D03*
X108200000Y-122600000D03*
X111400000Y-122600004D03*
X130400000Y-131800000D03*
D26*
G04 #@! TO.N,+5V*
X143400000Y-133400000D03*
X102000000Y-104700000D03*
D25*
X88300000Y-111300000D03*
D26*
X102000000Y-102600000D03*
D25*
G04 #@! TO.N,Net-(J3-Pad14)*
X106100000Y-125600000D03*
G04 #@! TO.N,Net-(J3-Pad12)*
X85400000Y-125500000D03*
G04 #@! TO.N,/SD_PWR*
X88300000Y-105300000D03*
D26*
X121000000Y-98000000D03*
D25*
X88900000Y-101500000D03*
D26*
X111600000Y-101400000D03*
D25*
G04 #@! TO.N,/SD_PWR_ON*
X142400000Y-131798382D03*
X109800000Y-103900006D03*
X125500000Y-99899994D03*
X86800000Y-100700010D03*
G04 #@! TO.N,/PI_LED_nACT*
X103700000Y-109300000D03*
X131700000Y-131300000D03*
G04 #@! TO.N,/PI_nRPI_BOOT*
X84800000Y-108499988D03*
X101000000Y-108500000D03*
X103000000Y-108500004D03*
X136800000Y-131399992D03*
G04 #@! TO.N,/PI_GLOBAL_EN*
X84600000Y-114600000D03*
X113600000Y-111200000D03*
X88300000Y-112500004D03*
X136000000Y-131400000D03*
G04 #@! TO.N,Net-(JP1-Pad2)*
X143600000Y-131099994D03*
G04 #@! TO.N,Net-(JP2-Pad2)*
X144800000Y-131800000D03*
G04 #@! TO.N,Net-(JP3-Pad2)*
X145199994Y-133200000D03*
G04 #@! TO.N,Net-(JP4-Pad2)*
X142500000Y-126600002D03*
G04 #@! TD*
D27*
G04 #@! TO.N,GND*
X118805000Y-97995000D02*
X118800000Y-98000000D01*
X118805000Y-96950000D02*
X118805000Y-97995000D01*
X126940000Y-103100000D02*
X126052410Y-103100000D01*
D28*
X147700000Y-125465000D02*
X147700000Y-124000000D01*
X150900000Y-125465000D02*
X150900000Y-124000000D01*
X152500000Y-125465000D02*
X152500000Y-124000000D01*
D27*
X111600001Y-102799999D02*
X111600000Y-102800000D01*
X113000000Y-102799999D02*
X111600001Y-102799999D01*
D29*
G04 #@! TO.N,/SD_D0*
X117705000Y-96950000D02*
X117705000Y-103105000D01*
X117705000Y-103105000D02*
X121000000Y-106400000D01*
X121000000Y-106400000D02*
X121000000Y-111600000D01*
X121000000Y-111600000D02*
X140400000Y-131000000D01*
X140400000Y-131000000D02*
X140400000Y-131100000D01*
G04 #@! TO.N,/SD_CLK*
X114800000Y-95600000D02*
X114200000Y-96200000D01*
X119400000Y-95600000D02*
X114800000Y-95600000D01*
X119905000Y-96105000D02*
X119400000Y-95600000D01*
X119905000Y-96950000D02*
X119905000Y-96105000D01*
X114200000Y-106400000D02*
X114200000Y-106500012D01*
X114200000Y-96200000D02*
X114200000Y-106400000D01*
X114200000Y-107600012D02*
X114200000Y-106400000D01*
X138400000Y-131800012D02*
X114200000Y-107600012D01*
D28*
G04 #@! TO.N,+3V3*
X149300000Y-125465000D02*
X149300000Y-124000000D01*
D29*
G04 #@! TO.N,/SD_CMD*
X139000000Y-128700000D02*
X139200000Y-128700000D01*
X122105000Y-111805000D02*
X139000000Y-128700000D01*
X122105000Y-96950000D02*
X122105000Y-111805000D01*
G04 #@! TO.N,/SD_D3*
X123205000Y-96950000D02*
X123205000Y-104405000D01*
X123205000Y-104405000D02*
X125200000Y-106400000D01*
X125200000Y-106400000D02*
X125200000Y-114000000D01*
X139200000Y-131400020D02*
X125199980Y-117400000D01*
X139200000Y-131800000D02*
X139200000Y-131400020D01*
G04 #@! TO.N,/SD_D1*
X116655000Y-96950000D02*
X116655000Y-102855000D01*
X140150001Y-131550001D02*
X140400000Y-131800000D01*
X116655000Y-102855000D02*
X120400000Y-106600000D01*
X120400000Y-106600000D02*
X120400000Y-111800000D01*
X120400000Y-111800000D02*
X140150001Y-131550001D01*
G04 #@! TO.N,/SD_D2*
X124305000Y-96950000D02*
X124305000Y-104305000D01*
X124305000Y-104305000D02*
X125800000Y-105800000D01*
X125800000Y-114600000D02*
X141200000Y-130000000D01*
X125800000Y-105800000D02*
X125800000Y-114600000D01*
X141200000Y-130000000D02*
X141200000Y-131798374D01*
D30*
G04 #@! TO.N,/~E0_LEDR*
X121149990Y-131299990D02*
X131000000Y-131299990D01*
X113825000Y-123975000D02*
X121149990Y-131299990D01*
G04 #@! TO.N,/~E0_LEDL*
X85400000Y-123800000D02*
X85400000Y-121000000D01*
X85400000Y-121000000D02*
X86200000Y-120200000D01*
X86200000Y-120200000D02*
X105800000Y-120200000D01*
X105800000Y-120200000D02*
X108200000Y-122600000D01*
X111400000Y-122600004D02*
X120599996Y-131800000D01*
X120599996Y-131800000D02*
X130400000Y-131800000D01*
D27*
G04 #@! TO.N,+5V*
X102000000Y-104700000D02*
X102000000Y-110600000D01*
X101905601Y-110694399D02*
X102000000Y-110600000D01*
X88905601Y-110694399D02*
X101905601Y-110694399D01*
X88300000Y-111300000D02*
X88905601Y-110694399D01*
X120600000Y-133400000D02*
X143400000Y-133400000D01*
X102000000Y-114800000D02*
X120600000Y-133400000D01*
X102000000Y-110600000D02*
X102000000Y-114800000D01*
D30*
G04 #@! TO.N,Net-(J3-Pad14)*
X106100000Y-127715000D02*
X102785000Y-131030000D01*
X106100000Y-125600000D02*
X106100000Y-127715000D01*
G04 #@! TO.N,Net-(J3-Pad12)*
X89215000Y-131015000D02*
X89215000Y-131030000D01*
X85400000Y-127200000D02*
X89215000Y-131015000D01*
X85400000Y-125500000D02*
X85400000Y-127200000D01*
D27*
G04 #@! TO.N,/SD_PWR*
X121005000Y-97995000D02*
X121000000Y-98000000D01*
X121005000Y-96950000D02*
X121005000Y-97995000D01*
D28*
X88900000Y-104700000D02*
X88300000Y-105300000D01*
X88900000Y-101500000D02*
X88900000Y-104700000D01*
D27*
X112100001Y-100899999D02*
X111600000Y-101400000D01*
X113000000Y-100899999D02*
X112100001Y-100899999D01*
D30*
G04 #@! TO.N,/SD_PWR_ON*
X126499994Y-99899994D02*
X125500000Y-99899994D01*
X128100000Y-101500000D02*
X126499994Y-99899994D01*
X128100000Y-114400000D02*
X128100000Y-101500000D01*
X142072199Y-128372199D02*
X128100000Y-114400000D01*
X142072199Y-131470581D02*
X142072199Y-128372199D01*
X142400000Y-131798382D02*
X142072199Y-131470581D01*
X89800010Y-100700010D02*
X86800000Y-100700010D01*
X109800000Y-103900006D02*
X93000006Y-103900006D01*
X93000006Y-103900006D02*
X89800010Y-100700010D01*
G04 #@! TO.N,/PI_LED_nACT*
X109700000Y-109300000D02*
X131700000Y-131300000D01*
X103700000Y-109300000D02*
X109700000Y-109300000D01*
G04 #@! TO.N,/PI_nRPI_BOOT*
X84800000Y-108499988D02*
X100999988Y-108499988D01*
X100999988Y-108499988D02*
X101000000Y-108500000D01*
X113900012Y-108500004D02*
X136800000Y-131399992D01*
X103000000Y-108500004D02*
X113900012Y-108500004D01*
G04 #@! TO.N,/PI_GLOBAL_EN*
X86200004Y-114600000D02*
X88300000Y-112500004D01*
X84600000Y-114600000D02*
X86200004Y-114600000D01*
X135600000Y-131400000D02*
X136000000Y-131400000D01*
X115400000Y-111200000D02*
X135600000Y-131400000D01*
X113600000Y-111200000D02*
X115400000Y-111200000D01*
D29*
G04 #@! TO.N,Net-(JP1-Pad2)*
X147800006Y-131099994D02*
X143600000Y-131099994D01*
X149300000Y-129600000D02*
X147800006Y-131099994D01*
X149300000Y-126735000D02*
X149300000Y-129600000D01*
G04 #@! TO.N,Net-(JP2-Pad2)*
X150900000Y-129600000D02*
X148700000Y-131800000D01*
X148700000Y-131800000D02*
X144800000Y-131800000D01*
X150900000Y-126735000D02*
X150900000Y-129600000D01*
G04 #@! TO.N,Net-(JP3-Pad2)*
X152500000Y-130500000D02*
X149800000Y-133200000D01*
X149800000Y-133200000D02*
X145199994Y-133200000D01*
X152500000Y-130500000D02*
X152500000Y-126735000D01*
G04 #@! TO.N,Net-(JP4-Pad2)*
X147035000Y-126735000D02*
X147700000Y-126735000D01*
X146900002Y-126600002D02*
X147035000Y-126735000D01*
X142500000Y-126600002D02*
X146900002Y-126600002D01*
G04 #@! TD*
M02*
