G04 #@! TF.GenerationSoftware,KiCad,Pcbnew,(5.1.9)-1*
G04 #@! TF.CreationDate,2021-09-18T19:11:12-04:00*
G04 #@! TF.ProjectId,cm4-carrier-net,636d342d-6361-4727-9269-65722d6e6574,v1.0a*
G04 #@! TF.SameCoordinates,Original*
G04 #@! TF.FileFunction,Legend,Bot*
G04 #@! TF.FilePolarity,Positive*
%FSLAX46Y46*%
G04 Gerber Fmt 4.6, Leading zero omitted, Abs format (unit mm)*
G04 Created by KiCad (PCBNEW (5.1.9)-1) date 2021-09-18 19:11:12*
%MOMM*%
%LPD*%
G01*
G04 APERTURE LIST*
%ADD10C,0.100000*%
%ADD11C,0.120000*%
%ADD12C,0.800000*%
%ADD13C,0.900000*%
%ADD14C,0.650000*%
%ADD15O,0.900000X1.700000*%
%ADD16O,0.900000X2.000000*%
%ADD17C,6.100000*%
%ADD18C,2.200000*%
%ADD19C,1.500000*%
%ADD20C,3.250000*%
%ADD21C,1.524000*%
%ADD22C,0.800000*%
%ADD23C,5.400000*%
%ADD24R,1.900000X1.350000*%
%ADD25R,1.200000X1.000000*%
%ADD26R,1.550000X1.350000*%
%ADD27R,1.170000X1.800000*%
%ADD28R,0.850000X1.100000*%
%ADD29R,0.750000X1.100000*%
G04 APERTURE END LIST*
D10*
X148162000Y-131065000D02*
X148162000Y-130522142D01*
X147642857Y-130922142D02*
X147642857Y-130722142D01*
X147328571Y-130636428D02*
X147328571Y-130922142D01*
X147928571Y-130922142D01*
X147928571Y-130636428D01*
X148162000Y-130522142D02*
X148162000Y-129979285D01*
X147642857Y-130379285D02*
X147642857Y-130179285D01*
X147328571Y-130093571D02*
X147328571Y-130379285D01*
X147928571Y-130379285D01*
X147928571Y-130093571D01*
X148162000Y-129979285D02*
X148162000Y-129379285D01*
X147328571Y-129836428D02*
X147928571Y-129836428D01*
X147928571Y-129607857D01*
X147900000Y-129550714D01*
X147871428Y-129522142D01*
X147814285Y-129493571D01*
X147728571Y-129493571D01*
X147671428Y-129522142D01*
X147642857Y-129550714D01*
X147614285Y-129607857D01*
X147614285Y-129836428D01*
X148162000Y-129379285D02*
X148162000Y-128779285D01*
X147328571Y-128893571D02*
X147614285Y-129093571D01*
X147328571Y-129236428D02*
X147928571Y-129236428D01*
X147928571Y-129007857D01*
X147900000Y-128950714D01*
X147871428Y-128922142D01*
X147814285Y-128893571D01*
X147728571Y-128893571D01*
X147671428Y-128922142D01*
X147642857Y-128950714D01*
X147614285Y-129007857D01*
X147614285Y-129236428D01*
X148162000Y-128779285D02*
X148162000Y-128150714D01*
X147928571Y-128522142D02*
X147928571Y-128407857D01*
X147900000Y-128350714D01*
X147842857Y-128293571D01*
X147728571Y-128265000D01*
X147528571Y-128265000D01*
X147414285Y-128293571D01*
X147357142Y-128350714D01*
X147328571Y-128407857D01*
X147328571Y-128522142D01*
X147357142Y-128579285D01*
X147414285Y-128636428D01*
X147528571Y-128665000D01*
X147728571Y-128665000D01*
X147842857Y-128636428D01*
X147900000Y-128579285D01*
X147928571Y-128522142D01*
X148162000Y-128150714D02*
X148162000Y-127465000D01*
X147328571Y-128007857D02*
X147928571Y-128007857D01*
X147500000Y-127807857D01*
X147928571Y-127607857D01*
X147328571Y-127607857D01*
X152962000Y-128522142D02*
X152962000Y-127922142D01*
X152442857Y-128179285D02*
X152414285Y-128093571D01*
X152385714Y-128065000D01*
X152328571Y-128036428D01*
X152242857Y-128036428D01*
X152185714Y-128065000D01*
X152157142Y-128093571D01*
X152128571Y-128150714D01*
X152128571Y-128379285D01*
X152728571Y-128379285D01*
X152728571Y-128179285D01*
X152700000Y-128122142D01*
X152671428Y-128093571D01*
X152614285Y-128065000D01*
X152557142Y-128065000D01*
X152500000Y-128093571D01*
X152471428Y-128122142D01*
X152442857Y-128179285D01*
X152442857Y-128379285D01*
X152962000Y-127922142D02*
X152962000Y-127465000D01*
X152728571Y-127865000D02*
X152728571Y-127522142D01*
X152128571Y-127693571D02*
X152728571Y-127693571D01*
X148957142Y-129579285D02*
X148928571Y-129636428D01*
X148928571Y-129750714D01*
X148957142Y-129807857D01*
X149014285Y-129836428D01*
X149242857Y-129836428D01*
X149300000Y-129807857D01*
X149328571Y-129750714D01*
X149328571Y-129636428D01*
X149300000Y-129579285D01*
X149242857Y-129550714D01*
X149185714Y-129550714D01*
X149128571Y-129836428D01*
X148928571Y-129293571D02*
X149528571Y-129293571D01*
X149100000Y-129093571D01*
X149528571Y-128893571D01*
X148928571Y-128893571D01*
X148928571Y-128607857D02*
X149528571Y-128607857D01*
X149100000Y-128407857D01*
X149528571Y-128207857D01*
X148928571Y-128207857D01*
X148985714Y-127579285D02*
X148957142Y-127607857D01*
X148928571Y-127693571D01*
X148928571Y-127750714D01*
X148957142Y-127836428D01*
X149014285Y-127893571D01*
X149071428Y-127922142D01*
X149185714Y-127950714D01*
X149271428Y-127950714D01*
X149385714Y-127922142D01*
X149442857Y-127893571D01*
X149500000Y-127836428D01*
X149528571Y-127750714D01*
X149528571Y-127693571D01*
X149500000Y-127607857D01*
X149471428Y-127579285D01*
X151362000Y-129236428D02*
X151362000Y-128550714D01*
X151128571Y-129150714D02*
X150528571Y-129007857D01*
X150957142Y-128893571D01*
X150528571Y-128779285D01*
X151128571Y-128636428D01*
X151362000Y-128550714D02*
X151362000Y-128265000D01*
X150528571Y-128407857D02*
X150928571Y-128407857D01*
X151128571Y-128407857D02*
X151100000Y-128436428D01*
X151071428Y-128407857D01*
X151100000Y-128379285D01*
X151128571Y-128407857D01*
X151071428Y-128407857D01*
X151362000Y-128265000D02*
X151362000Y-127750714D01*
X150842857Y-127922142D02*
X150842857Y-128122142D01*
X150528571Y-128122142D02*
X151128571Y-128122142D01*
X151128571Y-127836428D01*
X151362000Y-127750714D02*
X151362000Y-127465000D01*
X150528571Y-127607857D02*
X150928571Y-127607857D01*
X151128571Y-127607857D02*
X151100000Y-127636428D01*
X151071428Y-127607857D01*
X151100000Y-127579285D01*
X151128571Y-127607857D01*
X151071428Y-127607857D01*
D11*
G04 #@! TO.C,C4*
X112265000Y-101588747D02*
X112265000Y-102111251D01*
X113735000Y-101588747D02*
X113735000Y-102111251D01*
G04 #@! TO.C,J2*
X127270000Y-97950000D02*
X127270000Y-102400000D01*
X127270000Y-103800000D02*
X127270000Y-106100000D01*
X127270000Y-107500000D02*
X127270000Y-108220000D01*
X127270000Y-108220000D02*
X124590000Y-108220000D01*
X122290000Y-108220000D02*
X118620000Y-108220000D01*
X116320000Y-108220000D02*
X115090000Y-108220000D01*
X115090000Y-108220000D02*
X115090000Y-98400000D01*
X125790000Y-96580000D02*
X124930000Y-96580000D01*
G04 #@! TD*
%LPC*%
D12*
G04 #@! TO.C,JP4*
X147700000Y-125363400D02*
X147700000Y-126735000D01*
G04 #@! TO.C,JP1*
X149300000Y-125363400D02*
X149300000Y-126735000D01*
G04 #@! TO.C,JP2*
X150900000Y-125363400D02*
X150900000Y-126735000D01*
G04 #@! TO.C,JP3*
X152500000Y-125363400D02*
X152500000Y-126735000D01*
G04 #@! TD*
D13*
G04 #@! TO.C,SW3*
X166500000Y-103600000D03*
X166500000Y-110400000D03*
G04 #@! TD*
G04 #@! TO.C,C4*
G36*
G01*
X112525000Y-102299999D02*
X113475000Y-102299999D01*
G75*
G02*
X113725000Y-102549999I0J-250000D01*
G01*
X113725000Y-103049999D01*
G75*
G02*
X113475000Y-103299999I-250000J0D01*
G01*
X112525000Y-103299999D01*
G75*
G02*
X112275000Y-103049999I0J250000D01*
G01*
X112275000Y-102549999D01*
G75*
G02*
X112525000Y-102299999I250000J0D01*
G01*
G37*
G36*
G01*
X112525000Y-100399999D02*
X113475000Y-100399999D01*
G75*
G02*
X113725000Y-100649999I0J-250000D01*
G01*
X113725000Y-101149999D01*
G75*
G02*
X113475000Y-101399999I-250000J0D01*
G01*
X112525000Y-101399999D01*
G75*
G02*
X112275000Y-101149999I0J250000D01*
G01*
X112275000Y-100649999D01*
G75*
G02*
X112525000Y-100399999I250000J0D01*
G01*
G37*
G04 #@! TD*
D14*
G04 #@! TO.C,J1*
X98890000Y-99730000D03*
X93110000Y-99730000D03*
D15*
X91680000Y-96060000D03*
X100320000Y-96060000D03*
D16*
X91680000Y-100230000D03*
X100320000Y-100230000D03*
G04 #@! TD*
G04 #@! TO.C,JP4*
G36*
G01*
X147460000Y-124965000D02*
X147940000Y-124965000D01*
G75*
G02*
X148100000Y-125125000I0J-160000D01*
G01*
X148100000Y-125805000D01*
G75*
G02*
X147940000Y-125965000I-160000J0D01*
G01*
X147460000Y-125965000D01*
G75*
G02*
X147300000Y-125805000I0J160000D01*
G01*
X147300000Y-125125000D01*
G75*
G02*
X147460000Y-124965000I160000J0D01*
G01*
G37*
G36*
G01*
X147500000Y-126235000D02*
X147900000Y-126235000D01*
G75*
G02*
X148100000Y-126435000I0J-200000D01*
G01*
X148100000Y-127035000D01*
G75*
G02*
X147900000Y-127235000I-200000J0D01*
G01*
X147500000Y-127235000D01*
G75*
G02*
X147300000Y-127035000I0J200000D01*
G01*
X147300000Y-126435000D01*
G75*
G02*
X147500000Y-126235000I200000J0D01*
G01*
G37*
G04 #@! TD*
G04 #@! TO.C,JP1*
G36*
G01*
X149060000Y-124965000D02*
X149540000Y-124965000D01*
G75*
G02*
X149700000Y-125125000I0J-160000D01*
G01*
X149700000Y-125805000D01*
G75*
G02*
X149540000Y-125965000I-160000J0D01*
G01*
X149060000Y-125965000D01*
G75*
G02*
X148900000Y-125805000I0J160000D01*
G01*
X148900000Y-125125000D01*
G75*
G02*
X149060000Y-124965000I160000J0D01*
G01*
G37*
G36*
G01*
X149100000Y-126235000D02*
X149500000Y-126235000D01*
G75*
G02*
X149700000Y-126435000I0J-200000D01*
G01*
X149700000Y-127035000D01*
G75*
G02*
X149500000Y-127235000I-200000J0D01*
G01*
X149100000Y-127235000D01*
G75*
G02*
X148900000Y-127035000I0J200000D01*
G01*
X148900000Y-126435000D01*
G75*
G02*
X149100000Y-126235000I200000J0D01*
G01*
G37*
G04 #@! TD*
G04 #@! TO.C,JP2*
G36*
G01*
X150660000Y-124965000D02*
X151140000Y-124965000D01*
G75*
G02*
X151300000Y-125125000I0J-160000D01*
G01*
X151300000Y-125805000D01*
G75*
G02*
X151140000Y-125965000I-160000J0D01*
G01*
X150660000Y-125965000D01*
G75*
G02*
X150500000Y-125805000I0J160000D01*
G01*
X150500000Y-125125000D01*
G75*
G02*
X150660000Y-124965000I160000J0D01*
G01*
G37*
G36*
G01*
X150700000Y-126235000D02*
X151100000Y-126235000D01*
G75*
G02*
X151300000Y-126435000I0J-200000D01*
G01*
X151300000Y-127035000D01*
G75*
G02*
X151100000Y-127235000I-200000J0D01*
G01*
X150700000Y-127235000D01*
G75*
G02*
X150500000Y-127035000I0J200000D01*
G01*
X150500000Y-126435000D01*
G75*
G02*
X150700000Y-126235000I200000J0D01*
G01*
G37*
G04 #@! TD*
G04 #@! TO.C,JP3*
G36*
G01*
X152260000Y-124965000D02*
X152740000Y-124965000D01*
G75*
G02*
X152900000Y-125125000I0J-160000D01*
G01*
X152900000Y-125805000D01*
G75*
G02*
X152740000Y-125965000I-160000J0D01*
G01*
X152260000Y-125965000D01*
G75*
G02*
X152100000Y-125805000I0J160000D01*
G01*
X152100000Y-125125000D01*
G75*
G02*
X152260000Y-124965000I160000J0D01*
G01*
G37*
G36*
G01*
X152300000Y-126235000D02*
X152700000Y-126235000D01*
G75*
G02*
X152900000Y-126435000I0J-200000D01*
G01*
X152900000Y-127035000D01*
G75*
G02*
X152700000Y-127235000I-200000J0D01*
G01*
X152300000Y-127235000D01*
G75*
G02*
X152100000Y-127035000I0J200000D01*
G01*
X152100000Y-126435000D01*
G75*
G02*
X152300000Y-126235000I200000J0D01*
G01*
G37*
G04 #@! TD*
D17*
G04 #@! TO.C,U5*
X110500000Y-130500000D03*
X158500000Y-97500000D03*
X158500000Y-130500000D03*
X110500000Y-97500000D03*
G04 #@! TD*
D18*
G04 #@! TO.C,J3*
X88250000Y-121700000D03*
X103750000Y-121700000D03*
D19*
X89215000Y-129000000D03*
X89215000Y-131030000D03*
X102785000Y-129000000D03*
D20*
X101715000Y-124750000D03*
D21*
X90285000Y-115860000D03*
X92825000Y-115860000D03*
X95365000Y-115860000D03*
X97905000Y-115860000D03*
X100445000Y-115860000D03*
X91555000Y-118400000D03*
X94095000Y-118400000D03*
X96635000Y-118400000D03*
G36*
G01*
X102096000Y-119162000D02*
X101334000Y-119162000D01*
G75*
G02*
X100953000Y-118781000I0J381000D01*
G01*
X100953000Y-118019000D01*
G75*
G02*
X101334000Y-117638000I381000J0D01*
G01*
X102096000Y-117638000D01*
G75*
G02*
X102477000Y-118019000I0J-381000D01*
G01*
X102477000Y-118781000D01*
G75*
G02*
X102096000Y-119162000I-381000J0D01*
G01*
G37*
X99175000Y-118400000D03*
D20*
X90285000Y-124750000D03*
D19*
X102785000Y-131030000D03*
G04 #@! TD*
G04 #@! TO.C,FID6*
X153500000Y-97500000D03*
G04 #@! TD*
G04 #@! TO.C,FID5*
X158500000Y-125500000D03*
G04 #@! TD*
G04 #@! TO.C,FID4*
X110500000Y-125500000D03*
G04 #@! TD*
D22*
G04 #@! TO.C,H4*
X167931891Y-129068109D03*
X166500000Y-128475000D03*
X165068109Y-129068109D03*
X164475000Y-130500000D03*
X165068109Y-131931891D03*
X166500000Y-132525000D03*
X167931891Y-131931891D03*
X168525000Y-130500000D03*
D23*
X166500000Y-130500000D03*
G04 #@! TD*
D22*
G04 #@! TO.C,H3*
X167931891Y-96068109D03*
X166500000Y-95475000D03*
X165068109Y-96068109D03*
X164475000Y-97500000D03*
X165068109Y-98931891D03*
X166500000Y-99525000D03*
X167931891Y-98931891D03*
X168525000Y-97500000D03*
D23*
X166500000Y-97500000D03*
G04 #@! TD*
D24*
G04 #@! TO.C,J2*
X117470000Y-107775000D03*
X123440000Y-107775000D03*
D25*
X126940000Y-103100000D03*
X126940000Y-106800000D03*
D26*
X126765000Y-97075000D03*
D27*
X115445000Y-97300000D03*
D28*
X117705000Y-96950000D03*
X118805000Y-96950000D03*
X119905000Y-96950000D03*
X121005000Y-96950000D03*
X122105000Y-96950000D03*
X123205000Y-96950000D03*
D29*
X116655000Y-96950000D03*
D28*
X124305000Y-96950000D03*
G04 #@! TD*
D22*
G04 #@! TO.C,H2*
X84931891Y-129068109D03*
X83500000Y-128475000D03*
X82068109Y-129068109D03*
X81475000Y-130500000D03*
X82068109Y-131931891D03*
X83500000Y-132525000D03*
X84931891Y-131931891D03*
X85525000Y-130500000D03*
D23*
X83500000Y-130500000D03*
G04 #@! TD*
D22*
G04 #@! TO.C,H1*
X84931891Y-96068109D03*
X83500000Y-95475000D03*
X82068109Y-96068109D03*
X81475000Y-97500000D03*
X82068109Y-98931891D03*
X83500000Y-99525000D03*
X84931891Y-98931891D03*
X85525000Y-97500000D03*
D23*
X83500000Y-97500000D03*
G04 #@! TD*
M02*
