G04 #@! TF.GenerationSoftware,KiCad,Pcbnew,(5.1.9)-1*
G04 #@! TF.CreationDate,2021-09-18T19:11:12-04:00*
G04 #@! TF.ProjectId,cm4-carrier-net,636d342d-6361-4727-9269-65722d6e6574,v1.0a*
G04 #@! TF.SameCoordinates,Original*
G04 #@! TF.FileFunction,Paste,Top*
G04 #@! TF.FilePolarity,Positive*
%FSLAX46Y46*%
G04 Gerber Fmt 4.6, Leading zero omitted, Abs format (unit mm)*
G04 Created by KiCad (PCBNEW (5.1.9)-1) date 2021-09-18 19:11:12*
%MOMM*%
%LPD*%
G01*
G04 APERTURE LIST*
%ADD10R,1.500000X0.750000*%
%ADD11R,0.360000X0.696000*%
%ADD12R,0.180000X0.696000*%
%ADD13R,0.120000X0.420000*%
%ADD14R,0.480000X0.540000*%
%ADD15R,0.540000X1.020000*%
%ADD16R,0.180000X0.180000*%
G04 APERTURE END LIST*
D10*
G04 #@! TO.C,SW3*
X163750000Y-104500000D03*
X163750000Y-107000000D03*
X163750000Y-109500000D03*
G04 #@! TD*
G04 #@! TO.C,C5*
G36*
G01*
X103999999Y-96285000D02*
X103999999Y-95715000D01*
G75*
G02*
X104149999Y-95565000I150000J0D01*
G01*
X104449999Y-95565000D01*
G75*
G02*
X104599999Y-95715000I0J-150000D01*
G01*
X104599999Y-96285000D01*
G75*
G02*
X104449999Y-96435000I-150000J0D01*
G01*
X104149999Y-96435000D01*
G75*
G02*
X103999999Y-96285000I0J150000D01*
G01*
G37*
G36*
G01*
X102099999Y-96285000D02*
X102099999Y-95715000D01*
G75*
G02*
X102249999Y-95565000I150000J0D01*
G01*
X102549999Y-95565000D01*
G75*
G02*
X102699999Y-95715000I0J-150000D01*
G01*
X102699999Y-96285000D01*
G75*
G02*
X102549999Y-96435000I-150000J0D01*
G01*
X102249999Y-96435000D01*
G75*
G02*
X102099999Y-96285000I0J150000D01*
G01*
G37*
G04 #@! TD*
D11*
G04 #@! TO.C,J1*
X92800000Y-100810000D03*
X93600000Y-100810000D03*
X92800000Y-100810000D03*
X93600000Y-100810000D03*
X99200000Y-100810000D03*
X99200000Y-100810000D03*
X98400000Y-100810000D03*
X98400000Y-100810000D03*
D12*
X94250000Y-100810000D03*
X95250000Y-100810000D03*
X94750000Y-100810000D03*
X97250000Y-100810000D03*
X97750000Y-100810000D03*
X95750000Y-100810000D03*
X96250000Y-100810000D03*
X96750000Y-100810000D03*
G04 #@! TD*
D13*
G04 #@! TO.C,U5*
X127200000Y-132500000D03*
X127200000Y-129420000D03*
X127600000Y-132500000D03*
X127600000Y-129420000D03*
X128000000Y-132500000D03*
X128000000Y-129420000D03*
X128400000Y-132500000D03*
X128400000Y-129420000D03*
X128800000Y-132500000D03*
X128800000Y-129420000D03*
X129200000Y-132500000D03*
X129200000Y-129420000D03*
X129600000Y-132500000D03*
X129600000Y-129420000D03*
X130000000Y-132500000D03*
X130000000Y-129420000D03*
X130400000Y-132500000D03*
X130400000Y-129420000D03*
X130800000Y-132500000D03*
X130800000Y-129420000D03*
X131200000Y-132500000D03*
X131200000Y-129420000D03*
X131600000Y-132500000D03*
X131600000Y-129420000D03*
X132000000Y-132500000D03*
X132000000Y-129420000D03*
X132400000Y-132500000D03*
X132400000Y-129420000D03*
X132800000Y-132500000D03*
X132800000Y-129420000D03*
X133200000Y-132500000D03*
X133200000Y-129420000D03*
X133600000Y-132500000D03*
X133600000Y-129420000D03*
X134000000Y-132500000D03*
X134000000Y-129420000D03*
X134400000Y-132500000D03*
X134400000Y-129420000D03*
X134800000Y-132500000D03*
X134800000Y-129420000D03*
X135200000Y-132500000D03*
X135200000Y-129420000D03*
X135600000Y-132500000D03*
X135600000Y-129420000D03*
X136000000Y-132500000D03*
X136000000Y-129420000D03*
X136400000Y-132500000D03*
X136400000Y-129420000D03*
X136800000Y-132500000D03*
X136800000Y-129420000D03*
X137200000Y-132500000D03*
X137200000Y-129420000D03*
X137600000Y-132500000D03*
X137600000Y-129420000D03*
X138000000Y-132500000D03*
X138000000Y-129420000D03*
X138400000Y-132500000D03*
X138400000Y-129420000D03*
X138800000Y-132500000D03*
X138800000Y-129420000D03*
X139200000Y-132500000D03*
X139200000Y-129420000D03*
X139600000Y-132500000D03*
X139600000Y-129420000D03*
X140000000Y-132500000D03*
X140000000Y-129420000D03*
X140400000Y-132500000D03*
X140400000Y-129420000D03*
X140800000Y-132500000D03*
X140800000Y-129420000D03*
X141200000Y-132500000D03*
X141200000Y-129420000D03*
X141600000Y-132500000D03*
X141600000Y-129420000D03*
X142000000Y-132500000D03*
X142000000Y-129420000D03*
X142400000Y-132500000D03*
X142400000Y-129420000D03*
X142800000Y-132500000D03*
X142800000Y-129420000D03*
X143200000Y-132500000D03*
X143200000Y-129420000D03*
X143600000Y-132500000D03*
X143600000Y-129420000D03*
X144000000Y-132500000D03*
X144000000Y-129420000D03*
X144400000Y-132500000D03*
X144400000Y-129420000D03*
X144800000Y-132500000D03*
X144800000Y-129420000D03*
X145200000Y-132500000D03*
X145200000Y-129420000D03*
X145600000Y-132500000D03*
X145600000Y-129420000D03*
X146000000Y-132500000D03*
X146000000Y-129420000D03*
X146400000Y-132500000D03*
X146400000Y-129420000D03*
X146800000Y-132500000D03*
X146800000Y-129420000D03*
X127200000Y-98580000D03*
X127200000Y-95500000D03*
X127600000Y-98580000D03*
X127600000Y-95500000D03*
X128000000Y-98580000D03*
X128000000Y-95500000D03*
X128400000Y-98580000D03*
X128400000Y-95500000D03*
X128800000Y-98580000D03*
X128800000Y-95500000D03*
X129200000Y-98580000D03*
X129200000Y-95500000D03*
X129600000Y-98580000D03*
X129600000Y-95500000D03*
X130000000Y-98580000D03*
X130000000Y-95500000D03*
X130400000Y-98580000D03*
X130400000Y-95500000D03*
X130800000Y-98580000D03*
X130800000Y-95500000D03*
X131200000Y-98580000D03*
X131200000Y-95500000D03*
X131600000Y-98580000D03*
X131600000Y-95500000D03*
X132000000Y-98580000D03*
X132000000Y-95500000D03*
X132400000Y-98580000D03*
X132400000Y-95500000D03*
X132800000Y-98580000D03*
X132800000Y-95500000D03*
X133200000Y-98580000D03*
X133200000Y-95500000D03*
X133600000Y-98580000D03*
X133600000Y-95500000D03*
X134000000Y-98580000D03*
X134000000Y-95500000D03*
X134400000Y-98580000D03*
X134400000Y-95500000D03*
X134800000Y-98580000D03*
X134800000Y-95500000D03*
X135200000Y-98580000D03*
X135200000Y-95500000D03*
X135600000Y-98580000D03*
X135600000Y-95500000D03*
X136000000Y-98580000D03*
X136000000Y-95500000D03*
X136400000Y-98580000D03*
X136400000Y-95500000D03*
X136800000Y-98580000D03*
X136800000Y-95500000D03*
X137200000Y-98580000D03*
X137200000Y-95500000D03*
X137600000Y-98580000D03*
X137600000Y-95500000D03*
X138000000Y-98580000D03*
X138000000Y-95500000D03*
X138400000Y-98580000D03*
X138400000Y-95500000D03*
X138800000Y-98580000D03*
X138800000Y-95500000D03*
X139200000Y-98580000D03*
X139200000Y-95500000D03*
X139600000Y-98580000D03*
X139600000Y-95500000D03*
X140000000Y-98580000D03*
X140000000Y-95500000D03*
X140400000Y-98580000D03*
X140400000Y-95500000D03*
X140800000Y-98580000D03*
X140800000Y-95500000D03*
X141200000Y-98580000D03*
X141200000Y-95500000D03*
X141600000Y-98580000D03*
X141600000Y-95500000D03*
X142000000Y-98580000D03*
X142000000Y-95500000D03*
X142400000Y-98580000D03*
X142400000Y-95500000D03*
X142800000Y-98580000D03*
X142800000Y-95500000D03*
X143200000Y-98580000D03*
X143200000Y-95500000D03*
X143600000Y-98580000D03*
X143600000Y-95500000D03*
X144000000Y-98580000D03*
X144000000Y-95500000D03*
X144400000Y-98580000D03*
X144400000Y-95500000D03*
X144800000Y-98580000D03*
X144800000Y-95500000D03*
X145200000Y-98580000D03*
X145200000Y-95500000D03*
X145600000Y-98580000D03*
X145600000Y-95500000D03*
X146000000Y-98580000D03*
X146000000Y-95500000D03*
X146400000Y-98580000D03*
X146400000Y-95500000D03*
X146800000Y-98580000D03*
X146800000Y-95500000D03*
G04 #@! TD*
G04 #@! TO.C,D4*
G36*
G01*
X89475000Y-105146250D02*
X89475000Y-105453750D01*
G75*
G02*
X89343750Y-105585000I-131250J0D01*
G01*
X89081250Y-105585000D01*
G75*
G02*
X88950000Y-105453750I0J131250D01*
G01*
X88950000Y-105146250D01*
G75*
G02*
X89081250Y-105015000I131250J0D01*
G01*
X89343750Y-105015000D01*
G75*
G02*
X89475000Y-105146250I0J-131250D01*
G01*
G37*
G36*
G01*
X91050000Y-105146250D02*
X91050000Y-105453750D01*
G75*
G02*
X90918750Y-105585000I-131250J0D01*
G01*
X90656250Y-105585000D01*
G75*
G02*
X90525000Y-105453750I0J131250D01*
G01*
X90525000Y-105146250D01*
G75*
G02*
X90656250Y-105015000I131250J0D01*
G01*
X90918750Y-105015000D01*
G75*
G02*
X91050000Y-105146250I0J-131250D01*
G01*
G37*
G04 #@! TD*
G04 #@! TO.C,D3*
G36*
G01*
X89475000Y-107146250D02*
X89475000Y-107453750D01*
G75*
G02*
X89343750Y-107585000I-131250J0D01*
G01*
X89081250Y-107585000D01*
G75*
G02*
X88950000Y-107453750I0J131250D01*
G01*
X88950000Y-107146250D01*
G75*
G02*
X89081250Y-107015000I131250J0D01*
G01*
X89343750Y-107015000D01*
G75*
G02*
X89475000Y-107146250I0J-131250D01*
G01*
G37*
G36*
G01*
X91050000Y-107146250D02*
X91050000Y-107453750D01*
G75*
G02*
X90918750Y-107585000I-131250J0D01*
G01*
X90656250Y-107585000D01*
G75*
G02*
X90525000Y-107453750I0J131250D01*
G01*
X90525000Y-107146250D01*
G75*
G02*
X90656250Y-107015000I131250J0D01*
G01*
X90918750Y-107015000D01*
G75*
G02*
X91050000Y-107146250I0J-131250D01*
G01*
G37*
G04 #@! TD*
D14*
G04 #@! TO.C,Q1*
X88900000Y-100600000D03*
X89850000Y-103000000D03*
X87950000Y-103000000D03*
G04 #@! TD*
D15*
G04 #@! TO.C,SW2*
X84700000Y-111000000D03*
X81300000Y-111000000D03*
G04 #@! TD*
G04 #@! TO.C,SW1*
X84700000Y-105000000D03*
X81300000Y-105000000D03*
G04 #@! TD*
G04 #@! TO.C,R12*
G36*
G01*
X93585000Y-105465000D02*
X93585000Y-105135000D01*
G75*
G02*
X93705000Y-105015000I120000J0D01*
G01*
X93945000Y-105015000D01*
G75*
G02*
X94065000Y-105135000I0J-120000D01*
G01*
X94065000Y-105465000D01*
G75*
G02*
X93945000Y-105585000I-120000J0D01*
G01*
X93705000Y-105585000D01*
G75*
G02*
X93585000Y-105465000I0J120000D01*
G01*
G37*
G36*
G01*
X91935000Y-105465000D02*
X91935000Y-105135000D01*
G75*
G02*
X92055000Y-105015000I120000J0D01*
G01*
X92295000Y-105015000D01*
G75*
G02*
X92415000Y-105135000I0J-120000D01*
G01*
X92415000Y-105465000D01*
G75*
G02*
X92295000Y-105585000I-120000J0D01*
G01*
X92055000Y-105585000D01*
G75*
G02*
X91935000Y-105465000I0J120000D01*
G01*
G37*
G04 #@! TD*
G04 #@! TO.C,R11*
G36*
G01*
X83585000Y-114765000D02*
X83585000Y-114435000D01*
G75*
G02*
X83705000Y-114315000I120000J0D01*
G01*
X83945000Y-114315000D01*
G75*
G02*
X84065000Y-114435000I0J-120000D01*
G01*
X84065000Y-114765000D01*
G75*
G02*
X83945000Y-114885000I-120000J0D01*
G01*
X83705000Y-114885000D01*
G75*
G02*
X83585000Y-114765000I0J120000D01*
G01*
G37*
G36*
G01*
X81935000Y-114765000D02*
X81935000Y-114435000D01*
G75*
G02*
X82055000Y-114315000I120000J0D01*
G01*
X82295000Y-114315000D01*
G75*
G02*
X82415000Y-114435000I0J-120000D01*
G01*
X82415000Y-114765000D01*
G75*
G02*
X82295000Y-114885000I-120000J0D01*
G01*
X82055000Y-114885000D01*
G75*
G02*
X81935000Y-114765000I0J120000D01*
G01*
G37*
G04 #@! TD*
G04 #@! TO.C,R10*
G36*
G01*
X92415000Y-107135000D02*
X92415000Y-107465000D01*
G75*
G02*
X92295000Y-107585000I-120000J0D01*
G01*
X92055000Y-107585000D01*
G75*
G02*
X91935000Y-107465000I0J120000D01*
G01*
X91935000Y-107135000D01*
G75*
G02*
X92055000Y-107015000I120000J0D01*
G01*
X92295000Y-107015000D01*
G75*
G02*
X92415000Y-107135000I0J-120000D01*
G01*
G37*
G36*
G01*
X94065000Y-107135000D02*
X94065000Y-107465000D01*
G75*
G02*
X93945000Y-107585000I-120000J0D01*
G01*
X93705000Y-107585000D01*
G75*
G02*
X93585000Y-107465000I0J120000D01*
G01*
X93585000Y-107135000D01*
G75*
G02*
X93705000Y-107015000I120000J0D01*
G01*
X93945000Y-107015000D01*
G75*
G02*
X94065000Y-107135000I0J-120000D01*
G01*
G37*
G04 #@! TD*
G04 #@! TO.C,R9*
G36*
G01*
X83585000Y-108665000D02*
X83585000Y-108335000D01*
G75*
G02*
X83705000Y-108215000I120000J0D01*
G01*
X83945000Y-108215000D01*
G75*
G02*
X84065000Y-108335000I0J-120000D01*
G01*
X84065000Y-108665000D01*
G75*
G02*
X83945000Y-108785000I-120000J0D01*
G01*
X83705000Y-108785000D01*
G75*
G02*
X83585000Y-108665000I0J120000D01*
G01*
G37*
G36*
G01*
X81935000Y-108665000D02*
X81935000Y-108335000D01*
G75*
G02*
X82055000Y-108215000I120000J0D01*
G01*
X82295000Y-108215000D01*
G75*
G02*
X82415000Y-108335000I0J-120000D01*
G01*
X82415000Y-108665000D01*
G75*
G02*
X82295000Y-108785000I-120000J0D01*
G01*
X82055000Y-108785000D01*
G75*
G02*
X81935000Y-108665000I0J120000D01*
G01*
G37*
G04 #@! TD*
G04 #@! TO.C,R8*
G36*
G01*
X86135000Y-103385000D02*
X86465000Y-103385000D01*
G75*
G02*
X86585000Y-103505000I0J-120000D01*
G01*
X86585000Y-103745000D01*
G75*
G02*
X86465000Y-103865000I-120000J0D01*
G01*
X86135000Y-103865000D01*
G75*
G02*
X86015000Y-103745000I0J120000D01*
G01*
X86015000Y-103505000D01*
G75*
G02*
X86135000Y-103385000I120000J0D01*
G01*
G37*
G36*
G01*
X86135000Y-101735000D02*
X86465000Y-101735000D01*
G75*
G02*
X86585000Y-101855000I0J-120000D01*
G01*
X86585000Y-102095000D01*
G75*
G02*
X86465000Y-102215000I-120000J0D01*
G01*
X86135000Y-102215000D01*
G75*
G02*
X86015000Y-102095000I0J120000D01*
G01*
X86015000Y-101855000D01*
G75*
G02*
X86135000Y-101735000I120000J0D01*
G01*
G37*
G04 #@! TD*
G04 #@! TO.C,R7*
G36*
G01*
X93585000Y-109465000D02*
X93585000Y-109135000D01*
G75*
G02*
X93705000Y-109015000I120000J0D01*
G01*
X93945000Y-109015000D01*
G75*
G02*
X94065000Y-109135000I0J-120000D01*
G01*
X94065000Y-109465000D01*
G75*
G02*
X93945000Y-109585000I-120000J0D01*
G01*
X93705000Y-109585000D01*
G75*
G02*
X93585000Y-109465000I0J120000D01*
G01*
G37*
G36*
G01*
X91935000Y-109465000D02*
X91935000Y-109135000D01*
G75*
G02*
X92055000Y-109015000I120000J0D01*
G01*
X92295000Y-109015000D01*
G75*
G02*
X92415000Y-109135000I0J-120000D01*
G01*
X92415000Y-109465000D01*
G75*
G02*
X92295000Y-109585000I-120000J0D01*
G01*
X92055000Y-109585000D01*
G75*
G02*
X91935000Y-109465000I0J120000D01*
G01*
G37*
G04 #@! TD*
G04 #@! TO.C,R6*
G36*
G01*
X93585000Y-111465000D02*
X93585000Y-111135000D01*
G75*
G02*
X93705000Y-111015000I120000J0D01*
G01*
X93945000Y-111015000D01*
G75*
G02*
X94065000Y-111135000I0J-120000D01*
G01*
X94065000Y-111465000D01*
G75*
G02*
X93945000Y-111585000I-120000J0D01*
G01*
X93705000Y-111585000D01*
G75*
G02*
X93585000Y-111465000I0J120000D01*
G01*
G37*
G36*
G01*
X91935000Y-111465000D02*
X91935000Y-111135000D01*
G75*
G02*
X92055000Y-111015000I120000J0D01*
G01*
X92295000Y-111015000D01*
G75*
G02*
X92415000Y-111135000I0J-120000D01*
G01*
X92415000Y-111465000D01*
G75*
G02*
X92295000Y-111585000I-120000J0D01*
G01*
X92055000Y-111585000D01*
G75*
G02*
X91935000Y-111465000I0J120000D01*
G01*
G37*
G04 #@! TD*
G04 #@! TO.C,D2*
G36*
G01*
X89475000Y-109146250D02*
X89475000Y-109453750D01*
G75*
G02*
X89343750Y-109585000I-131250J0D01*
G01*
X89081250Y-109585000D01*
G75*
G02*
X88950000Y-109453750I0J131250D01*
G01*
X88950000Y-109146250D01*
G75*
G02*
X89081250Y-109015000I131250J0D01*
G01*
X89343750Y-109015000D01*
G75*
G02*
X89475000Y-109146250I0J-131250D01*
G01*
G37*
G36*
G01*
X91050000Y-109146250D02*
X91050000Y-109453750D01*
G75*
G02*
X90918750Y-109585000I-131250J0D01*
G01*
X90656250Y-109585000D01*
G75*
G02*
X90525000Y-109453750I0J131250D01*
G01*
X90525000Y-109146250D01*
G75*
G02*
X90656250Y-109015000I131250J0D01*
G01*
X90918750Y-109015000D01*
G75*
G02*
X91050000Y-109146250I0J-131250D01*
G01*
G37*
G04 #@! TD*
G04 #@! TO.C,D1*
G36*
G01*
X89475000Y-111146250D02*
X89475000Y-111453750D01*
G75*
G02*
X89343750Y-111585000I-131250J0D01*
G01*
X89081250Y-111585000D01*
G75*
G02*
X88950000Y-111453750I0J131250D01*
G01*
X88950000Y-111146250D01*
G75*
G02*
X89081250Y-111015000I131250J0D01*
G01*
X89343750Y-111015000D01*
G75*
G02*
X89475000Y-111146250I0J-131250D01*
G01*
G37*
G36*
G01*
X91050000Y-111146250D02*
X91050000Y-111453750D01*
G75*
G02*
X90918750Y-111585000I-131250J0D01*
G01*
X90656250Y-111585000D01*
G75*
G02*
X90525000Y-111453750I0J131250D01*
G01*
X90525000Y-111146250D01*
G75*
G02*
X90656250Y-111015000I131250J0D01*
G01*
X90918750Y-111015000D01*
G75*
G02*
X91050000Y-111146250I0J-131250D01*
G01*
G37*
G04 #@! TD*
G04 #@! TO.C,C3*
G36*
G01*
X85350000Y-117715000D02*
X85350000Y-118285000D01*
G75*
G02*
X85200000Y-118435000I-150000J0D01*
G01*
X84900000Y-118435000D01*
G75*
G02*
X84750000Y-118285000I0J150000D01*
G01*
X84750000Y-117715000D01*
G75*
G02*
X84900000Y-117565000I150000J0D01*
G01*
X85200000Y-117565000D01*
G75*
G02*
X85350000Y-117715000I0J-150000D01*
G01*
G37*
G36*
G01*
X87250000Y-117715000D02*
X87250000Y-118285000D01*
G75*
G02*
X87100000Y-118435000I-150000J0D01*
G01*
X86800000Y-118435000D01*
G75*
G02*
X86650000Y-118285000I0J150000D01*
G01*
X86650000Y-117715000D01*
G75*
G02*
X86800000Y-117565000I150000J0D01*
G01*
X87100000Y-117565000D01*
G75*
G02*
X87250000Y-117715000I0J-150000D01*
G01*
G37*
G04 #@! TD*
G04 #@! TO.C,FB1*
G36*
G01*
X103200000Y-100371250D02*
X103200000Y-100828750D01*
G75*
G02*
X103068750Y-100960000I-131250J0D01*
G01*
X102806250Y-100960000D01*
G75*
G02*
X102675000Y-100828750I0J131250D01*
G01*
X102675000Y-100371250D01*
G75*
G02*
X102806250Y-100240000I131250J0D01*
G01*
X103068750Y-100240000D01*
G75*
G02*
X103200000Y-100371250I0J-131250D01*
G01*
G37*
G36*
G01*
X105325000Y-100371250D02*
X105325000Y-100828750D01*
G75*
G02*
X105193750Y-100960000I-131250J0D01*
G01*
X104931250Y-100960000D01*
G75*
G02*
X104800000Y-100828750I0J131250D01*
G01*
X104800000Y-100371250D01*
G75*
G02*
X104931250Y-100240000I131250J0D01*
G01*
X105193750Y-100240000D01*
G75*
G02*
X105325000Y-100371250I0J-131250D01*
G01*
G37*
G04 #@! TD*
D16*
G04 #@! TO.C,U6*
X96000000Y-102775000D03*
X96350000Y-103625000D03*
X95650000Y-103625000D03*
G04 #@! TD*
G04 #@! TO.C,R4*
G36*
G01*
X86965000Y-124115000D02*
X86635000Y-124115000D01*
G75*
G02*
X86515000Y-123995000I0J120000D01*
G01*
X86515000Y-123755000D01*
G75*
G02*
X86635000Y-123635000I120000J0D01*
G01*
X86965000Y-123635000D01*
G75*
G02*
X87085000Y-123755000I0J-120000D01*
G01*
X87085000Y-123995000D01*
G75*
G02*
X86965000Y-124115000I-120000J0D01*
G01*
G37*
G36*
G01*
X86965000Y-125765000D02*
X86635000Y-125765000D01*
G75*
G02*
X86515000Y-125645000I0J120000D01*
G01*
X86515000Y-125405000D01*
G75*
G02*
X86635000Y-125285000I120000J0D01*
G01*
X86965000Y-125285000D01*
G75*
G02*
X87085000Y-125405000I0J-120000D01*
G01*
X87085000Y-125645000D01*
G75*
G02*
X86965000Y-125765000I-120000J0D01*
G01*
G37*
G04 #@! TD*
G04 #@! TO.C,R3*
G36*
G01*
X105265000Y-124215000D02*
X104935000Y-124215000D01*
G75*
G02*
X104815000Y-124095000I0J120000D01*
G01*
X104815000Y-123855000D01*
G75*
G02*
X104935000Y-123735000I120000J0D01*
G01*
X105265000Y-123735000D01*
G75*
G02*
X105385000Y-123855000I0J-120000D01*
G01*
X105385000Y-124095000D01*
G75*
G02*
X105265000Y-124215000I-120000J0D01*
G01*
G37*
G36*
G01*
X105265000Y-125865000D02*
X104935000Y-125865000D01*
G75*
G02*
X104815000Y-125745000I0J120000D01*
G01*
X104815000Y-125505000D01*
G75*
G02*
X104935000Y-125385000I120000J0D01*
G01*
X105265000Y-125385000D01*
G75*
G02*
X105385000Y-125505000I0J-120000D01*
G01*
X105385000Y-125745000D01*
G75*
G02*
X105265000Y-125865000I-120000J0D01*
G01*
G37*
G04 #@! TD*
G04 #@! TO.C,R2*
G36*
G01*
X93585000Y-103365000D02*
X93585000Y-103035000D01*
G75*
G02*
X93705000Y-102915000I120000J0D01*
G01*
X93945000Y-102915000D01*
G75*
G02*
X94065000Y-103035000I0J-120000D01*
G01*
X94065000Y-103365000D01*
G75*
G02*
X93945000Y-103485000I-120000J0D01*
G01*
X93705000Y-103485000D01*
G75*
G02*
X93585000Y-103365000I0J120000D01*
G01*
G37*
G36*
G01*
X91935000Y-103365000D02*
X91935000Y-103035000D01*
G75*
G02*
X92055000Y-102915000I120000J0D01*
G01*
X92295000Y-102915000D01*
G75*
G02*
X92415000Y-103035000I0J-120000D01*
G01*
X92415000Y-103365000D01*
G75*
G02*
X92295000Y-103485000I-120000J0D01*
G01*
X92055000Y-103485000D01*
G75*
G02*
X91935000Y-103365000I0J120000D01*
G01*
G37*
G04 #@! TD*
G04 #@! TO.C,R1*
G36*
G01*
X98415000Y-103035000D02*
X98415000Y-103365000D01*
G75*
G02*
X98295000Y-103485000I-120000J0D01*
G01*
X98055000Y-103485000D01*
G75*
G02*
X97935000Y-103365000I0J120000D01*
G01*
X97935000Y-103035000D01*
G75*
G02*
X98055000Y-102915000I120000J0D01*
G01*
X98295000Y-102915000D01*
G75*
G02*
X98415000Y-103035000I0J-120000D01*
G01*
G37*
G36*
G01*
X100065000Y-103035000D02*
X100065000Y-103365000D01*
G75*
G02*
X99945000Y-103485000I-120000J0D01*
G01*
X99705000Y-103485000D01*
G75*
G02*
X99585000Y-103365000I0J120000D01*
G01*
X99585000Y-103035000D01*
G75*
G02*
X99705000Y-102915000I120000J0D01*
G01*
X99945000Y-102915000D01*
G75*
G02*
X100065000Y-103035000I0J-120000D01*
G01*
G37*
G04 #@! TD*
G04 #@! TO.C,C2*
G36*
G01*
X104650000Y-102885000D02*
X104650000Y-102315000D01*
G75*
G02*
X104800000Y-102165000I150000J0D01*
G01*
X105100000Y-102165000D01*
G75*
G02*
X105250000Y-102315000I0J-150000D01*
G01*
X105250000Y-102885000D01*
G75*
G02*
X105100000Y-103035000I-150000J0D01*
G01*
X104800000Y-103035000D01*
G75*
G02*
X104650000Y-102885000I0J150000D01*
G01*
G37*
G36*
G01*
X102750000Y-102885000D02*
X102750000Y-102315000D01*
G75*
G02*
X102900000Y-102165000I150000J0D01*
G01*
X103200000Y-102165000D01*
G75*
G02*
X103350000Y-102315000I0J-150000D01*
G01*
X103350000Y-102885000D01*
G75*
G02*
X103200000Y-103035000I-150000J0D01*
G01*
X102900000Y-103035000D01*
G75*
G02*
X102750000Y-102885000I0J150000D01*
G01*
G37*
G04 #@! TD*
G04 #@! TO.C,C1*
G36*
G01*
X104650000Y-104985000D02*
X104650000Y-104415000D01*
G75*
G02*
X104800000Y-104265000I150000J0D01*
G01*
X105100000Y-104265000D01*
G75*
G02*
X105250000Y-104415000I0J-150000D01*
G01*
X105250000Y-104985000D01*
G75*
G02*
X105100000Y-105135000I-150000J0D01*
G01*
X104800000Y-105135000D01*
G75*
G02*
X104650000Y-104985000I0J150000D01*
G01*
G37*
G36*
G01*
X102750000Y-104985000D02*
X102750000Y-104415000D01*
G75*
G02*
X102900000Y-104265000I150000J0D01*
G01*
X103200000Y-104265000D01*
G75*
G02*
X103350000Y-104415000I0J-150000D01*
G01*
X103350000Y-104985000D01*
G75*
G02*
X103200000Y-105135000I-150000J0D01*
G01*
X102900000Y-105135000D01*
G75*
G02*
X102750000Y-104985000I0J150000D01*
G01*
G37*
G04 #@! TD*
M02*
