M48
; DRILL file {KiCad (5.1.9)-1} date 09/18/21 19:11:13
; FORMAT={-:-/ absolute / inch / decimal}
; #@! TF.CreationDate,2021-09-18T19:11:13-04:00
; #@! TF.GenerationSoftware,Kicad,Pcbnew,(5.1.9)-1
FMAT,2
INCH
T1C0.0098
T2C0.0157
T3C0.0197
T4C0.0236
T5C0.0354
T6C0.0402
T7C0.0630
T8C0.1063
T9C0.0256
T10C0.0354
T11C0.1063
T12C0.1280
%
G90
G05
T1
X3.3307Y-4.5118
X3.3386Y-4.2717
X3.3622Y-4.874
X3.3622Y-4.9409
X3.4173Y-3.9646
X3.4764Y-4.1457
X3.4764Y-4.3819
X3.4764Y-4.4291
X3.5Y-3.9961
X3.5945Y-4.063
X3.7244Y-4.1457
X3.7244Y-4.3031
X3.7244Y-4.3819
X3.7795Y-4.0236
X3.9646Y-4.063
X3.9764Y-4.2717
X4.0551Y-4.2717
X4.0827Y-4.3031
X4.1772Y-4.9449
X4.2598Y-4.8268
X4.3228Y-4.0906
X4.3858Y-4.8268
X4.4724Y-4.378
X4.4813Y-4.8809
X4.9291Y-4.622
X4.9291Y-4.4882
X4.9409Y-3.9331
X4.9882Y-5.2244
X5.0079Y-3.9094
X5.0079Y-5.0669
X5.0551Y-3.7874
X5.0551Y-3.9094
X5.0551Y-5.0669
X5.1024Y-3.7874
X5.1024Y-3.8543
X5.1024Y-5.1457
X5.1339Y-5.189
X5.1574Y-3.8541
X5.1575Y-5.1693
X5.1654Y-3.7875
X5.1811Y-5.126
X5.185Y-5.1693
X5.1969Y-3.7874
X5.1969Y-3.8543
X5.2126Y-5.1889
X5.2441Y-3.7874
X5.2441Y-3.8543
X5.2441Y-5.126
X5.2598Y-5.189
X5.2913Y-3.7874
X5.2913Y-3.8543
X5.315Y-5.189
X5.3386Y-3.7874
X5.3543Y-5.1732
X5.3701Y-3.7875
X5.3858Y-5.1732
X5.4173Y-5.189
X5.4331Y-3.7874
X5.4331Y-3.8543
X5.4488Y-5.189
X5.4803Y-3.7874
X5.4803Y-3.8543
X5.4803Y-5.0669
X5.4803Y-5.189
X5.5276Y-3.7874
X5.5276Y-3.8543
X5.5276Y-5.1614
X5.5276Y-5.189
X5.5591Y-5.1889
X5.5748Y-3.7874
X5.5748Y-3.8543
X5.5748Y-5.0669
X5.6063Y-5.1889
X5.6102Y-4.9843
X5.622Y-3.7874
X5.622Y-3.8543
X5.6535Y-5.1614
X5.6693Y-3.7874
X5.6693Y-3.8543
X5.7008Y-5.189
X5.7165Y-5.2441
X5.7165Y-3.7874
X5.7165Y-3.8543
X5.7638Y-3.7874
X5.7638Y-3.8543
X5.7638Y-5.0669
T2
X3.3031Y-4.6457
X3.378Y-4.1339
X3.378Y-4.3701
X3.6535Y-4.0157
X3.9055Y-4.0157
X4.0157Y-4.0394
X4.0157Y-4.122
X4.1496Y-3.7795
X4.1732Y-4.0394
X4.1732Y-4.122
X4.3937Y-3.9921
X4.3937Y-4.0472
X4.6772Y-3.8583
X4.7638Y-3.8583
X4.9627Y-4.0591
X5.6457Y-5.252
X5.815Y-4.8819
X5.878Y-4.8819
X5.9409Y-4.8819
X6.0039Y-4.8819
X6.378Y-4.1142
T3
X3.2077Y-3.8386
X3.2077Y-5.1378
X3.231Y-3.7822
X3.231Y-3.895
X3.231Y-5.0814
X3.231Y-5.1942
X3.2874Y-3.7589
X3.2874Y-3.9183
X3.2874Y-5.0581
X3.2874Y-5.2175
X3.3438Y-3.7822
X3.3438Y-3.895
X3.3438Y-5.0814
X3.3438Y-5.1942
X3.3671Y-3.8386
X3.3671Y-5.1378
X6.4754Y-3.8386
X6.4754Y-5.1378
X6.4987Y-3.7822
X6.4987Y-3.895
X6.4987Y-5.0814
X6.4987Y-5.1942
X6.5551Y-3.7589
X6.5551Y-3.9183
X6.5551Y-5.0581
X6.5551Y-5.2175
X6.6115Y-3.7822
X6.6115Y-3.895
X6.6115Y-5.0814
X6.6115Y-5.1942
X6.6348Y-3.8386
X6.6348Y-5.1378
T5
X3.5545Y-4.5614
X3.6045Y-4.6614
X3.6545Y-4.5614
X3.7045Y-4.6614
X3.7545Y-4.5614
X3.8045Y-4.6614
X3.8545Y-4.5614
X3.9045Y-4.6614
X3.9545Y-4.5614
X4.0045Y-4.6614
T6
X3.5124Y-5.0787
X3.5124Y-5.1587
X4.0467Y-5.0787
X4.0467Y-5.1587
T7
X3.4744Y-4.7913
X4.0846Y-4.7913
T8
X3.2874Y-3.8386
X3.2874Y-5.1378
X6.5551Y-3.8386
X6.5551Y-5.1378
T9
X3.6657Y-3.9264
X3.8933Y-3.9264
T10
X6.5551Y-4.0787
X6.5551Y-4.3465
T11
X4.3504Y-3.8386
X4.3504Y-5.1378
X6.2402Y-3.8386
X6.2402Y-5.1378
T12
X3.5545Y-4.9114
X4.0045Y-4.9114
T4
G00X3.6094Y-3.7661
M15
G01X3.6094Y-3.7976
M16
G05
G00X3.6094Y-3.9244
M15
G01X3.6094Y-3.9677
M16
G05
G00X3.9496Y-3.7661
M15
G01X3.9496Y-3.7976
M16
G05
G00X3.9496Y-3.9244
M15
G01X3.9496Y-3.9677
M16
G05
T0
M30
